<ttFont>
<head>
    <!-- Most of this table will be recalculated by the compiler -->
    <tableVersion value="1.0"/>
    <fontRevision value="1.2"/>
    <checkSumAdjustment value="0x1daf3def"/>
    <magicNumber value="0x5f0f3cf5"/>
    <flags value="00000000 00000001"/>
    <unitsPerEm value="1000"/>
    <created value="Mon Jun 22 21:59:40 2020"/>
    <modified value="Mon Jun 22 22:21:14 2020"/>
    <xMin value="-31"/>
    <yMin value="-200"/>
    <xMax value="4384"/>
    <yMax value="871"/>
    <macStyle value="00000000 00000000"/>
    <lowestRecPPEM value="3"/>
    <fontDirectionHint value="2"/>
    <indexToLocFormat value="0"/>
    <glyphDataFormat value="0"/>
  </head>
    <TTGlyph name=".notdef" xMin="50" yMin="-200" xMax="450" yMax="800">
      <contour>
        <pt x="50" y="-200" on="1"/>
        <pt x="450" y="-200" on="1"/>
        <pt x="450" y="800" on="1"/>
        <pt x="50" y="800" on="1"/>
      </contour>
      <contour>
        <pt x="100" y="-150" on="1"/>
        <pt x="100" y="750" on="1"/>
        <pt x="400" y="750" on="1"/>
        <pt x="400" y="-150" on="1"/>
      </contour>
    </TTGlyph>
    <TTGlyph name="A" xMin="-3" yMin="59" xMax="545" yMax="695">
      <contour>
        <pt x="78" y="377" on="1"/>
        <pt x="78" y="402" on="0"/>
        <pt x="32" y="435" on="0"/>
        <pt x="1" y="435" on="1"/>
        <pt x="-3" y="443" on="1"/>
        <pt x="120" y="637" on="1"/>
        <pt x="136" y="662" on="0"/>
        <pt x="160" y="695" on="0"/>
        <pt x="177" y="695" on="1"/>
        <pt x="191" y="695" on="0"/>
        <pt x="218" y="676" on="0"/>
        <pt x="218" y="660" on="1"/>
        <pt x="218" y="640" on="0"/>
        <pt x="192" y="611" on="0"/>
        <pt x="167" y="583" on="1"/>
        <pt x="67" y="474" on="1"/>
        <pt x="102" y="462" on="1"/>
        <pt x="265" y="582" on="1"/>
        <pt x="299" y="607" on="0"/>
        <pt x="347" y="639" on="0"/>
        <pt x="364" y="639" on="1"/>
        <pt x="385" y="639" on="0"/>
        <pt x="403" y="607" on="0"/>
        <pt x="403" y="597" on="1"/>
        <pt x="403" y="576" on="0"/>
        <pt x="361" y="549" on="0"/>
        <pt x="320" y="529" on="1"/>
        <pt x="133" y="438" on="1"/>
        <pt x="150" y="417" on="1"/>
        <pt x="341" y="470" on="1"/>
        <pt x="381" y="481" on="0"/>
        <pt x="475" y="512" on="0"/>
        <pt x="505" y="512" on="1"/>
        <pt x="524" y="512" on="0"/>
        <pt x="545" y="487" on="0"/>
        <pt x="545" y="468" on="1"/>
        <pt x="545" y="437" on="0"/>
        <pt x="462" y="420" on="0"/>
        <pt x="358" y="408" on="1"/>
        <pt x="157" y="386" on="1"/>
        <pt x="157" y="368" on="1"/>
        <pt x="358" y="346" on="1"/>
        <pt x="462" y="334" on="0"/>
        <pt x="545" y="317" on="0"/>
        <pt x="545" y="286" on="1"/>
        <pt x="545" y="267" on="0"/>
        <pt x="524" y="242" on="0"/>
        <pt x="505" y="242" on="1"/>
        <pt x="475" y="242" on="0"/>
        <pt x="381" y="273" on="0"/>
        <pt x="341" y="284" on="1"/>
        <pt x="150" y="337" on="1"/>
        <pt x="133" y="316" on="1"/>
        <pt x="320" y="225" on="1"/>
        <pt x="361" y="205" on="0"/>
        <pt x="403" y="178" on="0"/>
        <pt x="403" y="157" on="1"/>
        <pt x="403" y="147" on="0"/>
        <pt x="385" y="115" on="0"/>
        <pt x="364" y="115" on="1"/>
        <pt x="347" y="115" on="0"/>
        <pt x="299" y="147" on="0"/>
        <pt x="265" y="172" on="1"/>
        <pt x="102" y="292" on="1"/>
        <pt x="67" y="280" on="1"/>
        <pt x="167" y="171" on="1"/>
        <pt x="192" y="143" on="0"/>
        <pt x="218" y="114" on="0"/>
        <pt x="218" y="94" on="1"/>
        <pt x="218" y="78" on="0"/>
        <pt x="191" y="59" on="0"/>
        <pt x="177" y="59" on="1"/>
        <pt x="160" y="59" on="0"/>
        <pt x="136" y="92" on="0"/>
        <pt x="120" y="117" on="1"/>
        <pt x="-3" y="311" on="1"/>
        <pt x="1" y="319" on="1"/>
        <pt x="32" y="319" on="0"/>
        <pt x="78" y="352" on="0"/>
      </contour>
    </TTGlyph>
    <TTGlyph name="AE" xMin="0" yMin="0" xMax="761" yMax="754">
      <contour>
        <pt x="761" y="0" on="1"/>
        <pt x="0" y="0" on="1"/>
        <pt x="0" y="754" on="1"/>
        <pt x="761" y="754" on="1"/>
      </contour>
      <contour>
        <pt x="66" y="66" on="1"/>
        <pt x="695" y="66" on="1"/>
        <pt x="695" y="687" on="1"/>
        <pt x="66" y="687" on="1"/>
      </contour>
      <contour>
        <pt x="640" y="116" on="1"/>
        <pt x="120" y="116" on="1"/>
        <pt x="120" y="638" on="1"/>
        <pt x="640" y="638" on="1"/>
      </contour>
      <contour>
        <pt x="495" y="167" on="1"/>
        <pt x="532" y="167" on="0"/>
        <pt x="590" y="222" on="0"/>
        <pt x="590" y="262" on="1"/>
        <pt x="590" y="301" on="0"/>
        <pt x="544" y="361" on="0"/>
        <pt x="527" y="377" on="1"/>
        <pt x="544" y="392" on="0"/>
        <pt x="590" y="453" on="0"/>
        <pt x="590" y="491" on="1"/>
        <pt x="590" y="532" on="0"/>
        <pt x="532" y="586" on="0"/>
        <pt x="495" y="586" on="1"/>
        <pt x="458" y="586" on="0"/>
        <pt x="408" y="554" on="0"/>
        <pt x="380" y="523" on="1"/>
        <pt x="353" y="554" on="0"/>
        <pt x="303" y="586" on="0"/>
        <pt x="266" y="586" on="1"/>
        <pt x="229" y="586" on="0"/>
        <pt x="171" y="532" on="0"/>
        <pt x="171" y="491" on="1"/>
        <pt x="171" y="453" on="0"/>
        <pt x="217" y="392" on="0"/>
        <pt x="234" y="377" on="1"/>
        <pt x="217" y="361" on="0"/>
        <pt x="171" y="301" on="0"/>
        <pt x="171" y="262" on="1"/>
        <pt x="171" y="222" on="0"/>
        <pt x="229" y="167" on="0"/>
        <pt x="266" y="167" on="1"/>
        <pt x="303" y="167" on="0"/>
        <pt x="353" y="200" on="0"/>
        <pt x="380" y="230" on="1"/>
        <pt x="408" y="200" on="0"/>
        <pt x="458" y="167" on="0"/>
      </contour>
      <contour>
        <pt x="486" y="401" on="1"/>
        <pt x="479" y="430" on="0"/>
        <pt x="437" y="474" on="0"/>
        <pt x="408" y="482" on="1"/>
        <pt x="436" y="494" on="0"/>
        <pt x="463" y="531" on="0"/>
        <pt x="491" y="531" on="1"/>
        <pt x="510" y="531" on="0"/>
        <pt x="534" y="508" on="0"/>
        <pt x="534" y="486" on="1"/>
        <pt x="534" y="462" on="0"/>
        <pt x="497" y="430" on="0"/>
      </contour>
      <contour>
        <pt x="274" y="401" on="1"/>
        <pt x="264" y="430" on="0"/>
        <pt x="227" y="462" on="0"/>
        <pt x="227" y="486" on="1"/>
        <pt x="227" y="508" on="0"/>
        <pt x="251" y="531" on="0"/>
        <pt x="270" y="531" on="1"/>
        <pt x="298" y="531" on="0"/>
        <pt x="325" y="494" on="0"/>
        <pt x="353" y="482" on="1"/>
        <pt x="324" y="474" on="0"/>
        <pt x="281" y="430" on="0"/>
      </contour>
      <contour>
        <pt x="380" y="328" on="1"/>
        <pt x="360" y="328" on="0"/>
        <pt x="330" y="356" on="0"/>
        <pt x="330" y="377" on="1"/>
        <pt x="330" y="397" on="0"/>
        <pt x="360" y="427" on="0"/>
        <pt x="380" y="427" on="1"/>
        <pt x="401" y="427" on="0"/>
        <pt x="429" y="397" on="0"/>
        <pt x="429" y="377" on="1"/>
        <pt x="429" y="356" on="0"/>
        <pt x="401" y="328" on="0"/>
      </contour>
      <contour>
        <pt x="491" y="222" on="1"/>
        <pt x="463" y="222" on="0"/>
        <pt x="436" y="259" on="0"/>
        <pt x="408" y="272" on="1"/>
        <pt x="437" y="279" on="0"/>
        <pt x="479" y="323" on="0"/>
        <pt x="486" y="352" on="1"/>
        <pt x="497" y="324" on="0"/>
        <pt x="534" y="292" on="0"/>
        <pt x="534" y="267" on="1"/>
        <pt x="534" y="245" on="0"/>
        <pt x="510" y="222" on="0"/>
      </contour>
      <contour>
        <pt x="270" y="222" on="1"/>
        <pt x="251" y="222" on="0"/>
        <pt x="227" y="245" on="0"/>
        <pt x="227" y="267" on="1"/>
        <pt x="227" y="292" on="0"/>
        <pt x="264" y="324" on="0"/>
        <pt x="274" y="352" on="1"/>
        <pt x="281" y="323" on="0"/>
        <pt x="324" y="279" on="0"/>
        <pt x="353" y="272" on="1"/>
        <pt x="325" y="259" on="0"/>
        <pt x="298" y="222" on="0"/>
      </contour>
    </TTGlyph>
    <TTGlyph name="Aring" xMin="-3" yMin="2" xMax="1647" yMax="752">
      <contour>
        <pt x="1427" y="6" on="1"/>
        <pt x="1347" y="6" on="0"/>
        <pt x="1201" y="62" on="0"/>
        <pt x="1138" y="109" on="1"/>
        <pt x="1061" y="64" on="0"/>
        <pt x="897" y="2" on="0"/>
        <pt x="822" y="2" on="1"/>
        <pt x="747" y="2" on="0"/>
        <pt x="583" y="64" on="0"/>
        <pt x="507" y="109" on="1"/>
        <pt x="444" y="62" on="0"/>
        <pt x="297" y="6" on="0"/>
        <pt x="217" y="6" on="1"/>
        <pt x="131" y="6" on="0"/>
        <pt x="-3" y="97" on="0"/>
        <pt x="-3" y="189" on="1"/>
        <pt x="-3" y="259" on="0"/>
        <pt x="77" y="315" on="0"/>
        <pt x="109" y="315" on="1"/>
        <pt x="144" y="315" on="0"/>
        <pt x="199" y="262" on="0"/>
        <pt x="199" y="228" on="1"/>
        <pt x="199" y="201" on="0"/>
        <pt x="156" y="152" on="0"/>
        <pt x="125" y="152" on="1"/>
        <pt x="110" y="152" on="0"/>
        <pt x="78" y="161" on="0"/>
        <pt x="63" y="177" on="1"/>
        <pt x="60" y="176" on="1"/>
        <pt x="60" y="107" on="0"/>
        <pt x="171" y="59" on="0"/>
        <pt x="214" y="59" on="1"/>
        <pt x="274" y="59" on="0"/>
        <pt x="397" y="101" on="0"/>
        <pt x="455" y="141" on="1"/>
        <pt x="359" y="203" on="0"/>
        <pt x="214" y="326" on="0"/>
        <pt x="195" y="346" on="1"/>
        <pt x="169" y="373" on="1"/>
        <pt x="169" y="381" on="1"/>
        <pt x="195" y="409" on="1"/>
        <pt x="214" y="428" on="0"/>
        <pt x="359" y="551" on="0"/>
        <pt x="455" y="613" on="1"/>
        <pt x="397" y="653" on="0"/>
        <pt x="274" y="695" on="0"/>
        <pt x="214" y="695" on="1"/>
        <pt x="171" y="695" on="0"/>
        <pt x="60" y="647" on="0"/>
        <pt x="60" y="578" on="1"/>
        <pt x="63" y="577" on="1"/>
        <pt x="78" y="593" on="0"/>
        <pt x="110" y="602" on="0"/>
        <pt x="125" y="602" on="1"/>
        <pt x="156" y="602" on="0"/>
        <pt x="199" y="553" on="0"/>
        <pt x="199" y="526" on="1"/>
        <pt x="199" y="492" on="0"/>
        <pt x="144" y="439" on="0"/>
        <pt x="109" y="439" on="1"/>
        <pt x="77" y="439" on="0"/>
        <pt x="-3" y="495" on="0"/>
        <pt x="-3" y="565" on="1"/>
        <pt x="-3" y="657" on="0"/>
        <pt x="131" y="748" on="0"/>
        <pt x="217" y="748" on="1"/>
        <pt x="297" y="748" on="0"/>
        <pt x="444" y="692" on="0"/>
        <pt x="507" y="645" on="1"/>
        <pt x="583" y="690" on="0"/>
        <pt x="747" y="752" on="0"/>
        <pt x="822" y="752" on="1"/>
        <pt x="897" y="752" on="0"/>
        <pt x="1061" y="690" on="0"/>
        <pt x="1138" y="645" on="1"/>
        <pt x="1201" y="692" on="0"/>
        <pt x="1347" y="748" on="0"/>
        <pt x="1427" y="748" on="1"/>
        <pt x="1513" y="748" on="0"/>
        <pt x="1647" y="657" on="0"/>
        <pt x="1647" y="565" on="1"/>
        <pt x="1647" y="495" on="0"/>
        <pt x="1567" y="439" on="0"/>
        <pt x="1535" y="439" on="1"/>
        <pt x="1500" y="439" on="0"/>
        <pt x="1445" y="492" on="0"/>
        <pt x="1445" y="526" on="1"/>
        <pt x="1445" y="553" on="0"/>
        <pt x="1488" y="602" on="0"/>
        <pt x="1519" y="602" on="1"/>
        <pt x="1534" y="602" on="0"/>
        <pt x="1566" y="593" on="0"/>
        <pt x="1581" y="577" on="1"/>
        <pt x="1584" y="578" on="1"/>
        <pt x="1584" y="647" on="0"/>
        <pt x="1473" y="695" on="0"/>
        <pt x="1430" y="695" on="1"/>
        <pt x="1370" y="695" on="0"/>
        <pt x="1247" y="653" on="0"/>
        <pt x="1189" y="613" on="1"/>
        <pt x="1286" y="551" on="0"/>
        <pt x="1430" y="428" on="0"/>
        <pt x="1449" y="409" on="1"/>
        <pt x="1475" y="381" on="1"/>
        <pt x="1475" y="373" on="1"/>
        <pt x="1449" y="346" on="1"/>
        <pt x="1430" y="326" on="0"/>
        <pt x="1285" y="203" on="0"/>
        <pt x="1189" y="141" on="1"/>
        <pt x="1247" y="101" on="0"/>
        <pt x="1370" y="59" on="0"/>
        <pt x="1430" y="59" on="1"/>
        <pt x="1473" y="59" on="0"/>
        <pt x="1584" y="107" on="0"/>
        <pt x="1584" y="176" on="1"/>
        <pt x="1581" y="177" on="1"/>
        <pt x="1566" y="161" on="0"/>
        <pt x="1534" y="152" on="0"/>
        <pt x="1519" y="152" on="1"/>
        <pt x="1488" y="152" on="0"/>
        <pt x="1445" y="201" on="0"/>
        <pt x="1445" y="228" on="1"/>
        <pt x="1445" y="262" on="0"/>
        <pt x="1500" y="315" on="0"/>
        <pt x="1535" y="315" on="1"/>
        <pt x="1567" y="315" on="0"/>
        <pt x="1647" y="259" on="0"/>
        <pt x="1647" y="189" on="1"/>
        <pt x="1647" y="97" on="0"/>
        <pt x="1513" y="6" on="0"/>
      </contour>
      <contour>
        <pt x="822" y="695" on="1"/>
        <pt x="759" y="695" on="0"/>
        <pt x="620" y="646" on="0"/>
        <pt x="552" y="608" on="1"/>
        <pt x="562" y="599" on="0"/>
        <pt x="584" y="579" on="0"/>
        <pt x="594" y="569" on="1"/>
        <pt x="650" y="600" on="0"/>
        <pt x="769" y="644" on="0"/>
        <pt x="822" y="644" on="1"/>
        <pt x="875" y="644" on="0"/>
        <pt x="994" y="600" on="0"/>
        <pt x="1051" y="569" on="1"/>
        <pt x="1061" y="579" on="0"/>
        <pt x="1082" y="599" on="0"/>
        <pt x="1092" y="608" on="1"/>
        <pt x="1024" y="646" on="0"/>
        <pt x="885" y="695" on="0"/>
      </contour>
      <contour>
        <pt x="934" y="426" on="1"/>
        <pt x="953" y="453" on="0"/>
        <pt x="992" y="505" on="0"/>
        <pt x="1014" y="530" on="1"/>
        <pt x="974" y="552" on="0"/>
        <pt x="893" y="583" on="0"/>
        <pt x="856" y="588" on="1"/>
        <pt x="873" y="545" on="0"/>
        <pt x="912" y="463" on="0"/>
      </contour>
      <contour>
        <pt x="710" y="426" on="1"/>
        <pt x="732" y="463" on="0"/>
        <pt x="771" y="545" on="0"/>
        <pt x="788" y="588" on="1"/>
        <pt x="751" y="583" on="0"/>
        <pt x="670" y="552" on="0"/>
        <pt x="630" y="530" on="1"/>
        <pt x="652" y="505" on="0"/>
        <pt x="691" y="453" on="0"/>
      </contour>
      <contour>
        <pt x="1284" y="355" on="1"/>
        <pt x="1271" y="341" on="0"/>
        <pt x="1168" y="257" on="0"/>
        <pt x="1099" y="214" on="1"/>
        <pt x="1109" y="204" on="0"/>
        <pt x="1131" y="184" on="0"/>
        <pt x="1142" y="175" on="1"/>
        <pt x="1218" y="223" on="0"/>
        <pt x="1353" y="332" on="0"/>
        <pt x="1399" y="377" on="1"/>
        <pt x="1353" y="422" on="0"/>
        <pt x="1218" y="531" on="0"/>
        <pt x="1142" y="579" on="1"/>
        <pt x="1131" y="570" on="0"/>
        <pt x="1109" y="550" on="0"/>
        <pt x="1099" y="540" on="1"/>
        <pt x="1168" y="497" on="0"/>
        <pt x="1271" y="414" on="0"/>
        <pt x="1284" y="400" on="1"/>
        <pt x="1303" y="380" on="1"/>
        <pt x="1303" y="374" on="1"/>
      </contour>
      <contour>
        <pt x="245" y="377" on="1"/>
        <pt x="291" y="332" on="0"/>
        <pt x="426" y="223" on="0"/>
        <pt x="502" y="175" on="1"/>
        <pt x="513" y="184" on="0"/>
        <pt x="535" y="204" on="0"/>
        <pt x="546" y="214" on="1"/>
        <pt x="477" y="257" on="0"/>
        <pt x="374" y="341" on="0"/>
        <pt x="361" y="355" on="1"/>
        <pt x="342" y="374" on="1"/>
        <pt x="342" y="380" on="1"/>
        <pt x="361" y="400" on="1"/>
        <pt x="374" y="414" on="0"/>
        <pt x="476" y="497" on="0"/>
        <pt x="545" y="540" on="1"/>
        <pt x="535" y="550" on="0"/>
        <pt x="513" y="570" on="0"/>
        <pt x="502" y="579" on="1"/>
        <pt x="426" y="531" on="0"/>
        <pt x="291" y="422" on="0"/>
      </contour>
      <contour>
        <pt x="965" y="377" on="1"/>
        <pt x="987" y="343" on="0"/>
        <pt x="1036" y="280" on="0"/>
        <pt x="1061" y="252" on="1"/>
        <pt x="1110" y="283" on="0"/>
        <pt x="1196" y="349" on="0"/>
        <pt x="1224" y="377" on="1"/>
        <pt x="1196" y="405" on="0"/>
        <pt x="1111" y="472" on="0"/>
        <pt x="1062" y="503" on="1"/>
        <pt x="1036" y="475" on="0"/>
        <pt x="987" y="411" on="0"/>
      </contour>
      <contour>
        <pt x="420" y="377" on="1"/>
        <pt x="448" y="349" on="0"/>
        <pt x="534" y="283" on="0"/>
        <pt x="583" y="252" on="1"/>
        <pt x="608" y="280" on="0"/>
        <pt x="657" y="343" on="0"/>
        <pt x="679" y="377" on="1"/>
        <pt x="657" y="411" on="0"/>
        <pt x="608" y="475" on="0"/>
        <pt x="582" y="503" on="1"/>
        <pt x="533" y="472" on="0"/>
        <pt x="448" y="405" on="0"/>
      </contour>
      <contour>
        <pt x="934" y="328" on="1"/>
        <pt x="912" y="291" on="0"/>
        <pt x="873" y="210" on="0"/>
        <pt x="857" y="167" on="1"/>
        <pt x="894" y="172" on="0"/>
        <pt x="974" y="203" on="0"/>
        <pt x="1014" y="224" on="1"/>
        <pt x="992" y="249" on="0"/>
        <pt x="952" y="301" on="0"/>
      </contour>
      <contour>
        <pt x="710" y="328" on="1"/>
        <pt x="692" y="301" on="0"/>
        <pt x="652" y="249" on="0"/>
        <pt x="630" y="224" on="1"/>
        <pt x="670" y="203" on="0"/>
        <pt x="750" y="172" on="0"/>
        <pt x="787" y="167" on="1"/>
        <pt x="771" y="210" on="0"/>
        <pt x="732" y="291" on="0"/>
      </contour>
      <contour>
        <pt x="822" y="59" on="1"/>
        <pt x="885" y="59" on="0"/>
        <pt x="1024" y="108" on="0"/>
        <pt x="1092" y="146" on="1"/>
        <pt x="1082" y="155" on="0"/>
        <pt x="1060" y="175" on="0"/>
        <pt x="1050" y="185" on="1"/>
        <pt x="994" y="154" on="0"/>
        <pt x="875" y="110" on="0"/>
        <pt x="822" y="110" on="1"/>
        <pt x="769" y="110" on="0"/>
        <pt x="650" y="154" on="0"/>
        <pt x="594" y="185" on="1"/>
        <pt x="584" y="175" on="0"/>
        <pt x="562" y="155" on="0"/>
        <pt x="552" y="146" on="1"/>
        <pt x="620" y="108" on="0"/>
        <pt x="759" y="59" on="0"/>
      </contour>
    </TTGlyph>
    <TTGlyph name="B" xMin="-10" yMin="58" xMax="1332" yMax="695">
      <contour>
        <pt x="1123" y="518" on="1"/>
        <pt x="1215" y="518" on="0"/>
        <pt x="1332" y="443" on="0"/>
        <pt x="1332" y="376" on="1"/>
        <pt x="1332" y="309" on="0"/>
        <pt x="1215" y="235" on="0"/>
        <pt x="1123" y="235" on="1"/>
        <pt x="1090" y="235" on="0"/>
        <pt x="981" y="249" on="0"/>
        <pt x="945" y="258" on="1"/>
        <pt x="955" y="229" on="0"/>
        <pt x="975" y="173" on="0"/>
        <pt x="985" y="132" on="1"/>
        <pt x="992" y="102" on="0"/>
        <pt x="950" y="66" on="0"/>
        <pt x="925" y="66" on="1"/>
        <pt x="915" y="66" on="0"/>
        <pt x="896" y="74" on="0"/>
        <pt x="891" y="81" on="1"/>
        <pt x="825" y="174" on="0"/>
        <pt x="634" y="340" on="0"/>
        <pt x="444" y="340" on="1"/>
        <pt x="496" y="311" on="0"/>
        <pt x="587" y="225" on="0"/>
        <pt x="587" y="166" on="1"/>
        <pt x="587" y="120" on="0"/>
        <pt x="529" y="58" on="0"/>
        <pt x="472" y="58" on="1"/>
        <pt x="362" y="58" on="0"/>
        <pt x="218" y="340" on="0"/>
        <pt x="-10" y="340" on="1"/>
        <pt x="-10" y="413" on="1"/>
        <pt x="218" y="413" on="0"/>
        <pt x="362" y="695" on="0"/>
        <pt x="472" y="695" on="1"/>
        <pt x="529" y="695" on="0"/>
        <pt x="587" y="633" on="0"/>
        <pt x="587" y="587" on="1"/>
        <pt x="587" y="528" on="0"/>
        <pt x="496" y="442" on="0"/>
        <pt x="444" y="413" on="1"/>
        <pt x="634" y="413" on="0"/>
        <pt x="825" y="579" on="0"/>
        <pt x="891" y="672" on="1"/>
        <pt x="896" y="679" on="0"/>
        <pt x="915" y="687" on="0"/>
        <pt x="925" y="687" on="1"/>
        <pt x="950" y="687" on="0"/>
        <pt x="992" y="651" on="0"/>
        <pt x="985" y="621" on="1"/>
        <pt x="975" y="580" on="0"/>
        <pt x="955" y="524" on="0"/>
        <pt x="945" y="495" on="1"/>
        <pt x="981" y="504" on="0"/>
        <pt x="1090" y="518" on="0"/>
      </contour>
      <contour>
        <pt x="526" y="582" on="1"/>
        <pt x="526" y="609" on="0"/>
        <pt x="498" y="638" on="0"/>
        <pt x="475" y="638" on="1"/>
        <pt x="416" y="638" on="0"/>
        <pt x="298" y="454" on="0"/>
        <pt x="162" y="404" on="1"/>
        <pt x="165" y="393" on="1"/>
        <pt x="348" y="393" on="0"/>
        <pt x="526" y="541" on="0"/>
      </contour>
      <contour>
        <pt x="1264" y="376" on="1"/>
        <pt x="1264" y="414" on="0"/>
        <pt x="1189" y="463" on="0"/>
        <pt x="1099" y="463" on="1"/>
        <pt x="999" y="463" on="0"/>
        <pt x="763" y="386" on="0"/>
        <pt x="601" y="384" on="1"/>
        <pt x="601" y="369" on="1"/>
        <pt x="763" y="367" on="0"/>
        <pt x="999" y="290" on="0"/>
        <pt x="1099" y="290" on="1"/>
        <pt x="1189" y="290" on="0"/>
        <pt x="1264" y="339" on="0"/>
      </contour>
      <contour>
        <pt x="475" y="115" on="1"/>
        <pt x="498" y="115" on="0"/>
        <pt x="526" y="144" on="0"/>
        <pt x="526" y="171" on="1"/>
        <pt x="526" y="212" on="0"/>
        <pt x="348" y="360" on="0"/>
        <pt x="165" y="360" on="1"/>
        <pt x="162" y="349" on="1"/>
        <pt x="298" y="299" on="0"/>
        <pt x="416" y="115" on="0"/>
      </contour>
    </TTGlyph>
    <TTGlyph name="C" xMin="-10" yMin="13" xMax="1263" yMax="740">
      <contour>
        <pt x="825" y="119" on="1"/>
        <pt x="807" y="95" on="0"/>
        <pt x="813" y="13" on="0"/>
        <pt x="767" y="13" on="1"/>
        <pt x="689" y="13" on="0"/>
        <pt x="353" y="340" on="0"/>
        <pt x="-10" y="340" on="1"/>
        <pt x="-10" y="413" on="1"/>
        <pt x="353" y="413" on="0"/>
        <pt x="689" y="740" on="0"/>
        <pt x="767" y="740" on="1"/>
        <pt x="813" y="740" on="0"/>
        <pt x="807" y="658" on="0"/>
        <pt x="825" y="634" on="1"/>
        <pt x="845" y="611" on="0"/>
        <pt x="879" y="586" on="0"/>
        <pt x="879" y="564" on="1"/>
        <pt x="879" y="524" on="0"/>
        <pt x="586" y="441" on="0"/>
        <pt x="383" y="417" on="1"/>
        <pt x="383" y="400" on="1"/>
        <pt x="867" y="411" on="1"/>
        <pt x="936" y="412" on="0"/>
        <pt x="1024" y="536" on="0"/>
        <pt x="1103" y="536" on="1"/>
        <pt x="1183" y="536" on="0"/>
        <pt x="1263" y="433" on="0"/>
        <pt x="1263" y="377" on="1"/>
        <pt x="1263" y="320" on="0"/>
        <pt x="1183" y="217" on="0"/>
        <pt x="1103" y="217" on="1"/>
        <pt x="1024" y="217" on="0"/>
        <pt x="936" y="341" on="0"/>
        <pt x="867" y="342" on="1"/>
        <pt x="383" y="353" on="1"/>
        <pt x="383" y="336" on="1"/>
        <pt x="586" y="312" on="0"/>
        <pt x="879" y="229" on="0"/>
        <pt x="879" y="189" on="1"/>
        <pt x="879" y="167" on="0"/>
        <pt x="845" y="142" on="0"/>
      </contour>
      <contour>
        <pt x="674" y="634" on="1"/>
        <pt x="636" y="607" on="0"/>
        <pt x="542" y="533" on="0"/>
        <pt x="478" y="491" on="1"/>
        <pt x="488" y="472" on="1"/>
        <pt x="566" y="486" on="0"/>
        <pt x="699" y="517" on="0"/>
        <pt x="748" y="535" on="1"/>
        <pt x="785" y="549" on="0"/>
        <pt x="813" y="564" on="0"/>
        <pt x="813" y="572" on="1"/>
        <pt x="813" y="585" on="0"/>
        <pt x="781" y="599" on="0"/>
        <pt x="774" y="615" on="1"/>
        <pt x="767" y="631" on="0"/>
        <pt x="770" y="680" on="0"/>
        <pt x="751" y="680" on="1"/>
        <pt x="738" y="680" on="0"/>
        <pt x="701" y="654" on="0"/>
      </contour>
      <contour>
        <pt x="995" y="377" on="1"/>
        <pt x="995" y="332" on="0"/>
        <pt x="1033" y="281" on="0"/>
        <pt x="1060" y="281" on="1"/>
        <pt x="1086" y="281" on="0"/>
        <pt x="1124" y="332" on="0"/>
        <pt x="1124" y="377" on="1"/>
        <pt x="1124" y="422" on="0"/>
        <pt x="1086" y="473" on="0"/>
        <pt x="1060" y="473" on="1"/>
        <pt x="1033" y="473" on="0"/>
        <pt x="995" y="422" on="0"/>
      </contour>
      <contour>
        <pt x="674" y="119" on="1"/>
        <pt x="701" y="99" on="0"/>
        <pt x="738" y="73" on="0"/>
        <pt x="751" y="73" on="1"/>
        <pt x="770" y="73" on="0"/>
        <pt x="767" y="122" on="0"/>
        <pt x="774" y="138" on="1"/>
        <pt x="781" y="154" on="0"/>
        <pt x="813" y="168" on="0"/>
        <pt x="813" y="181" on="1"/>
        <pt x="813" y="189" on="0"/>
        <pt x="785" y="204" on="0"/>
        <pt x="748" y="218" on="1"/>
        <pt x="699" y="236" on="0"/>
        <pt x="566" y="267" on="0"/>
        <pt x="488" y="281" on="1"/>
        <pt x="478" y="262" on="1"/>
        <pt x="542" y="220" on="0"/>
        <pt x="636" y="146" on="0"/>
      </contour>
    </TTGlyph>
    <TTGlyph name="Ccedilla" xMin="-10" yMin="49" xMax="1382" yMax="705">
      <contour>
        <pt x="-10" y="341" on="1"/>
        <pt x="-10" y="413" on="1"/>
        <pt x="259" y="413" on="0"/>
        <pt x="600" y="604" on="0"/>
        <pt x="667" y="705" on="1"/>
        <pt x="705" y="705" on="1"/>
        <pt x="772" y="604" on="0"/>
        <pt x="1113" y="413" on="0"/>
        <pt x="1382" y="413" on="1"/>
        <pt x="1382" y="341" on="1"/>
        <pt x="1113" y="341" on="0"/>
        <pt x="772" y="150" on="0"/>
        <pt x="705" y="49" on="1"/>
        <pt x="667" y="49" on="1"/>
        <pt x="600" y="150" on="0"/>
        <pt x="259" y="341" on="0"/>
      </contour>
      <contour>
        <pt x="686" y="123" on="1"/>
        <pt x="752" y="199" on="0"/>
        <pt x="988" y="352" on="0"/>
        <pt x="1193" y="375" on="1"/>
        <pt x="1193" y="379" on="1"/>
        <pt x="988" y="402" on="0"/>
        <pt x="752" y="555" on="0"/>
        <pt x="686" y="631" on="1"/>
        <pt x="620" y="555" on="0"/>
        <pt x="384" y="402" on="0"/>
        <pt x="179" y="379" on="1"/>
        <pt x="179" y="375" on="1"/>
        <pt x="384" y="352" on="0"/>
        <pt x="620" y="199" on="0"/>
      </contour>
      <contour>
        <pt x="659" y="262" on="1"/>
        <pt x="651" y="248" on="0"/>
        <pt x="624" y="237" on="0"/>
        <pt x="609" y="244" on="1"/>
        <pt x="594" y="253" on="0"/>
        <pt x="592" y="283" on="0"/>
        <pt x="600" y="296" on="1"/>
        <pt x="610" y="313" on="0"/>
        <pt x="649" y="345" on="0"/>
        <pt x="671" y="365" on="1"/>
        <pt x="668" y="370" on="1"/>
        <pt x="640" y="361" on="0"/>
        <pt x="591" y="343" on="0"/>
        <pt x="572" y="343" on="1"/>
        <pt x="556" y="343" on="0"/>
        <pt x="533" y="361" on="0"/>
        <pt x="533" y="377" on="1"/>
        <pt x="533" y="393" on="0"/>
        <pt x="556" y="411" on="0"/>
        <pt x="572" y="411" on="1"/>
        <pt x="591" y="411" on="0"/>
        <pt x="640" y="393" on="0"/>
        <pt x="668" y="384" on="1"/>
        <pt x="671" y="389" on="1"/>
        <pt x="649" y="409" on="0"/>
        <pt x="610" y="441" on="0"/>
        <pt x="600" y="458" on="1"/>
        <pt x="592" y="471" on="0"/>
        <pt x="594" y="501" on="0"/>
        <pt x="609" y="510" on="1"/>
        <pt x="624" y="517" on="0"/>
        <pt x="651" y="506" on="0"/>
        <pt x="659" y="492" on="1"/>
        <pt x="669" y="475" on="0"/>
        <pt x="677" y="424" on="0"/>
        <pt x="683" y="396" on="1"/>
        <pt x="689" y="396" on="1"/>
        <pt x="695" y="424" on="0"/>
        <pt x="703" y="475" on="0"/>
        <pt x="713" y="492" on="1"/>
        <pt x="721" y="506" on="0"/>
        <pt x="748" y="517" on="0"/>
        <pt x="762" y="510" on="1"/>
        <pt x="778" y="501" on="0"/>
        <pt x="781" y="471" on="0"/>
        <pt x="772" y="458" on="1"/>
        <pt x="762" y="441" on="0"/>
        <pt x="722" y="409" on="0"/>
        <pt x="701" y="389" on="1"/>
        <pt x="703" y="384" on="1"/>
        <pt x="732" y="393" on="0"/>
        <pt x="780" y="411" on="0"/>
        <pt x="800" y="411" on="1"/>
        <pt x="816" y="411" on="0"/>
        <pt x="839" y="393" on="0"/>
        <pt x="839" y="377" on="1"/>
        <pt x="839" y="361" on="0"/>
        <pt x="816" y="343" on="0"/>
        <pt x="800" y="343" on="1"/>
        <pt x="780" y="343" on="0"/>
        <pt x="732" y="361" on="0"/>
        <pt x="703" y="370" on="1"/>
        <pt x="701" y="366" on="1"/>
        <pt x="722" y="346" on="0"/>
        <pt x="762" y="313" on="0"/>
        <pt x="772" y="296" on="1"/>
        <pt x="781" y="283" on="0"/>
        <pt x="778" y="253" on="0"/>
        <pt x="762" y="244" on="1"/>
        <pt x="748" y="237" on="0"/>
        <pt x="721" y="248" on="0"/>
        <pt x="713" y="262" on="1"/>
        <pt x="703" y="279" on="0"/>
        <pt x="695" y="330" on="0"/>
        <pt x="689" y="358" on="1"/>
        <pt x="683" y="358" on="1"/>
        <pt x="677" y="330" on="0"/>
        <pt x="669" y="279" on="0"/>
      </contour>
    </TTGlyph>
    <TTGlyph name="D" xMin="-3" yMin="-7" xMax="1153" yMax="761">
      <contour>
        <pt x="985" y="-7" on="1"/>
        <pt x="743" y="-7" on="0"/>
        <pt x="518" y="14" on="0"/>
        <pt x="428" y="51" on="1"/>
        <pt x="360" y="79" on="0"/>
        <pt x="263" y="223" on="0"/>
        <pt x="229" y="316" on="1"/>
        <pt x="213" y="293" on="0"/>
        <pt x="150" y="251" on="0"/>
        <pt x="116" y="251" on="1"/>
        <pt x="54" y="251" on="0"/>
        <pt x="-3" y="327" on="0"/>
        <pt x="-3" y="377" on="1"/>
        <pt x="-3" y="427" on="0"/>
        <pt x="54" y="502" on="0"/>
        <pt x="116" y="502" on="1"/>
        <pt x="150" y="502" on="0"/>
        <pt x="213" y="461" on="0"/>
        <pt x="229" y="438" on="1"/>
        <pt x="263" y="531" on="0"/>
        <pt x="360" y="674" on="0"/>
        <pt x="428" y="702" on="1"/>
        <pt x="518" y="739" on="0"/>
        <pt x="743" y="761" on="0"/>
        <pt x="985" y="761" on="1"/>
        <pt x="1003" y="728" on="1"/>
        <pt x="993" y="718" on="0"/>
        <pt x="891" y="554" on="0"/>
        <pt x="875" y="523" on="1"/>
        <pt x="949" y="508" on="0"/>
        <pt x="1134" y="410" on="0"/>
        <pt x="1153" y="385" on="1"/>
        <pt x="1153" y="369" on="1"/>
        <pt x="1134" y="344" on="0"/>
        <pt x="949" y="245" on="0"/>
        <pt x="875" y="230" on="1"/>
        <pt x="891" y="199" on="0"/>
        <pt x="993" y="35" on="0"/>
        <pt x="1003" y="26" on="1"/>
      </contour>
      <contour>
        <pt x="937" y="716" on="1"/>
        <pt x="735" y="715" on="0"/>
        <pt x="537" y="692" on="0"/>
        <pt x="453" y="658" on="1"/>
        <pt x="386" y="630" on="0"/>
        <pt x="298" y="507" on="0"/>
        <pt x="264" y="414" on="1"/>
        <pt x="397" y="596" on="0"/>
        <pt x="750" y="547" on="0"/>
      </contour>
      <contour>
        <pt x="768" y="292" on="1"/>
        <pt x="862" y="292" on="0"/>
        <pt x="1064" y="358" on="0"/>
        <pt x="1085" y="377" on="1"/>
        <pt x="1064" y="395" on="0"/>
        <pt x="862" y="461" on="0"/>
        <pt x="768" y="461" on="1"/>
        <pt x="642" y="461" on="0"/>
        <pt x="419" y="415" on="0"/>
        <pt x="301" y="377" on="1"/>
        <pt x="419" y="338" on="0"/>
        <pt x="642" y="292" on="0"/>
      </contour>
      <contour>
        <pt x="154" y="312" on="1"/>
        <pt x="172" y="312" on="0"/>
        <pt x="200" y="348" on="0"/>
        <pt x="200" y="377" on="1"/>
        <pt x="200" y="406" on="0"/>
        <pt x="172" y="441" on="0"/>
        <pt x="154" y="441" on="1"/>
        <pt x="135" y="441" on="0"/>
        <pt x="107" y="406" on="0"/>
        <pt x="107" y="377" on="1"/>
        <pt x="107" y="348" on="0"/>
        <pt x="135" y="312" on="0"/>
      </contour>
      <contour>
        <pt x="937" y="37" on="1"/>
        <pt x="750" y="206" on="0"/>
        <pt x="397" y="158" on="0"/>
        <pt x="264" y="339" on="1"/>
        <pt x="298" y="246" on="0"/>
        <pt x="386" y="124" on="0"/>
        <pt x="453" y="96" on="1"/>
        <pt x="537" y="62" on="0"/>
        <pt x="735" y="38" on="0"/>
      </contour>
    </TTGlyph>
    <TTGlyph name="E" xMin="-3" yMin="20" xMax="938" yMax="734">
      <contour>
        <pt x="938" y="377" on="1"/>
        <pt x="938" y="323" on="0"/>
        <pt x="867" y="266" on="0"/>
        <pt x="820" y="273" on="1"/>
        <pt x="840" y="228" on="0"/>
        <pt x="811" y="140" on="0"/>
        <pt x="762" y="123" on="1"/>
        <pt x="718" y="108" on="0"/>
        <pt x="648" y="149" on="0"/>
        <pt x="635" y="189" on="1"/>
        <pt x="604" y="153" on="0"/>
        <pt x="517" y="143" on="0"/>
        <pt x="481" y="179" on="1"/>
        <pt x="448" y="212" on="0"/>
        <pt x="450" y="300" on="0"/>
        <pt x="482" y="325" on="1"/>
        <pt x="433" y="334" on="0"/>
        <pt x="283" y="352" on="0"/>
        <pt x="211" y="356" on="1"/>
        <pt x="210" y="352" on="1"/>
        <pt x="310" y="296" on="0"/>
        <pt x="405" y="139" on="0"/>
        <pt x="406" y="40" on="1"/>
        <pt x="397" y="27" on="1"/>
        <pt x="233" y="20" on="0"/>
        <pt x="-3" y="234" on="0"/>
        <pt x="-3" y="377" on="1"/>
        <pt x="-3" y="520" on="0"/>
        <pt x="233" y="734" on="0"/>
        <pt x="397" y="727" on="1"/>
        <pt x="406" y="714" on="1"/>
        <pt x="405" y="615" on="0"/>
        <pt x="310" y="458" on="0"/>
        <pt x="210" y="402" on="1"/>
        <pt x="211" y="398" on="1"/>
        <pt x="283" y="402" on="0"/>
        <pt x="433" y="420" on="0"/>
        <pt x="482" y="429" on="1"/>
        <pt x="450" y="454" on="0"/>
        <pt x="448" y="542" on="0"/>
        <pt x="481" y="575" on="1"/>
        <pt x="517" y="611" on="0"/>
        <pt x="604" y="601" on="0"/>
        <pt x="635" y="565" on="1"/>
        <pt x="648" y="605" on="0"/>
        <pt x="718" y="646" on="0"/>
        <pt x="762" y="631" on="1"/>
        <pt x="811" y="614" on="0"/>
        <pt x="840" y="526" on="0"/>
        <pt x="820" y="481" on="1"/>
        <pt x="867" y="488" on="0"/>
        <pt x="938" y="431" on="0"/>
      </contour>
      <contour>
        <pt x="353" y="680" on="1"/>
        <pt x="208" y="664" on="0"/>
        <pt x="58" y="499" on="0"/>
        <pt x="45" y="395" on="1"/>
        <pt x="175" y="408" on="0"/>
        <pt x="346" y="577" on="0"/>
      </contour>
      <contour>
        <pt x="567" y="377" on="1"/>
        <pt x="567" y="335" on="0"/>
        <pt x="627" y="277" on="0"/>
        <pt x="668" y="277" on="1"/>
        <pt x="709" y="277" on="0"/>
        <pt x="768" y="335" on="0"/>
        <pt x="768" y="377" on="1"/>
        <pt x="768" y="419" on="0"/>
        <pt x="709" y="477" on="0"/>
        <pt x="668" y="477" on="1"/>
        <pt x="627" y="477" on="0"/>
        <pt x="567" y="419" on="0"/>
      </contour>
      <contour>
        <pt x="45" y="359" on="1"/>
        <pt x="58" y="255" on="0"/>
        <pt x="208" y="90" on="0"/>
        <pt x="353" y="74" on="1"/>
        <pt x="346" y="177" on="0"/>
        <pt x="175" y="346" on="0"/>
      </contour>
    </TTGlyph>
    <TTGlyph name="Euro" xMin="-3" yMin="112" xMax="527" yMax="642">
      <contour>
        <pt x="262" y="112" on="1"/>
        <pt x="153" y="112" on="0"/>
        <pt x="-3" y="267" on="0"/>
        <pt x="-3" y="377" on="1"/>
        <pt x="-3" y="486" on="0"/>
        <pt x="153" y="642" on="0"/>
        <pt x="262" y="642" on="1"/>
        <pt x="372" y="642" on="0"/>
        <pt x="527" y="486" on="0"/>
        <pt x="527" y="377" on="1"/>
        <pt x="527" y="267" on="0"/>
        <pt x="372" y="112" on="0"/>
      </contour>
      <contour>
        <pt x="262" y="167" on="1"/>
        <pt x="349" y="167" on="0"/>
        <pt x="469" y="290" on="0"/>
        <pt x="469" y="377" on="1"/>
        <pt x="469" y="463" on="0"/>
        <pt x="349" y="587" on="0"/>
        <pt x="262" y="587" on="1"/>
        <pt x="176" y="587" on="0"/>
        <pt x="55" y="463" on="0"/>
        <pt x="55" y="377" on="1"/>
        <pt x="55" y="290" on="0"/>
        <pt x="176" y="167" on="0"/>
      </contour>
      <contour>
        <pt x="404" y="441" on="1"/>
        <pt x="336" y="377" on="1"/>
        <pt x="404" y="313" on="1"/>
        <pt x="389" y="285" on="1"/>
        <pt x="299" y="313" on="1"/>
        <pt x="278" y="221" on="1"/>
        <pt x="246" y="221" on="1"/>
        <pt x="225" y="313" on="1"/>
        <pt x="135" y="285" on="1"/>
        <pt x="120" y="313" on="1"/>
        <pt x="188" y="377" on="1"/>
        <pt x="120" y="441" on="1"/>
        <pt x="135" y="469" on="1"/>
        <pt x="225" y="441" on="1"/>
        <pt x="246" y="533" on="1"/>
        <pt x="278" y="533" on="1"/>
        <pt x="299" y="441" on="1"/>
        <pt x="389" y="469" on="1"/>
      </contour>
    </TTGlyph>
    <TTGlyph name="F" xMin="-31" yMin="-32" xMax="1432" yMax="786">
      <contour>
        <pt x="1432" y="375" on="1"/>
        <pt x="1360" y="294" on="0"/>
        <pt x="1206" y="240" on="0"/>
        <pt x="1060" y="269" on="1"/>
        <pt x="1057" y="267" on="1"/>
        <pt x="1109" y="214" on="0"/>
        <pt x="1125" y="120" on="0"/>
        <pt x="1125" y="74" on="1"/>
        <pt x="1123" y="71" on="1"/>
        <pt x="1006" y="45" on="0"/>
        <pt x="864" y="137" on="0"/>
        <pt x="830" y="215" on="1"/>
        <pt x="814" y="193" on="0"/>
        <pt x="758" y="160" on="0"/>
        <pt x="715" y="156" on="1"/>
        <pt x="723" y="140" on="0"/>
        <pt x="738" y="104" on="0"/>
        <pt x="744" y="84" on="1"/>
        <pt x="739" y="76" on="1"/>
        <pt x="613" y="52" on="0"/>
        <pt x="393" y="114" on="0"/>
        <pt x="301" y="189" on="1"/>
        <pt x="297" y="185" on="1"/>
        <pt x="325" y="127" on="0"/>
        <pt x="324" y="13" on="0"/>
        <pt x="296" y="-29" on="1"/>
        <pt x="285" y="-32" on="1"/>
        <pt x="191" y="7" on="0"/>
        <pt x="86" y="188" on="0"/>
        <pt x="85" y="310" on="1"/>
        <pt x="75" y="318" on="0"/>
        <pt x="0" y="334" on="0"/>
        <pt x="-28" y="341" on="1"/>
        <pt x="-29" y="351" on="0"/>
        <pt x="-31" y="369" on="0"/>
        <pt x="-31" y="377" on="1"/>
        <pt x="-31" y="385" on="0"/>
        <pt x="-29" y="403" on="0"/>
        <pt x="-28" y="413" on="1"/>
        <pt x="0" y="420" on="0"/>
        <pt x="75" y="436" on="0"/>
        <pt x="85" y="444" on="1"/>
        <pt x="86" y="566" on="0"/>
        <pt x="191" y="747" on="0"/>
        <pt x="285" y="786" on="1"/>
        <pt x="296" y="783" on="1"/>
        <pt x="324" y="741" on="0"/>
        <pt x="325" y="627" on="0"/>
        <pt x="297" y="569" on="1"/>
        <pt x="301" y="565" on="1"/>
        <pt x="393" y="640" on="0"/>
        <pt x="613" y="702" on="0"/>
        <pt x="739" y="678" on="1"/>
        <pt x="744" y="670" on="1"/>
        <pt x="738" y="650" on="0"/>
        <pt x="723" y="614" on="0"/>
        <pt x="715" y="598" on="1"/>
        <pt x="758" y="594" on="0"/>
        <pt x="814" y="561" on="0"/>
        <pt x="830" y="539" on="1"/>
        <pt x="864" y="617" on="0"/>
        <pt x="1006" y="709" on="0"/>
        <pt x="1123" y="683" on="1"/>
        <pt x="1125" y="680" on="1"/>
        <pt x="1125" y="634" on="0"/>
        <pt x="1109" y="540" on="0"/>
        <pt x="1057" y="487" on="1"/>
        <pt x="1060" y="485" on="1"/>
        <pt x="1206" y="514" on="0"/>
        <pt x="1360" y="460" on="0"/>
        <pt x="1432" y="379" on="1"/>
      </contour>
      <contour>
        <pt x="130" y="466" on="1"/>
        <pt x="133" y="464" on="1"/>
        <pt x="148" y="504" on="0"/>
        <pt x="193" y="590" on="0"/>
        <pt x="209" y="606" on="1"/>
        <pt x="213" y="610" on="0"/>
        <pt x="219" y="601" on="0"/>
        <pt x="219" y="597" on="1"/>
        <pt x="218" y="578" on="0"/>
        <pt x="187" y="491" on="0"/>
        <pt x="173" y="455" on="1"/>
        <pt x="177" y="454" on="1"/>
        <pt x="209" y="495" on="0"/>
        <pt x="249" y="568" on="0"/>
        <pt x="261" y="603" on="1"/>
        <pt x="275" y="642" on="0"/>
        <pt x="279" y="708" on="0"/>
        <pt x="270" y="727" on="1"/>
        <pt x="241" y="712" on="0"/>
        <pt x="193" y="661" on="0"/>
        <pt x="175" y="626" on="1"/>
        <pt x="161" y="597" on="0"/>
        <pt x="135" y="518" on="0"/>
      </contour>
      <contour>
        <pt x="1000" y="574" on="1"/>
        <pt x="970" y="511" on="0"/>
        <pt x="922" y="468" on="0"/>
        <pt x="886" y="436" on="1"/>
        <pt x="892" y="427" on="1"/>
        <pt x="952" y="458" on="0"/>
        <pt x="1032" y="519" on="0"/>
        <pt x="1053" y="550" on="1"/>
        <pt x="1070" y="576" on="0"/>
        <pt x="1079" y="624" on="0"/>
        <pt x="1079" y="648" on="1"/>
        <pt x="1031" y="652" on="0"/>
        <pt x="953" y="630" on="0"/>
        <pt x="925" y="602" on="1"/>
        <pt x="900" y="577" on="0"/>
        <pt x="865" y="502" on="0"/>
        <pt x="856" y="453" on="1"/>
        <pt x="863" y="452" on="1"/>
        <pt x="891" y="501" on="0"/>
        <pt x="948" y="565" on="0"/>
        <pt x="989" y="585" on="1"/>
        <pt x="994" y="589" on="0"/>
        <pt x="1002" y="579" on="0"/>
      </contour>
      <contour>
        <pt x="555" y="568" on="1"/>
        <pt x="521" y="540" on="0"/>
        <pt x="370" y="464" on="0"/>
        <pt x="283" y="426" on="1"/>
        <pt x="284" y="420" on="1"/>
        <pt x="518" y="468" on="0"/>
        <pt x="673" y="607" on="0"/>
        <pt x="682" y="641" on="1"/>
        <pt x="623" y="649" on="0"/>
        <pt x="498" y="627" on="0"/>
        <pt x="437" y="598" on="1"/>
        <pt x="383" y="572" on="0"/>
        <pt x="278" y="491" on="0"/>
        <pt x="235" y="444" on="1"/>
        <pt x="239" y="440" on="1"/>
        <pt x="314" y="488" on="0"/>
        <pt x="469" y="564" on="0"/>
        <pt x="546" y="584" on="1"/>
        <pt x="557" y="587" on="0"/>
        <pt x="557" y="570" on="0"/>
      </contour>
      <contour>
        <pt x="395" y="409" on="1"/>
        <pt x="397" y="400" on="1"/>
        <pt x="573" y="408" on="1"/>
        <pt x="639" y="411" on="0"/>
        <pt x="720" y="422" on="0"/>
        <pt x="743" y="434" on="1"/>
        <pt x="715" y="460" on="0"/>
        <pt x="689" y="538" on="0"/>
        <pt x="696" y="567" on="1"/>
        <pt x="655" y="508" on="0"/>
        <pt x="511" y="437" on="0"/>
      </contour>
      <contour>
        <pt x="1279" y="377" on="1"/>
        <pt x="1279" y="374" on="0"/>
        <pt x="1276" y="371" on="0"/>
        <pt x="1274" y="370" on="1"/>
        <pt x="1220" y="351" on="0"/>
        <pt x="1006" y="350" on="0"/>
        <pt x="897" y="365" on="1"/>
        <pt x="896" y="355" on="1"/>
        <pt x="980" y="319" on="0"/>
        <pt x="1150" y="293" on="0"/>
        <pt x="1195" y="293" on="1"/>
        <pt x="1226" y="293" on="0"/>
        <pt x="1275" y="304" on="0"/>
        <pt x="1297" y="315" on="1"/>
        <pt x="1315" y="325" on="0"/>
        <pt x="1351" y="354" on="0"/>
        <pt x="1373" y="377" on="1"/>
        <pt x="1351" y="400" on="0"/>
        <pt x="1315" y="429" on="0"/>
        <pt x="1297" y="439" on="1"/>
        <pt x="1275" y="450" on="0"/>
        <pt x="1226" y="461" on="0"/>
        <pt x="1195" y="461" on="1"/>
        <pt x="1150" y="461" on="0"/>
        <pt x="980" y="435" on="0"/>
        <pt x="896" y="399" on="1"/>
        <pt x="897" y="389" on="1"/>
        <pt x="1006" y="404" on="0"/>
        <pt x="1220" y="403" on="0"/>
        <pt x="1274" y="384" on="1"/>
        <pt x="1276" y="383" on="0"/>
        <pt x="1279" y="380" on="0"/>
      </contour>
      <contour>
        <pt x="395" y="345" on="1"/>
        <pt x="511" y="317" on="0"/>
        <pt x="655" y="246" on="0"/>
        <pt x="696" y="187" on="1"/>
        <pt x="689" y="216" on="0"/>
        <pt x="715" y="294" on="0"/>
        <pt x="743" y="320" on="1"/>
        <pt x="720" y="332" on="0"/>
        <pt x="639" y="343" on="0"/>
        <pt x="573" y="346" on="1"/>
        <pt x="397" y="354" on="1"/>
      </contour>
      <contour>
        <pt x="555" y="186" on="1"/>
        <pt x="557" y="184" on="0"/>
        <pt x="557" y="167" on="0"/>
        <pt x="546" y="170" on="1"/>
        <pt x="469" y="190" on="0"/>
        <pt x="314" y="266" on="0"/>
        <pt x="239" y="314" on="1"/>
        <pt x="235" y="310" on="1"/>
        <pt x="278" y="263" on="0"/>
        <pt x="383" y="182" on="0"/>
        <pt x="437" y="156" on="1"/>
        <pt x="498" y="127" on="0"/>
        <pt x="623" y="105" on="0"/>
        <pt x="682" y="113" on="1"/>
        <pt x="673" y="147" on="0"/>
        <pt x="518" y="286" on="0"/>
        <pt x="284" y="334" on="1"/>
        <pt x="283" y="328" on="1"/>
        <pt x="370" y="290" on="0"/>
        <pt x="521" y="214" on="0"/>
      </contour>
      <contour>
        <pt x="1000" y="180" on="1"/>
        <pt x="1002" y="175" on="0"/>
        <pt x="994" y="165" on="0"/>
        <pt x="989" y="169" on="1"/>
        <pt x="948" y="189" on="0"/>
        <pt x="891" y="253" on="0"/>
        <pt x="863" y="302" on="1"/>
        <pt x="856" y="301" on="1"/>
        <pt x="865" y="252" on="0"/>
        <pt x="900" y="177" on="0"/>
        <pt x="925" y="152" on="1"/>
        <pt x="953" y="124" on="0"/>
        <pt x="1031" y="102" on="0"/>
        <pt x="1079" y="106" on="1"/>
        <pt x="1079" y="130" on="0"/>
        <pt x="1070" y="178" on="0"/>
        <pt x="1053" y="204" on="1"/>
        <pt x="1032" y="235" on="0"/>
        <pt x="952" y="296" on="0"/>
        <pt x="892" y="327" on="1"/>
        <pt x="886" y="318" on="1"/>
        <pt x="922" y="286" on="0"/>
        <pt x="970" y="243" on="0"/>
      </contour>
      <contour>
        <pt x="130" y="288" on="1"/>
        <pt x="135" y="236" on="0"/>
        <pt x="161" y="157" on="0"/>
        <pt x="175" y="128" on="1"/>
        <pt x="193" y="93" on="0"/>
        <pt x="241" y="42" on="0"/>
        <pt x="270" y="27" on="1"/>
        <pt x="279" y="46" on="0"/>
        <pt x="275" y="112" on="0"/>
        <pt x="261" y="151" on="1"/>
        <pt x="249" y="186" on="0"/>
        <pt x="209" y="259" on="0"/>
        <pt x="177" y="300" on="1"/>
        <pt x="173" y="299" on="1"/>
        <pt x="187" y="263" on="0"/>
        <pt x="218" y="176" on="0"/>
        <pt x="219" y="157" on="1"/>
        <pt x="219" y="153" on="0"/>
        <pt x="213" y="144" on="0"/>
        <pt x="209" y="148" on="1"/>
        <pt x="193" y="164" on="0"/>
        <pt x="148" y="250" on="0"/>
        <pt x="133" y="290" on="1"/>
      </contour>
    </TTGlyph>
    <TTGlyph name="G" xMin="-7" yMin="-9" xMax="1161" yMax="763">
      <contour>
        <pt x="1161" y="377" on="1"/>
        <pt x="1161" y="267" on="0"/>
        <pt x="986" y="125" on="0"/>
        <pt x="840" y="125" on="1"/>
        <pt x="828" y="125" on="0"/>
        <pt x="804" y="126" on="0"/>
        <pt x="791" y="127" on="1"/>
        <pt x="755" y="67" on="0"/>
        <pt x="645" y="-9" on="0"/>
        <pt x="567" y="-9" on="1"/>
        <pt x="480" y="-9" on="0"/>
        <pt x="305" y="90" on="0"/>
        <pt x="187" y="216" on="1"/>
        <pt x="117" y="291" on="0"/>
        <pt x="54" y="334" on="0"/>
        <pt x="-7" y="341" on="1"/>
        <pt x="-7" y="413" on="1"/>
        <pt x="54" y="420" on="0"/>
        <pt x="117" y="463" on="0"/>
        <pt x="187" y="538" on="1"/>
        <pt x="305" y="664" on="0"/>
        <pt x="480" y="763" on="0"/>
        <pt x="567" y="763" on="1"/>
        <pt x="645" y="763" on="0"/>
        <pt x="755" y="687" on="0"/>
        <pt x="791" y="627" on="1"/>
        <pt x="804" y="628" on="0"/>
        <pt x="828" y="629" on="0"/>
        <pt x="840" y="629" on="1"/>
        <pt x="986" y="629" on="0"/>
        <pt x="1161" y="487" on="0"/>
      </contour>
      <contour>
        <pt x="568" y="711" on="1"/>
        <pt x="494" y="711" on="0"/>
        <pt x="328" y="611" on="0"/>
        <pt x="179" y="462" on="1"/>
        <pt x="181" y="458" on="1"/>
        <pt x="375" y="527" on="0"/>
        <pt x="633" y="606" on="0"/>
        <pt x="728" y="620" on="1"/>
        <pt x="703" y="658" on="0"/>
        <pt x="624" y="711" on="0"/>
      </contour>
      <contour>
        <pt x="1102" y="377" on="1"/>
        <pt x="1102" y="467" on="0"/>
        <pt x="953" y="573" on="0"/>
        <pt x="837" y="573" on="1"/>
        <pt x="730" y="573" on="0"/>
        <pt x="388" y="477" on="0"/>
        <pt x="104" y="384" on="1"/>
        <pt x="104" y="370" on="1"/>
        <pt x="388" y="277" on="0"/>
        <pt x="730" y="181" on="0"/>
        <pt x="837" y="181" on="1"/>
        <pt x="953" y="181" on="0"/>
        <pt x="1102" y="287" on="0"/>
      </contour>
      <contour>
        <pt x="446" y="352" on="1"/>
        <pt x="451" y="357" on="1"/>
        <pt x="474" y="338" on="0"/>
        <pt x="516" y="320" on="0"/>
        <pt x="541" y="318" on="1"/>
        <pt x="545" y="325" on="1"/>
        <pt x="529" y="343" on="0"/>
        <pt x="488" y="366" on="0"/>
        <pt x="458" y="372" on="1"/>
        <pt x="458" y="382" on="1"/>
        <pt x="488" y="388" on="0"/>
        <pt x="529" y="411" on="0"/>
        <pt x="545" y="429" on="1"/>
        <pt x="541" y="436" on="1"/>
        <pt x="516" y="434" on="0"/>
        <pt x="474" y="416" on="0"/>
        <pt x="451" y="397" on="1"/>
        <pt x="446" y="402" on="1"/>
        <pt x="473" y="463" on="0"/>
        <pt x="622" y="489" on="0"/>
        <pt x="648" y="480" on="1"/>
        <pt x="641" y="461" on="0"/>
        <pt x="577" y="389" on="0"/>
        <pt x="527" y="377" on="1"/>
        <pt x="577" y="365" on="0"/>
        <pt x="641" y="293" on="0"/>
        <pt x="648" y="274" on="1"/>
        <pt x="622" y="265" on="0"/>
        <pt x="473" y="291" on="0"/>
      </contour>
      <contour>
        <pt x="656" y="348" on="1"/>
        <pt x="661" y="354" on="1"/>
        <pt x="689" y="336" on="0"/>
        <pt x="740" y="318" on="0"/>
        <pt x="766" y="321" on="1"/>
        <pt x="769" y="329" on="1"/>
        <pt x="750" y="348" on="0"/>
        <pt x="698" y="367" on="0"/>
        <pt x="665" y="370" on="1"/>
        <pt x="665" y="384" on="1"/>
        <pt x="698" y="387" on="0"/>
        <pt x="750" y="406" on="0"/>
        <pt x="769" y="425" on="1"/>
        <pt x="766" y="433" on="1"/>
        <pt x="740" y="436" on="0"/>
        <pt x="689" y="418" on="0"/>
        <pt x="661" y="400" on="1"/>
        <pt x="656" y="406" on="1"/>
        <pt x="693" y="475" on="0"/>
        <pt x="852" y="482" on="0"/>
        <pt x="878" y="469" on="1"/>
        <pt x="871" y="452" on="0"/>
        <pt x="809" y="392" on="0"/>
        <pt x="766" y="377" on="1"/>
        <pt x="809" y="362" on="0"/>
        <pt x="871" y="302" on="0"/>
        <pt x="878" y="285" on="1"/>
        <pt x="852" y="272" on="0"/>
        <pt x="693" y="279" on="0"/>
      </contour>
      <contour>
        <pt x="885" y="377" on="1"/>
        <pt x="910" y="418" on="0"/>
        <pt x="1006" y="423" on="0"/>
        <pt x="1021" y="414" on="1"/>
        <pt x="1017" y="406" on="0"/>
        <pt x="991" y="384" on="0"/>
        <pt x="973" y="377" on="1"/>
        <pt x="991" y="370" on="0"/>
        <pt x="1017" y="348" on="0"/>
        <pt x="1021" y="340" on="1"/>
        <pt x="1006" y="331" on="0"/>
        <pt x="910" y="336" on="0"/>
      </contour>
      <contour>
        <pt x="263" y="377" on="1"/>
        <pt x="289" y="414" on="0"/>
        <pt x="386" y="417" on="0"/>
        <pt x="402" y="409" on="1"/>
        <pt x="398" y="402" on="0"/>
        <pt x="371" y="383" on="0"/>
        <pt x="353" y="377" on="1"/>
        <pt x="371" y="371" on="0"/>
        <pt x="398" y="352" on="0"/>
        <pt x="402" y="345" on="1"/>
        <pt x="386" y="337" on="0"/>
        <pt x="289" y="340" on="0"/>
      </contour>
      <contour>
        <pt x="568" y="43" on="1"/>
        <pt x="624" y="43" on="0"/>
        <pt x="703" y="96" on="0"/>
        <pt x="728" y="134" on="1"/>
        <pt x="633" y="148" on="0"/>
        <pt x="375" y="227" on="0"/>
        <pt x="181" y="296" on="1"/>
        <pt x="179" y="292" on="1"/>
        <pt x="328" y="143" on="0"/>
        <pt x="494" y="43" on="0"/>
      </contour>
    </TTGlyph>
    <TTGlyph name="H" xMin="-7" yMin="-9" xMax="1338" yMax="763">
      <contour>
        <pt x="-7" y="341" on="1"/>
        <pt x="-7" y="413" on="1"/>
        <pt x="317" y="442" on="0"/>
        <pt x="750" y="628" on="0"/>
        <pt x="846" y="759" on="1"/>
        <pt x="862" y="761" on="0"/>
        <pt x="891" y="763" on="0"/>
        <pt x="901" y="763" on="1"/>
        <pt x="1064" y="763" on="0"/>
        <pt x="1338" y="538" on="0"/>
        <pt x="1338" y="377" on="1"/>
        <pt x="1338" y="216" on="0"/>
        <pt x="1064" y="-9" on="0"/>
        <pt x="901" y="-9" on="1"/>
        <pt x="891" y="-9" on="0"/>
        <pt x="862" y="-7" on="0"/>
        <pt x="846" y="-5" on="1"/>
        <pt x="750" y="126" on="0"/>
        <pt x="317" y="312" on="0"/>
      </contour>
      <contour>
        <pt x="115" y="382" on="1"/>
        <pt x="115" y="372" on="1"/>
        <pt x="385" y="347" on="0"/>
        <pt x="782" y="174" on="0"/>
        <pt x="870" y="50" on="1"/>
        <pt x="875" y="50" on="1"/>
        <pt x="865" y="131" on="0"/>
        <pt x="729" y="288" on="0"/>
        <pt x="625" y="369" on="1"/>
        <pt x="625" y="385" on="1"/>
        <pt x="729" y="466" on="0"/>
        <pt x="865" y="623" on="0"/>
        <pt x="875" y="704" on="1"/>
        <pt x="870" y="704" on="1"/>
        <pt x="782" y="580" on="0"/>
        <pt x="385" y="407" on="0"/>
      </contour>
      <contour>
        <pt x="1015" y="522" on="1"/>
        <pt x="1079" y="522" on="0"/>
        <pt x="1205" y="484" on="0"/>
        <pt x="1262" y="448" on="1"/>
        <pt x="1266" y="452" on="1"/>
        <pt x="1237" y="549" on="0"/>
        <pt x="1047" y="695" on="0"/>
        <pt x="930" y="703" on="1"/>
        <pt x="924" y="648" on="0"/>
        <pt x="865" y="539" on="0"/>
        <pt x="809" y="485" on="1"/>
        <pt x="813" y="482" on="1"/>
        <pt x="858" y="501" on="0"/>
        <pt x="959" y="522" on="0"/>
      </contour>
      <contour>
        <pt x="714" y="381" on="1"/>
        <pt x="714" y="373" on="1"/>
        <pt x="769" y="330" on="0"/>
        <pt x="922" y="290" on="0"/>
        <pt x="1001" y="290" on="1"/>
        <pt x="1079" y="290" on="0"/>
        <pt x="1227" y="332" on="0"/>
        <pt x="1281" y="373" on="1"/>
        <pt x="1281" y="381" on="1"/>
        <pt x="1227" y="422" on="0"/>
        <pt x="1079" y="464" on="0"/>
        <pt x="1001" y="464" on="1"/>
        <pt x="922" y="464" on="0"/>
        <pt x="769" y="424" on="0"/>
      </contour>
      <contour>
        <pt x="1015" y="232" on="1"/>
        <pt x="959" y="232" on="0"/>
        <pt x="858" y="253" on="0"/>
        <pt x="813" y="272" on="1"/>
        <pt x="809" y="269" on="1"/>
        <pt x="865" y="215" on="0"/>
        <pt x="924" y="106" on="0"/>
        <pt x="930" y="51" on="1"/>
        <pt x="1047" y="59" on="0"/>
        <pt x="1237" y="205" on="0"/>
        <pt x="1266" y="302" on="1"/>
        <pt x="1262" y="306" on="1"/>
        <pt x="1205" y="270" on="0"/>
        <pt x="1079" y="232" on="0"/>
      </contour>
    </TTGlyph>
    <TTGlyph name="I" xMin="-3" yMin="-15" xMax="1195" yMax="769">
      <contour>
        <pt x="1195" y="397" on="1"/>
        <pt x="1195" y="357" on="1"/>
        <pt x="1149" y="297" on="0"/>
        <pt x="1023" y="251" on="0"/>
        <pt x="941" y="251" on="1"/>
        <pt x="890" y="251" on="0"/>
        <pt x="764" y="274" on="0"/>
        <pt x="690" y="293" on="1"/>
        <pt x="687" y="286" on="1"/>
        <pt x="746" y="246" on="0"/>
        <pt x="782" y="180" on="0"/>
        <pt x="782" y="145" on="1"/>
        <pt x="782" y="110" on="0"/>
        <pt x="738" y="57" on="0"/>
        <pt x="695" y="57" on="1"/>
        <pt x="656" y="57" on="0"/>
        <pt x="597" y="114" on="0"/>
        <pt x="597" y="152" on="1"/>
        <pt x="597" y="198" on="0"/>
        <pt x="672" y="219" on="0"/>
        <pt x="711" y="197" on="1"/>
        <pt x="718" y="206" on="1"/>
        <pt x="692" y="237" on="0"/>
        <pt x="569" y="312" on="0"/>
        <pt x="501" y="323" on="1"/>
        <pt x="450" y="331" on="0"/>
        <pt x="351" y="338" on="0"/>
        <pt x="244" y="340" on="1"/>
        <pt x="337" y="288" on="0"/>
        <pt x="417" y="132" on="0"/>
        <pt x="417" y="7" on="1"/>
        <pt x="411" y="-1" on="1"/>
        <pt x="224" y="-15" on="0"/>
        <pt x="-3" y="214" on="0"/>
        <pt x="-3" y="377" on="1"/>
        <pt x="-3" y="540" on="0"/>
        <pt x="224" y="769" on="0"/>
        <pt x="411" y="755" on="1"/>
        <pt x="417" y="747" on="1"/>
        <pt x="417" y="622" on="0"/>
        <pt x="337" y="466" on="0"/>
        <pt x="244" y="414" on="1"/>
        <pt x="351" y="416" on="0"/>
        <pt x="450" y="423" on="0"/>
        <pt x="501" y="431" on="1"/>
        <pt x="569" y="442" on="0"/>
        <pt x="692" y="517" on="0"/>
        <pt x="718" y="548" on="1"/>
        <pt x="711" y="557" on="1"/>
        <pt x="672" y="535" on="0"/>
        <pt x="597" y="556" on="0"/>
        <pt x="597" y="602" on="1"/>
        <pt x="597" y="640" on="0"/>
        <pt x="656" y="697" on="0"/>
        <pt x="695" y="697" on="1"/>
        <pt x="738" y="697" on="0"/>
        <pt x="782" y="644" on="0"/>
        <pt x="782" y="609" on="1"/>
        <pt x="782" y="574" on="0"/>
        <pt x="746" y="508" on="0"/>
        <pt x="687" y="468" on="1"/>
        <pt x="690" y="461" on="1"/>
        <pt x="764" y="480" on="0"/>
        <pt x="890" y="503" on="0"/>
        <pt x="941" y="503" on="1"/>
        <pt x="1023" y="503" on="0"/>
        <pt x="1149" y="457" on="0"/>
      </contour>
      <contour>
        <pt x="53" y="420" on="1"/>
        <pt x="65" y="415" on="1"/>
        <pt x="102" y="478" on="0"/>
        <pt x="177" y="562" on="0"/>
        <pt x="242" y="599" on="1"/>
        <pt x="246" y="601" on="0"/>
        <pt x="260" y="590" on="0"/>
        <pt x="259" y="585" on="1"/>
        <pt x="240" y="551" on="0"/>
        <pt x="141" y="447" on="0"/>
        <pt x="103" y="410" on="1"/>
        <pt x="105" y="402" on="1"/>
        <pt x="257" y="447" on="0"/>
        <pt x="366" y="626" on="0"/>
        <pt x="367" y="710" on="1"/>
        <pt x="221" y="701" on="0"/>
        <pt x="60" y="523" on="0"/>
      </contour>
      <contour>
        <pt x="1132" y="372" on="1"/>
        <pt x="1132" y="382" on="1"/>
        <pt x="1105" y="418" on="0"/>
        <pt x="1003" y="445" on="0"/>
        <pt x="948" y="445" on="1"/>
        <pt x="814" y="445" on="0"/>
        <pt x="618" y="392" on="0"/>
        <pt x="383" y="382" on="1"/>
        <pt x="383" y="372" on="1"/>
        <pt x="618" y="362" on="0"/>
        <pt x="814" y="309" on="0"/>
        <pt x="948" y="309" on="1"/>
        <pt x="1003" y="309" on="0"/>
        <pt x="1105" y="336" on="0"/>
      </contour>
      <contour>
        <pt x="53" y="334" on="1"/>
        <pt x="60" y="231" on="0"/>
        <pt x="221" y="53" on="0"/>
        <pt x="367" y="44" on="1"/>
        <pt x="366" y="128" on="0"/>
        <pt x="257" y="307" on="0"/>
        <pt x="105" y="352" on="1"/>
        <pt x="103" y="344" on="1"/>
        <pt x="141" y="307" on="0"/>
        <pt x="240" y="203" on="0"/>
        <pt x="259" y="169" on="1"/>
        <pt x="260" y="164" on="0"/>
        <pt x="246" y="153" on="0"/>
        <pt x="242" y="155" on="1"/>
        <pt x="177" y="192" on="0"/>
        <pt x="102" y="276" on="0"/>
        <pt x="65" y="339" on="1"/>
      </contour>
    </TTGlyph>
    <TTGlyph name="J" xMin="-3" yMin="-16" xMax="2291" yMax="770">
      <contour>
        <pt x="91" y="377" on="1"/>
        <pt x="48" y="401" on="0"/>
        <pt x="-3" y="487" on="0"/>
        <pt x="-3" y="536" on="1"/>
        <pt x="-3" y="608" on="0"/>
        <pt x="137" y="770" on="0"/>
        <pt x="351" y="770" on="1"/>
        <pt x="635" y="770" on="0"/>
        <pt x="1153" y="509" on="0"/>
        <pt x="1419" y="509" on="1"/>
        <pt x="1659" y="509" on="0"/>
        <pt x="1830" y="752" on="0"/>
        <pt x="1913" y="752" on="1"/>
        <pt x="1930" y="752" on="0"/>
        <pt x="1958" y="724" on="0"/>
        <pt x="1958" y="703" on="1"/>
        <pt x="1958" y="680" on="0"/>
        <pt x="1903" y="626" on="0"/>
        <pt x="1870" y="605" on="1"/>
        <pt x="1876" y="598" on="1"/>
        <pt x="1906" y="606" on="0"/>
        <pt x="1956" y="648" on="0"/>
        <pt x="1975" y="672" on="1"/>
        <pt x="1994" y="697" on="0"/>
        <pt x="2034" y="723" on="0"/>
        <pt x="2051" y="723" on="1"/>
        <pt x="2073" y="723" on="0"/>
        <pt x="2101" y="697" on="0"/>
        <pt x="2101" y="669" on="1"/>
        <pt x="2101" y="632" on="0"/>
        <pt x="2009" y="561" on="0"/>
        <pt x="1956" y="541" on="1"/>
        <pt x="1960" y="530" on="1"/>
        <pt x="2108" y="549" on="0"/>
        <pt x="2291" y="454" on="0"/>
        <pt x="2291" y="377" on="1"/>
        <pt x="2291" y="300" on="0"/>
        <pt x="2108" y="205" on="0"/>
        <pt x="1960" y="224" on="1"/>
        <pt x="1956" y="213" on="1"/>
        <pt x="2009" y="193" on="0"/>
        <pt x="2101" y="122" on="0"/>
        <pt x="2101" y="85" on="1"/>
        <pt x="2101" y="57" on="0"/>
        <pt x="2073" y="31" on="0"/>
        <pt x="2051" y="31" on="1"/>
        <pt x="2034" y="31" on="0"/>
        <pt x="1994" y="57" on="0"/>
        <pt x="1975" y="82" on="1"/>
        <pt x="1956" y="106" on="0"/>
        <pt x="1906" y="148" on="0"/>
        <pt x="1876" y="156" on="1"/>
        <pt x="1870" y="149" on="1"/>
        <pt x="1903" y="128" on="0"/>
        <pt x="1958" y="74" on="0"/>
        <pt x="1958" y="51" on="1"/>
        <pt x="1958" y="30" on="0"/>
        <pt x="1930" y="2" on="0"/>
        <pt x="1913" y="2" on="1"/>
        <pt x="1830" y="2" on="0"/>
        <pt x="1635" y="245" on="0"/>
        <pt x="1419" y="245" on="1"/>
        <pt x="1153" y="245" on="0"/>
        <pt x="635" y="-16" on="0"/>
        <pt x="351" y="-16" on="1"/>
        <pt x="137" y="-16" on="0"/>
        <pt x="-3" y="146" on="0"/>
        <pt x="-3" y="218" on="1"/>
        <pt x="-3" y="267" on="0"/>
        <pt x="48" y="353" on="0"/>
      </contour>
      <contour>
        <pt x="848" y="377" on="1"/>
        <pt x="848" y="405" on="0"/>
        <pt x="899" y="461" on="0"/>
        <pt x="952" y="461" on="1"/>
        <pt x="1029" y="461" on="0"/>
        <pt x="1216" y="413" on="0"/>
        <pt x="1422" y="413" on="1"/>
        <pt x="1511" y="413" on="0"/>
        <pt x="1752" y="465" on="0"/>
        <pt x="1839" y="500" on="1"/>
        <pt x="1835" y="511" on="1"/>
        <pt x="1725" y="486" on="0"/>
        <pt x="1534" y="458" on="0"/>
        <pt x="1450" y="458" on="1"/>
        <pt x="1139" y="458" on="0"/>
        <pt x="640" y="704" on="0"/>
        <pt x="368" y="715" on="1"/>
        <pt x="366" y="704" on="1"/>
        <pt x="459" y="671" on="0"/>
        <pt x="542" y="468" on="0"/>
        <pt x="542" y="377" on="1"/>
        <pt x="542" y="286" on="0"/>
        <pt x="459" y="83" on="0"/>
        <pt x="366" y="50" on="1"/>
        <pt x="368" y="39" on="1"/>
        <pt x="640" y="50" on="0"/>
        <pt x="1139" y="296" on="0"/>
        <pt x="1450" y="296" on="1"/>
        <pt x="1534" y="296" on="0"/>
        <pt x="1725" y="268" on="0"/>
        <pt x="1835" y="243" on="1"/>
        <pt x="1839" y="254" on="1"/>
        <pt x="1752" y="289" on="0"/>
        <pt x="1511" y="341" on="0"/>
        <pt x="1422" y="341" on="1"/>
        <pt x="1216" y="341" on="0"/>
        <pt x="1029" y="293" on="0"/>
        <pt x="952" y="293" on="1"/>
        <pt x="899" y="293" on="0"/>
        <pt x="848" y="349" on="0"/>
      </contour>
      <contour>
        <pt x="476" y="377" on="1"/>
        <pt x="476" y="501" on="0"/>
        <pt x="351" y="691" on="0"/>
        <pt x="226" y="691" on="1"/>
        <pt x="151" y="691" on="0"/>
        <pt x="63" y="596" on="0"/>
        <pt x="63" y="536" on="1"/>
        <pt x="63" y="487" on="0"/>
        <pt x="127" y="401" on="0"/>
        <pt x="197" y="401" on="1"/>
        <pt x="254" y="401" on="0"/>
        <pt x="309" y="461" on="0"/>
        <pt x="309" y="493" on="1"/>
        <pt x="309" y="508" on="0"/>
        <pt x="301" y="533" on="0"/>
        <pt x="292" y="543" on="1"/>
        <pt x="285" y="539" on="1"/>
        <pt x="284" y="511" on="0"/>
        <pt x="245" y="468" on="0"/>
        <pt x="214" y="468" on="1"/>
        <pt x="175" y="468" on="0"/>
        <pt x="135" y="521" on="0"/>
        <pt x="135" y="544" on="1"/>
        <pt x="135" y="577" on="0"/>
        <pt x="183" y="632" on="0"/>
        <pt x="232" y="632" on="1"/>
        <pt x="292" y="632" on="0"/>
        <pt x="364" y="552" on="0"/>
        <pt x="364" y="494" on="1"/>
        <pt x="364" y="463" on="0"/>
        <pt x="332" y="396" on="0"/>
        <pt x="297" y="377" on="1"/>
        <pt x="332" y="358" on="0"/>
        <pt x="364" y="291" on="0"/>
        <pt x="364" y="260" on="1"/>
        <pt x="364" y="202" on="0"/>
        <pt x="292" y="122" on="0"/>
        <pt x="232" y="122" on="1"/>
        <pt x="183" y="122" on="0"/>
        <pt x="135" y="177" on="0"/>
        <pt x="135" y="210" on="1"/>
        <pt x="135" y="233" on="0"/>
        <pt x="175" y="286" on="0"/>
        <pt x="214" y="286" on="1"/>
        <pt x="245" y="286" on="0"/>
        <pt x="284" y="243" on="0"/>
        <pt x="285" y="215" on="1"/>
        <pt x="292" y="211" on="1"/>
        <pt x="301" y="221" on="0"/>
        <pt x="309" y="246" on="0"/>
        <pt x="309" y="261" on="1"/>
        <pt x="309" y="293" on="0"/>
        <pt x="254" y="353" on="0"/>
        <pt x="197" y="353" on="1"/>
        <pt x="127" y="353" on="0"/>
        <pt x="63" y="267" on="0"/>
        <pt x="63" y="218" on="1"/>
        <pt x="63" y="158" on="0"/>
        <pt x="151" y="63" on="0"/>
        <pt x="226" y="63" on="1"/>
        <pt x="351" y="63" on="0"/>
        <pt x="476" y="253" on="0"/>
      </contour>
      <contour>
        <pt x="593" y="377" on="1"/>
        <pt x="593" y="440" on="0"/>
        <pt x="660" y="509" on="0"/>
        <pt x="702" y="509" on="1"/>
        <pt x="744" y="509" on="0"/>
        <pt x="811" y="440" on="0"/>
        <pt x="811" y="377" on="1"/>
        <pt x="811" y="314" on="0"/>
        <pt x="744" y="245" on="0"/>
        <pt x="702" y="245" on="1"/>
        <pt x="660" y="245" on="0"/>
        <pt x="593" y="314" on="0"/>
      </contour>
      <contour>
        <pt x="1544" y="382" on="1"/>
        <pt x="1544" y="372" on="1"/>
        <pt x="1733" y="356" on="0"/>
        <pt x="1917" y="273" on="0"/>
        <pt x="2034" y="273" on="1"/>
        <pt x="2118" y="273" on="0"/>
        <pt x="2226" y="334" on="0"/>
        <pt x="2226" y="377" on="1"/>
        <pt x="2226" y="420" on="0"/>
        <pt x="2118" y="481" on="0"/>
        <pt x="2034" y="481" on="1"/>
        <pt x="1917" y="481" on="0"/>
        <pt x="1733" y="398" on="0"/>
      </contour>
      <contour>
        <pt x="759" y="377" on="1"/>
        <pt x="759" y="420" on="0"/>
        <pt x="740" y="447" on="0"/>
        <pt x="730" y="447" on="1"/>
        <pt x="721" y="447" on="0"/>
        <pt x="702" y="420" on="0"/>
        <pt x="702" y="377" on="1"/>
        <pt x="702" y="334" on="0"/>
        <pt x="721" y="307" on="0"/>
        <pt x="730" y="307" on="1"/>
        <pt x="740" y="307" on="0"/>
        <pt x="759" y="334" on="0"/>
      </contour>
      <contour>
        <pt x="1191" y="374" on="1"/>
        <pt x="1191" y="380" on="1"/>
        <pt x="1134" y="384" on="0"/>
        <pt x="984" y="411" on="0"/>
        <pt x="958" y="411" on="1"/>
        <pt x="933" y="411" on="0"/>
        <pt x="908" y="393" on="0"/>
        <pt x="908" y="377" on="1"/>
        <pt x="908" y="361" on="0"/>
        <pt x="933" y="343" on="0"/>
        <pt x="958" y="343" on="1"/>
        <pt x="985" y="343" on="0"/>
        <pt x="1134" y="370" on="0"/>
      </contour>
    </TTGlyph>
    <TTGlyph name="K" xMin="-3" yMin="-19" xMax="755" yMax="773">
      <contour>
        <pt x="661" y="377" on="1"/>
        <pt x="704" y="353" on="0"/>
        <pt x="755" y="267" on="0"/>
        <pt x="755" y="218" on="1"/>
        <pt x="755" y="146" on="0"/>
        <pt x="615" y="-13" on="0"/>
        <pt x="423" y="-16" on="1"/>
        <pt x="225" y="-19" on="0"/>
        <pt x="-3" y="221" on="0"/>
        <pt x="-3" y="377" on="1"/>
        <pt x="-3" y="533" on="0"/>
        <pt x="225" y="767" on="0"/>
        <pt x="423" y="770" on="1"/>
        <pt x="615" y="773" on="0"/>
        <pt x="755" y="608" on="0"/>
        <pt x="755" y="536" on="1"/>
        <pt x="755" y="487" on="0"/>
        <pt x="704" y="401" on="0"/>
      </contour>
      <contour>
        <pt x="63" y="377" on="1"/>
        <pt x="63" y="237" on="0"/>
        <pt x="246" y="48" on="0"/>
        <pt x="371" y="41" on="1"/>
        <pt x="373" y="48" on="1"/>
        <pt x="272" y="101" on="0"/>
        <pt x="200" y="297" on="0"/>
        <pt x="200" y="377" on="1"/>
        <pt x="200" y="457" on="0"/>
        <pt x="272" y="653" on="0"/>
        <pt x="373" y="706" on="1"/>
        <pt x="371" y="713" on="1"/>
        <pt x="246" y="706" on="0"/>
        <pt x="63" y="517" on="0"/>
      </contour>
      <contour>
        <pt x="266" y="377" on="1"/>
        <pt x="266" y="253" on="0"/>
        <pt x="399" y="63" on="0"/>
        <pt x="516" y="63" on="1"/>
        <pt x="598" y="63" on="0"/>
        <pt x="689" y="158" on="0"/>
        <pt x="689" y="218" on="1"/>
        <pt x="689" y="267" on="0"/>
        <pt x="626" y="351" on="0"/>
        <pt x="557" y="351" on="1"/>
        <pt x="498" y="351" on="0"/>
        <pt x="435" y="294" on="0"/>
        <pt x="435" y="258" on="1"/>
        <pt x="435" y="242" on="0"/>
        <pt x="444" y="216" on="0"/>
        <pt x="453" y="209" on="1"/>
        <pt x="460" y="213" on="1"/>
        <pt x="461" y="245" on="0"/>
        <pt x="508" y="287" on="0"/>
        <pt x="539" y="287" on="1"/>
        <pt x="580" y="287" on="0"/>
        <pt x="620" y="232" on="0"/>
        <pt x="620" y="208" on="1"/>
        <pt x="620" y="174" on="0"/>
        <pt x="567" y="118" on="0"/>
        <pt x="521" y="118" on="1"/>
        <pt x="457" y="118" on="0"/>
        <pt x="380" y="199" on="0"/>
        <pt x="380" y="257" on="1"/>
        <pt x="380" y="294" on="0"/>
        <pt x="418" y="358" on="0"/>
        <pt x="461" y="377" on="1"/>
        <pt x="418" y="396" on="0"/>
        <pt x="380" y="460" on="0"/>
        <pt x="380" y="497" on="1"/>
        <pt x="380" y="555" on="0"/>
        <pt x="457" y="636" on="0"/>
        <pt x="521" y="636" on="1"/>
        <pt x="567" y="636" on="0"/>
        <pt x="620" y="580" on="0"/>
        <pt x="620" y="546" on="1"/>
        <pt x="620" y="522" on="0"/>
        <pt x="580" y="467" on="0"/>
        <pt x="539" y="467" on="1"/>
        <pt x="508" y="467" on="0"/>
        <pt x="461" y="509" on="0"/>
        <pt x="460" y="541" on="1"/>
        <pt x="453" y="545" on="1"/>
        <pt x="444" y="538" on="0"/>
        <pt x="435" y="512" on="0"/>
        <pt x="435" y="496" on="1"/>
        <pt x="435" y="460" on="0"/>
        <pt x="498" y="403" on="0"/>
        <pt x="557" y="403" on="1"/>
        <pt x="626" y="403" on="0"/>
        <pt x="689" y="487" on="0"/>
        <pt x="689" y="536" on="1"/>
        <pt x="689" y="596" on="0"/>
        <pt x="598" y="691" on="0"/>
        <pt x="516" y="691" on="1"/>
        <pt x="399" y="691" on="0"/>
        <pt x="266" y="501" on="0"/>
      </contour>
    </TTGlyph>
    <TTGlyph name="L" xMin="-3" yMin="4" xMax="696" yMax="750">
      <contour>
        <pt x="696" y="193" on="1"/>
        <pt x="696" y="110" on="0"/>
        <pt x="519" y="4" on="0"/>
        <pt x="400" y="4" on="1"/>
        <pt x="230" y="4" on="0"/>
        <pt x="-3" y="217" on="0"/>
        <pt x="-3" y="377" on="1"/>
        <pt x="-3" y="537" on="0"/>
        <pt x="230" y="750" on="0"/>
        <pt x="400" y="750" on="1"/>
        <pt x="519" y="750" on="0"/>
        <pt x="696" y="644" on="0"/>
        <pt x="696" y="561" on="1"/>
        <pt x="696" y="557" on="1"/>
        <pt x="696" y="509" on="0"/>
        <pt x="627" y="441" on="0"/>
        <pt x="579" y="441" on="1"/>
        <pt x="531" y="441" on="0"/>
        <pt x="463" y="509" on="0"/>
        <pt x="463" y="557" on="1"/>
        <pt x="463" y="593" on="0"/>
        <pt x="504" y="651" on="0"/>
        <pt x="535" y="664" on="1"/>
        <pt x="416" y="650" on="0"/>
        <pt x="267" y="493" on="0"/>
        <pt x="267" y="377" on="1"/>
        <pt x="267" y="261" on="0"/>
        <pt x="416" y="105" on="0"/>
        <pt x="534" y="90" on="1"/>
        <pt x="503" y="103" on="0"/>
        <pt x="463" y="161" on="0"/>
        <pt x="463" y="197" on="1"/>
        <pt x="463" y="245" on="0"/>
        <pt x="531" y="313" on="0"/>
        <pt x="579" y="313" on="1"/>
        <pt x="627" y="313" on="0"/>
        <pt x="696" y="245" on="0"/>
        <pt x="696" y="197" on="1"/>
      </contour>
      <contour>
        <pt x="50" y="377" on="1"/>
        <pt x="50" y="241" on="0"/>
        <pt x="243" y="52" on="0"/>
        <pt x="392" y="49" on="1"/>
        <pt x="394" y="55" on="1"/>
        <pt x="263" y="78" on="0"/>
        <pt x="108" y="251" on="0"/>
        <pt x="108" y="377" on="1"/>
        <pt x="108" y="503" on="0"/>
        <pt x="263" y="676" on="0"/>
        <pt x="394" y="699" on="1"/>
        <pt x="392" y="705" on="1"/>
        <pt x="243" y="702" on="0"/>
        <pt x="50" y="513" on="0"/>
      </contour>
      <contour>
        <pt x="157" y="377" on="1"/>
        <pt x="157" y="273" on="0"/>
        <pt x="285" y="112" on="0"/>
        <pt x="390" y="84" on="1"/>
        <pt x="392" y="90" on="1"/>
        <pt x="311" y="130" on="0"/>
        <pt x="218" y="278" on="0"/>
        <pt x="218" y="377" on="1"/>
        <pt x="218" y="476" on="0"/>
        <pt x="311" y="624" on="0"/>
        <pt x="392" y="664" on="1"/>
        <pt x="390" y="670" on="1"/>
        <pt x="285" y="642" on="0"/>
        <pt x="157" y="481" on="0"/>
      </contour>
    </TTGlyph>
    <TTGlyph name="M" xMin="-3" yMin="-49" xMax="1925" yMax="765">
      <contour>
        <pt x="1763" y="514" on="1"/>
        <pt x="1845" y="490" on="0"/>
        <pt x="1925" y="408" on="0"/>
        <pt x="1925" y="357" on="1"/>
        <pt x="1925" y="304" on="0"/>
        <pt x="1845" y="240" on="0"/>
        <pt x="1770" y="240" on="1"/>
        <pt x="1842" y="204" on="0"/>
        <pt x="1905" y="122" on="0"/>
        <pt x="1905" y="77" on="1"/>
        <pt x="1905" y="22" on="0"/>
        <pt x="1829" y="-49" on="0"/>
        <pt x="1765" y="-49" on="1"/>
        <pt x="1600" y="-49" on="0"/>
        <pt x="1491" y="253" on="0"/>
        <pt x="1222" y="253" on="1"/>
        <pt x="1218" y="169" on="0"/>
        <pt x="1132" y="84" on="0"/>
        <pt x="1069" y="84" on="1"/>
        <pt x="1029" y="84" on="0"/>
        <pt x="946" y="133" on="0"/>
        <pt x="919" y="173" on="1"/>
        <pt x="851" y="80" on="0"/>
        <pt x="591" y="-35" on="0"/>
        <pt x="463" y="-35" on="1"/>
        <pt x="226" y="-35" on="0"/>
        <pt x="-3" y="207" on="0"/>
        <pt x="-3" y="367" on="1"/>
        <pt x="-3" y="490" on="0"/>
        <pt x="179" y="714" on="0"/>
        <pt x="329" y="714" on="1"/>
        <pt x="459" y="714" on="0"/>
        <pt x="627" y="548" on="0"/>
        <pt x="627" y="426" on="1"/>
        <pt x="627" y="333" on="0"/>
        <pt x="483" y="174" on="0"/>
        <pt x="367" y="174" on="1"/>
        <pt x="279" y="174" on="0"/>
        <pt x="156" y="280" on="0"/>
        <pt x="156" y="365" on="1"/>
        <pt x="156" y="444" on="0"/>
        <pt x="253" y="555" on="0"/>
        <pt x="334" y="555" on="1"/>
        <pt x="390" y="555" on="0"/>
        <pt x="477" y="482" on="0"/>
        <pt x="477" y="422" on="1"/>
        <pt x="477" y="382" on="0"/>
        <pt x="419" y="319" on="0"/>
        <pt x="376" y="319" on="1"/>
        <pt x="334" y="319" on="0"/>
        <pt x="276" y="368" on="0"/>
        <pt x="276" y="414" on="1"/>
        <pt x="276" y="437" on="0"/>
        <pt x="302" y="484" on="0"/>
        <pt x="327" y="497" on="1"/>
        <pt x="323" y="506" on="1"/>
        <pt x="271" y="496" on="0"/>
        <pt x="216" y="417" on="0"/>
        <pt x="216" y="377" on="1"/>
        <pt x="216" y="311" on="0"/>
        <pt x="304" y="231" on="0"/>
        <pt x="367" y="231" on="1"/>
        <pt x="454" y="231" on="0"/>
        <pt x="561" y="351" on="0"/>
        <pt x="561" y="426" on="1"/>
        <pt x="561" y="520" on="0"/>
        <pt x="439" y="657" on="0"/>
        <pt x="329" y="657" on="1"/>
        <pt x="217" y="657" on="0"/>
        <pt x="62" y="483" on="0"/>
        <pt x="62" y="367" on="1"/>
        <pt x="62" y="232" on="0"/>
        <pt x="257" y="49" on="0"/>
        <pt x="374" y="49" on="1"/>
        <pt x="578" y="49" on="0"/>
        <pt x="690" y="365" on="0"/>
        <pt x="774" y="365" on="1"/>
        <pt x="790" y="365" on="0"/>
        <pt x="829" y="351" on="0"/>
        <pt x="845" y="336" on="1"/>
        <pt x="844" y="431" on="0"/>
        <pt x="936" y="527" on="0"/>
        <pt x="980" y="527" on="1"/>
        <pt x="1014" y="527" on="0"/>
        <pt x="1084" y="495" on="0"/>
        <pt x="1109" y="469" on="1"/>
        <pt x="1146" y="536" on="0"/>
        <pt x="1489" y="765" on="0"/>
        <pt x="1624" y="765" on="1"/>
        <pt x="1731" y="765" on="0"/>
        <pt x="1849" y="679" on="0"/>
        <pt x="1849" y="613" on="1"/>
        <pt x="1849" y="585" on="0"/>
        <pt x="1805" y="521" on="0"/>
      </contour>
      <contour>
        <pt x="1787" y="620" on="1"/>
        <pt x="1787" y="663" on="0"/>
        <pt x="1675" y="721" on="0"/>
        <pt x="1614" y="708" on="1"/>
        <pt x="1613" y="701" on="1"/>
        <pt x="1667" y="691" on="0"/>
        <pt x="1719" y="579" on="0"/>
        <pt x="1748" y="579" on="1"/>
        <pt x="1768" y="579" on="0"/>
        <pt x="1787" y="602" on="0"/>
      </contour>
      <contour>
        <pt x="1674" y="519" on="1"/>
        <pt x="1534" y="600" on="0"/>
        <pt x="1256" y="542" on="0"/>
        <pt x="1154" y="435" on="1"/>
        <pt x="1180" y="399" on="1"/>
        <pt x="1287" y="468" on="0"/>
        <pt x="1550" y="528" on="0"/>
        <pt x="1670" y="508" on="1"/>
      </contour>
      <contour>
        <pt x="1811" y="307" on="1"/>
        <pt x="1836" y="307" on="0"/>
        <pt x="1859" y="334" on="0"/>
        <pt x="1859" y="356" on="1"/>
        <pt x="1859" y="385" on="0"/>
        <pt x="1774" y="468" on="0"/>
        <pt x="1670" y="464" on="1"/>
        <pt x="1669" y="457" on="1"/>
        <pt x="1729" y="440" on="0"/>
        <pt x="1762" y="307" on="0"/>
      </contour>
      <contour>
        <pt x="1113" y="207" on="1"/>
        <pt x="1135" y="207" on="0"/>
        <pt x="1156" y="235" on="0"/>
        <pt x="1156" y="262" on="1"/>
        <pt x="1156" y="313" on="0"/>
        <pt x="1062" y="443" on="0"/>
        <pt x="1020" y="443" on="1"/>
        <pt x="1001" y="443" on="0"/>
        <pt x="978" y="417" on="0"/>
        <pt x="978" y="395" on="1"/>
        <pt x="978" y="349" on="0"/>
        <pt x="1073" y="207" on="0"/>
      </contour>
      <contour>
        <pt x="1672" y="275" on="1"/>
        <pt x="1676" y="284" on="1"/>
        <pt x="1583" y="371" on="0"/>
        <pt x="1305" y="415" on="0"/>
        <pt x="1207" y="347" on="1"/>
        <pt x="1218" y="310" on="1"/>
        <pt x="1281" y="327" on="0"/>
        <pt x="1576" y="315" on="0"/>
      </contour>
      <contour>
        <pt x="646" y="47" on="1"/>
        <pt x="728" y="75" on="0"/>
        <pt x="827" y="145" on="0"/>
        <pt x="848" y="174" on="1"/>
        <pt x="855" y="184" on="0"/>
        <pt x="863" y="205" on="0"/>
        <pt x="863" y="215" on="1"/>
        <pt x="863" y="225" on="0"/>
        <pt x="855" y="241" on="0"/>
        <pt x="848" y="248" on="1"/>
        <pt x="841" y="255" on="0"/>
        <pt x="822" y="265" on="0"/>
        <pt x="807" y="265" on="1"/>
        <pt x="765" y="265" on="0"/>
        <pt x="716" y="120" on="0"/>
        <pt x="641" y="54" on="1"/>
      </contour>
      <contour>
        <pt x="1791" y="24" on="1"/>
        <pt x="1814" y="24" on="0"/>
        <pt x="1839" y="48" on="0"/>
        <pt x="1839" y="70" on="1"/>
        <pt x="1839" y="114" on="0"/>
        <pt x="1723" y="209" on="0"/>
        <pt x="1624" y="231" on="1"/>
        <pt x="1621" y="223" on="1"/>
        <pt x="1701" y="186" on="0"/>
        <pt x="1742" y="24" on="0"/>
      </contour>
    </TTGlyph>
    <TTGlyph name="N" xMin="-3" yMin="-49" xMax="1925" yMax="765">
      <contour>
        <pt x="1925" y="359" on="1"/>
        <pt x="1925" y="308" on="0"/>
        <pt x="1845" y="226" on="0"/>
        <pt x="1763" y="202" on="1"/>
        <pt x="1805" y="195" on="0"/>
        <pt x="1849" y="131" on="0"/>
        <pt x="1849" y="103" on="1"/>
        <pt x="1849" y="37" on="0"/>
        <pt x="1731" y="-49" on="0"/>
        <pt x="1624" y="-49" on="1"/>
        <pt x="1489" y="-49" on="0"/>
        <pt x="1146" y="180" on="0"/>
        <pt x="1109" y="247" on="1"/>
        <pt x="1084" y="221" on="0"/>
        <pt x="1014" y="189" on="0"/>
        <pt x="980" y="189" on="1"/>
        <pt x="936" y="189" on="0"/>
        <pt x="844" y="285" on="0"/>
        <pt x="845" y="380" on="1"/>
        <pt x="829" y="365" on="0"/>
        <pt x="790" y="351" on="0"/>
        <pt x="774" y="351" on="1"/>
        <pt x="690" y="351" on="0"/>
        <pt x="578" y="667" on="0"/>
        <pt x="374" y="667" on="1"/>
        <pt x="257" y="667" on="0"/>
        <pt x="62" y="484" on="0"/>
        <pt x="62" y="349" on="1"/>
        <pt x="62" y="233" on="0"/>
        <pt x="217" y="59" on="0"/>
        <pt x="329" y="59" on="1"/>
        <pt x="439" y="59" on="0"/>
        <pt x="561" y="196" on="0"/>
        <pt x="561" y="290" on="1"/>
        <pt x="561" y="365" on="0"/>
        <pt x="454" y="485" on="0"/>
        <pt x="367" y="485" on="1"/>
        <pt x="304" y="485" on="0"/>
        <pt x="216" y="405" on="0"/>
        <pt x="216" y="339" on="1"/>
        <pt x="216" y="299" on="0"/>
        <pt x="271" y="220" on="0"/>
        <pt x="323" y="210" on="1"/>
        <pt x="327" y="219" on="1"/>
        <pt x="302" y="232" on="0"/>
        <pt x="276" y="279" on="0"/>
        <pt x="276" y="302" on="1"/>
        <pt x="276" y="348" on="0"/>
        <pt x="334" y="397" on="0"/>
        <pt x="376" y="397" on="1"/>
        <pt x="419" y="397" on="0"/>
        <pt x="477" y="334" on="0"/>
        <pt x="477" y="294" on="1"/>
        <pt x="477" y="234" on="0"/>
        <pt x="390" y="161" on="0"/>
        <pt x="334" y="161" on="1"/>
        <pt x="253" y="161" on="0"/>
        <pt x="156" y="272" on="0"/>
        <pt x="156" y="351" on="1"/>
        <pt x="156" y="436" on="0"/>
        <pt x="279" y="542" on="0"/>
        <pt x="367" y="542" on="1"/>
        <pt x="483" y="542" on="0"/>
        <pt x="627" y="383" on="0"/>
        <pt x="627" y="290" on="1"/>
        <pt x="627" y="168" on="0"/>
        <pt x="459" y="2" on="0"/>
        <pt x="329" y="2" on="1"/>
        <pt x="179" y="2" on="0"/>
        <pt x="-3" y="226" on="0"/>
        <pt x="-3" y="349" on="1"/>
        <pt x="-3" y="509" on="0"/>
        <pt x="226" y="751" on="0"/>
        <pt x="463" y="751" on="1"/>
        <pt x="591" y="751" on="0"/>
        <pt x="851" y="636" on="0"/>
        <pt x="919" y="543" on="1"/>
        <pt x="946" y="583" on="0"/>
        <pt x="1029" y="632" on="0"/>
        <pt x="1069" y="632" on="1"/>
        <pt x="1132" y="632" on="0"/>
        <pt x="1218" y="547" on="0"/>
        <pt x="1222" y="463" on="1"/>
        <pt x="1491" y="463" on="0"/>
        <pt x="1600" y="765" on="0"/>
        <pt x="1765" y="765" on="1"/>
        <pt x="1829" y="765" on="0"/>
        <pt x="1905" y="694" on="0"/>
        <pt x="1905" y="639" on="1"/>
        <pt x="1905" y="594" on="0"/>
        <pt x="1842" y="512" on="0"/>
        <pt x="1770" y="476" on="1"/>
        <pt x="1845" y="476" on="0"/>
        <pt x="1925" y="412" on="0"/>
      </contour>
      <contour>
        <pt x="1839" y="646" on="1"/>
        <pt x="1839" y="668" on="0"/>
        <pt x="1814" y="692" on="0"/>
        <pt x="1791" y="692" on="1"/>
        <pt x="1742" y="692" on="0"/>
        <pt x="1701" y="530" on="0"/>
        <pt x="1621" y="493" on="1"/>
        <pt x="1624" y="485" on="1"/>
        <pt x="1723" y="507" on="0"/>
        <pt x="1839" y="602" on="0"/>
      </contour>
      <contour>
        <pt x="646" y="669" on="1"/>
        <pt x="641" y="662" on="1"/>
        <pt x="716" y="596" on="0"/>
        <pt x="765" y="451" on="0"/>
        <pt x="807" y="451" on="1"/>
        <pt x="822" y="451" on="0"/>
        <pt x="841" y="461" on="0"/>
        <pt x="848" y="468" on="1"/>
        <pt x="855" y="475" on="0"/>
        <pt x="863" y="491" on="0"/>
        <pt x="863" y="501" on="1"/>
        <pt x="863" y="511" on="0"/>
        <pt x="855" y="532" on="0"/>
        <pt x="848" y="542" on="1"/>
        <pt x="827" y="571" on="0"/>
        <pt x="728" y="641" on="0"/>
      </contour>
      <contour>
        <pt x="1156" y="454" on="1"/>
        <pt x="1156" y="481" on="0"/>
        <pt x="1135" y="509" on="0"/>
        <pt x="1113" y="509" on="1"/>
        <pt x="1073" y="509" on="0"/>
        <pt x="978" y="367" on="0"/>
        <pt x="978" y="321" on="1"/>
        <pt x="978" y="299" on="0"/>
        <pt x="1001" y="273" on="0"/>
        <pt x="1020" y="273" on="1"/>
        <pt x="1062" y="273" on="0"/>
        <pt x="1156" y="403" on="0"/>
      </contour>
      <contour>
        <pt x="1672" y="441" on="1"/>
        <pt x="1576" y="401" on="0"/>
        <pt x="1281" y="389" on="0"/>
        <pt x="1218" y="406" on="1"/>
        <pt x="1207" y="369" on="1"/>
        <pt x="1305" y="301" on="0"/>
        <pt x="1583" y="345" on="0"/>
        <pt x="1676" y="432" on="1"/>
      </contour>
      <contour>
        <pt x="1859" y="360" on="1"/>
        <pt x="1859" y="382" on="0"/>
        <pt x="1836" y="409" on="0"/>
        <pt x="1811" y="409" on="1"/>
        <pt x="1762" y="409" on="0"/>
        <pt x="1729" y="276" on="0"/>
        <pt x="1669" y="259" on="1"/>
        <pt x="1670" y="252" on="1"/>
        <pt x="1774" y="248" on="0"/>
        <pt x="1859" y="331" on="0"/>
      </contour>
      <contour>
        <pt x="1154" y="281" on="1"/>
        <pt x="1256" y="174" on="0"/>
        <pt x="1534" y="116" on="0"/>
        <pt x="1674" y="197" on="1"/>
        <pt x="1670" y="208" on="1"/>
        <pt x="1550" y="188" on="0"/>
        <pt x="1287" y="248" on="0"/>
        <pt x="1180" y="317" on="1"/>
      </contour>
      <contour>
        <pt x="1614" y="8" on="1"/>
        <pt x="1675" y="-5" on="0"/>
        <pt x="1787" y="53" on="0"/>
        <pt x="1787" y="96" on="1"/>
        <pt x="1787" y="114" on="0"/>
        <pt x="1768" y="137" on="0"/>
        <pt x="1748" y="137" on="1"/>
        <pt x="1719" y="137" on="0"/>
        <pt x="1667" y="25" on="0"/>
        <pt x="1613" y="15" on="1"/>
      </contour>
    </TTGlyph>
    <TTGlyph name="O" xMin="-3" yMin="-17" xMax="2422" yMax="780">
      <contour>
        <pt x="1792" y="431" on="1"/>
        <pt x="1867" y="396" on="0"/>
        <pt x="2016" y="384" on="0"/>
        <pt x="2052" y="396" on="1"/>
        <pt x="2056" y="388" on="1"/>
        <pt x="1990" y="292" on="0"/>
        <pt x="1748" y="220" on="0"/>
        <pt x="1697" y="236" on="1"/>
        <pt x="1737" y="219" on="0"/>
        <pt x="1794" y="172" on="0"/>
        <pt x="1800" y="149" on="1"/>
        <pt x="1711" y="92" on="0"/>
        <pt x="1442" y="68" on="0"/>
        <pt x="1355" y="126" on="1"/>
        <pt x="1389" y="95" on="0"/>
        <pt x="1427" y="34" on="0"/>
        <pt x="1427" y="3" on="1"/>
        <pt x="1285" y="-17" on="0"/>
        <pt x="1062" y="37" on="0"/>
        <pt x="960" y="102" on="1"/>
        <pt x="971" y="79" on="0"/>
        <pt x="982" y="38" on="0"/>
        <pt x="981" y="23" on="1"/>
        <pt x="832" y="-4" on="0"/>
        <pt x="679" y="106" on="0"/>
        <pt x="617" y="135" on="1"/>
        <pt x="623" y="92" on="0"/>
        <pt x="606" y="28" on="0"/>
        <pt x="589" y="23" on="1"/>
        <pt x="561" y="75" on="0"/>
        <pt x="436" y="145" on="0"/>
        <pt x="291" y="154" on="1"/>
        <pt x="162" y="164" on="0"/>
        <pt x="-3" y="315" on="0"/>
        <pt x="-3" y="439" on="1"/>
        <pt x="-3" y="541" on="0"/>
        <pt x="124" y="692" on="0"/>
        <pt x="224" y="692" on="1"/>
        <pt x="280" y="692" on="0"/>
        <pt x="366" y="613" on="0"/>
        <pt x="366" y="560" on="1"/>
        <pt x="366" y="520" on="0"/>
        <pt x="306" y="457" on="0"/>
        <pt x="263" y="457" on="1"/>
        <pt x="221" y="457" on="0"/>
        <pt x="165" y="506" on="0"/>
        <pt x="165" y="548" on="1"/>
        <pt x="165" y="578" on="0"/>
        <pt x="192" y="620" on="0"/>
        <pt x="217" y="635" on="1"/>
        <pt x="213" y="643" on="1"/>
        <pt x="141" y="630" on="0"/>
        <pt x="55" y="522" on="0"/>
        <pt x="55" y="449" on="1"/>
        <pt x="55" y="359" on="0"/>
        <pt x="153" y="254" on="0"/>
        <pt x="235" y="254" on="1"/>
        <pt x="339" y="254" on="0"/>
        <pt x="454" y="432" on="0"/>
        <pt x="442" y="501" on="1"/>
        <pt x="450" y="508" on="1"/>
        <pt x="466" y="500" on="0"/>
        <pt x="515" y="453" on="0"/>
        <pt x="522" y="418" on="1"/>
        <pt x="567" y="515" on="0"/>
        <pt x="707" y="670" on="0"/>
        <pt x="810" y="700" on="1"/>
        <pt x="829" y="679" on="0"/>
        <pt x="824" y="576" on="0"/>
        <pt x="788" y="525" on="1"/>
        <pt x="886" y="645" on="0"/>
        <pt x="1115" y="780" on="0"/>
        <pt x="1295" y="767" on="1"/>
        <pt x="1297" y="745" on="0"/>
        <pt x="1283" y="688" on="0"/>
        <pt x="1263" y="660" on="1"/>
        <pt x="1339" y="714" on="0"/>
        <pt x="1564" y="749" on="0"/>
        <pt x="1633" y="726" on="1"/>
        <pt x="1630" y="707" on="0"/>
        <pt x="1612" y="664" on="0"/>
        <pt x="1596" y="641" on="1"/>
        <pt x="1694" y="701" on="0"/>
        <pt x="1873" y="703" on="0"/>
        <pt x="1915" y="687" on="1"/>
        <pt x="1917" y="653" on="0"/>
        <pt x="1897" y="579" on="0"/>
        <pt x="1855" y="530" on="1"/>
        <pt x="1911" y="562" on="0"/>
        <pt x="2044" y="630" on="0"/>
        <pt x="2134" y="630" on="1"/>
        <pt x="2255" y="630" on="0"/>
        <pt x="2422" y="457" on="0"/>
        <pt x="2422" y="346" on="1"/>
        <pt x="2422" y="251" on="0"/>
        <pt x="2300" y="107" on="0"/>
        <pt x="2195" y="107" on="1"/>
        <pt x="2132" y="107" on="0"/>
        <pt x="2052" y="187" on="0"/>
        <pt x="2052" y="239" on="1"/>
        <pt x="2052" y="279" on="0"/>
        <pt x="2109" y="343" on="0"/>
        <pt x="2153" y="343" on="1"/>
        <pt x="2195" y="343" on="0"/>
        <pt x="2253" y="293" on="0"/>
        <pt x="2253" y="247" on="1"/>
        <pt x="2253" y="225" on="0"/>
        <pt x="2227" y="177" on="0"/>
        <pt x="2202" y="164" on="1"/>
        <pt x="2204" y="155" on="1"/>
        <pt x="2272" y="164" on="0"/>
        <pt x="2362" y="265" on="0"/>
        <pt x="2362" y="334" on="1"/>
        <pt x="2362" y="425" on="0"/>
        <pt x="2235" y="565" on="0"/>
        <pt x="2127" y="565" on="1"/>
        <pt x="2039" y="565" on="0"/>
        <pt x="1876" y="466" on="0"/>
      </contour>
      <contour>
        <pt x="579" y="309" on="1"/>
        <pt x="625" y="351" on="0"/>
        <pt x="758" y="567" on="0"/>
        <pt x="770" y="617" on="1"/>
        <pt x="704" y="590" on="0"/>
        <pt x="576" y="410" on="0"/>
        <pt x="545" y="297" on="1"/>
        <pt x="549" y="286" on="1"/>
        <pt x="641" y="250" on="0"/>
        <pt x="771" y="127" on="0"/>
        <pt x="889" y="122" on="1"/>
        <pt x="892" y="126" on="1"/>
        <pt x="858" y="148" on="0"/>
        <pt x="764" y="252" on="0"/>
        <pt x="704" y="282" on="1"/>
        <pt x="723" y="295" on="0"/>
        <pt x="763" y="325" on="0"/>
        <pt x="784" y="341" on="1"/>
        <pt x="864" y="313" on="0"/>
        <pt x="1106" y="75" on="0"/>
        <pt x="1308" y="103" on="1"/>
        <pt x="1309" y="109" on="1"/>
        <pt x="1196" y="155" on="0"/>
        <pt x="1057" y="294" on="0"/>
        <pt x="996" y="325" on="1"/>
        <pt x="1022" y="338" on="0"/>
        <pt x="1079" y="368" on="0"/>
        <pt x="1108" y="384" on="1"/>
        <pt x="1233" y="350" on="0"/>
        <pt x="1387" y="171" on="0"/>
        <pt x="1537" y="171" on="1"/>
        <pt x="1562" y="171" on="0"/>
        <pt x="1638" y="190" on="0"/>
        <pt x="1668" y="203" on="1"/>
        <pt x="1667" y="209" on="1"/>
        <pt x="1544" y="218" on="0"/>
        <pt x="1410" y="324" on="0"/>
        <pt x="1339" y="364" on="1"/>
        <pt x="1364" y="380" on="0"/>
        <pt x="1412" y="401" on="0"/>
        <pt x="1434" y="401" on="1"/>
        <pt x="1536" y="401" on="0"/>
        <pt x="1673" y="311" on="0"/>
        <pt x="1765" y="311" on="1"/>
        <pt x="1791" y="311" on="0"/>
        <pt x="1840" y="328" on="0"/>
        <pt x="1874" y="346" on="1"/>
        <pt x="1875" y="352" on="1"/>
        <pt x="1703" y="389" on="0"/>
        <pt x="1594" y="438" on="0"/>
        <pt x="1455" y="421" on="1"/>
        <pt x="1453" y="424" on="1"/>
        <pt x="1567" y="474" on="0"/>
        <pt x="1823" y="608" on="0"/>
        <pt x="1863" y="639" on="1"/>
        <pt x="1862" y="642" on="1"/>
        <pt x="1709" y="653" on="0"/>
        <pt x="1391" y="432" on="0"/>
        <pt x="1329" y="370" on="1"/>
        <pt x="1292" y="391" on="0"/>
        <pt x="1198" y="406" on="0"/>
        <pt x="1136" y="395" on="1"/>
        <pt x="1135" y="397" on="1"/>
        <pt x="1245" y="461" on="0"/>
        <pt x="1480" y="616" on="0"/>
        <pt x="1550" y="668" on="1"/>
        <pt x="1549" y="673" on="1"/>
        <pt x="1374" y="678" on="0"/>
        <pt x="1076" y="441" on="0"/>
        <pt x="981" y="332" on="1"/>
        <pt x="950" y="346" on="0"/>
        <pt x="857" y="361" on="0"/>
        <pt x="803" y="354" on="1"/>
        <pt x="802" y="356" on="1"/>
        <pt x="918" y="444" on="0"/>
        <pt x="1169" y="651" on="0"/>
        <pt x="1217" y="696" on="1"/>
        <pt x="1216" y="700" on="1"/>
        <pt x="1135" y="698" on="0"/>
        <pt x="983" y="629" on="0"/>
        <pt x="931" y="583" on="1"/>
        <pt x="865" y="526" on="0"/>
        <pt x="727" y="364" on="0"/>
        <pt x="681" y="291" on="1"/>
        <pt x="664" y="298" on="0"/>
        <pt x="610" y="311" on="0"/>
        <pt x="580" y="308" on="1"/>
      </contour>
    </TTGlyph>
    <TTGlyph name="OE" xMin="-10" yMin="2" xMax="716" yMax="752">
      <contour>
        <pt x="-10" y="341" on="1"/>
        <pt x="-10" y="413" on="1"/>
        <pt x="231" y="481" on="1"/>
        <pt x="318" y="752" on="1"/>
        <pt x="388" y="752" on="1"/>
        <pt x="475" y="481" on="1"/>
        <pt x="716" y="413" on="1"/>
        <pt x="716" y="341" on="1"/>
        <pt x="475" y="273" on="1"/>
        <pt x="388" y="2" on="1"/>
        <pt x="318" y="2" on="1"/>
        <pt x="231" y="273" on="1"/>
      </contour>
      <contour>
        <pt x="284" y="313" on="1"/>
        <pt x="354" y="72" on="1"/>
        <pt x="425" y="313" on="1"/>
        <pt x="658" y="377" on="1"/>
        <pt x="422" y="441" on="1"/>
        <pt x="352" y="682" on="1"/>
        <pt x="281" y="441" on="1"/>
        <pt x="48" y="377" on="1"/>
      </contour>
    </TTGlyph>
    <TTGlyph name="Oslash" xMin="-3" yMin="-21" xMax="755" yMax="776">
      <contour>
        <pt x="376" y="-21" on="1"/>
        <pt x="211" y="-21" on="0"/>
        <pt x="-3" y="214" on="0"/>
        <pt x="-3" y="377" on="1"/>
        <pt x="-3" y="540" on="0"/>
        <pt x="211" y="776" on="0"/>
        <pt x="376" y="776" on="1"/>
        <pt x="541" y="776" on="0"/>
        <pt x="755" y="540" on="0"/>
        <pt x="755" y="377" on="1"/>
        <pt x="755" y="214" on="0"/>
        <pt x="541" y="-21" on="0"/>
      </contour>
      <contour>
        <pt x="57" y="377" on="1"/>
        <pt x="57" y="351" on="0"/>
        <pt x="64" y="301" on="0"/>
        <pt x="71" y="277" on="1"/>
        <pt x="84" y="274" on="0"/>
        <pt x="115" y="267" on="0"/>
        <pt x="131" y="263" on="1"/>
        <pt x="127" y="282" on="0"/>
        <pt x="121" y="322" on="0"/>
        <pt x="121" y="342" on="1"/>
        <pt x="121" y="453" on="0"/>
        <pt x="266" y="614" on="0"/>
        <pt x="376" y="614" on="1"/>
        <pt x="487" y="614" on="0"/>
        <pt x="631" y="453" on="0"/>
        <pt x="631" y="342" on="1"/>
        <pt x="631" y="322" on="0"/>
        <pt x="625" y="282" on="0"/>
        <pt x="621" y="263" on="1"/>
        <pt x="637" y="267" on="0"/>
        <pt x="669" y="274" on="0"/>
        <pt x="682" y="277" on="1"/>
        <pt x="688" y="301" on="0"/>
        <pt x="695" y="351" on="0"/>
        <pt x="695" y="377" on="1"/>
        <pt x="695" y="516" on="0"/>
        <pt x="515" y="718" on="0"/>
        <pt x="376" y="718" on="1"/>
        <pt x="238" y="718" on="0"/>
        <pt x="57" y="516" on="0"/>
      </contour>
      <contour>
        <pt x="180" y="341" on="1"/>
        <pt x="180" y="317" on="0"/>
        <pt x="189" y="272" on="0"/>
        <pt x="197" y="252" on="1"/>
        <pt x="210" y="250" on="0"/>
        <pt x="238" y="245" on="0"/>
        <pt x="252" y="244" on="1"/>
        <pt x="248" y="257" on="0"/>
        <pt x="242" y="286" on="0"/>
        <pt x="242" y="302" on="1"/>
        <pt x="242" y="362" on="0"/>
        <pt x="313" y="451" on="0"/>
        <pt x="376" y="451" on="1"/>
        <pt x="439" y="451" on="0"/>
        <pt x="510" y="362" on="0"/>
        <pt x="510" y="302" on="1"/>
        <pt x="510" y="286" on="0"/>
        <pt x="504" y="257" on="0"/>
        <pt x="500" y="244" on="1"/>
        <pt x="514" y="245" on="0"/>
        <pt x="543" y="250" on="0"/>
        <pt x="556" y="252" on="1"/>
        <pt x="563" y="272" on="0"/>
        <pt x="572" y="317" on="0"/>
        <pt x="572" y="341" on="1"/>
        <pt x="572" y="428" on="0"/>
        <pt x="466" y="557" on="0"/>
        <pt x="376" y="557" on="1"/>
        <pt x="286" y="557" on="0"/>
        <pt x="180" y="428" on="0"/>
      </contour>
      <contour>
        <pt x="376" y="236" on="1"/>
        <pt x="391" y="236" on="0"/>
        <pt x="422" y="237" on="0"/>
        <pt x="437" y="238" on="1"/>
        <pt x="445" y="250" on="0"/>
        <pt x="455" y="281" on="0"/>
        <pt x="455" y="298" on="1"/>
        <pt x="455" y="338" on="0"/>
        <pt x="414" y="393" on="0"/>
        <pt x="376" y="393" on="1"/>
        <pt x="338" y="393" on="0"/>
        <pt x="297" y="338" on="0"/>
        <pt x="297" y="298" on="1"/>
        <pt x="297" y="281" on="0"/>
        <pt x="307" y="250" on="0"/>
        <pt x="315" y="238" on="1"/>
        <pt x="330" y="237" on="0"/>
        <pt x="361" y="236" on="0"/>
      </contour>
    </TTGlyph>
    <TTGlyph name="P" xMin="-3" yMin="-26" xMax="2422" yMax="771">
      <contour>
        <pt x="1792" y="323" on="1"/>
        <pt x="1876" y="288" on="0"/>
        <pt x="2039" y="189" on="0"/>
        <pt x="2127" y="189" on="1"/>
        <pt x="2235" y="189" on="0"/>
        <pt x="2362" y="329" on="0"/>
        <pt x="2362" y="420" on="1"/>
        <pt x="2362" y="489" on="0"/>
        <pt x="2272" y="590" on="0"/>
        <pt x="2204" y="599" on="1"/>
        <pt x="2202" y="590" on="1"/>
        <pt x="2227" y="577" on="0"/>
        <pt x="2253" y="529" on="0"/>
        <pt x="2253" y="507" on="1"/>
        <pt x="2253" y="461" on="0"/>
        <pt x="2195" y="411" on="0"/>
        <pt x="2153" y="411" on="1"/>
        <pt x="2109" y="411" on="0"/>
        <pt x="2052" y="475" on="0"/>
        <pt x="2052" y="515" on="1"/>
        <pt x="2052" y="567" on="0"/>
        <pt x="2132" y="647" on="0"/>
        <pt x="2195" y="647" on="1"/>
        <pt x="2300" y="647" on="0"/>
        <pt x="2422" y="503" on="0"/>
        <pt x="2422" y="408" on="1"/>
        <pt x="2422" y="297" on="0"/>
        <pt x="2255" y="124" on="0"/>
        <pt x="2134" y="124" on="1"/>
        <pt x="2044" y="124" on="0"/>
        <pt x="1911" y="192" on="0"/>
        <pt x="1855" y="224" on="1"/>
        <pt x="1897" y="175" on="0"/>
        <pt x="1917" y="101" on="0"/>
        <pt x="1915" y="67" on="1"/>
        <pt x="1873" y="51" on="0"/>
        <pt x="1694" y="53" on="0"/>
        <pt x="1596" y="113" on="1"/>
        <pt x="1612" y="90" on="0"/>
        <pt x="1630" y="47" on="0"/>
        <pt x="1633" y="28" on="1"/>
        <pt x="1564" y="5" on="0"/>
        <pt x="1339" y="40" on="0"/>
        <pt x="1263" y="94" on="1"/>
        <pt x="1283" y="66" on="0"/>
        <pt x="1297" y="9" on="0"/>
        <pt x="1295" y="-13" on="1"/>
        <pt x="1115" y="-26" on="0"/>
        <pt x="886" y="109" on="0"/>
        <pt x="788" y="229" on="1"/>
        <pt x="824" y="178" on="0"/>
        <pt x="829" y="75" on="0"/>
        <pt x="810" y="54" on="1"/>
        <pt x="707" y="84" on="0"/>
        <pt x="567" y="239" on="0"/>
        <pt x="522" y="336" on="1"/>
        <pt x="515" y="301" on="0"/>
        <pt x="466" y="254" on="0"/>
        <pt x="450" y="246" on="1"/>
        <pt x="442" y="253" on="1"/>
        <pt x="454" y="322" on="0"/>
        <pt x="339" y="500" on="0"/>
        <pt x="235" y="500" on="1"/>
        <pt x="153" y="500" on="0"/>
        <pt x="55" y="395" on="0"/>
        <pt x="55" y="305" on="1"/>
        <pt x="55" y="232" on="0"/>
        <pt x="141" y="124" on="0"/>
        <pt x="213" y="111" on="1"/>
        <pt x="217" y="119" on="1"/>
        <pt x="192" y="134" on="0"/>
        <pt x="165" y="176" on="0"/>
        <pt x="165" y="206" on="1"/>
        <pt x="165" y="248" on="0"/>
        <pt x="221" y="297" on="0"/>
        <pt x="263" y="297" on="1"/>
        <pt x="306" y="297" on="0"/>
        <pt x="366" y="234" on="0"/>
        <pt x="366" y="194" on="1"/>
        <pt x="366" y="141" on="0"/>
        <pt x="280" y="62" on="0"/>
        <pt x="224" y="62" on="1"/>
        <pt x="124" y="62" on="0"/>
        <pt x="-3" y="213" on="0"/>
        <pt x="-3" y="315" on="1"/>
        <pt x="-3" y="439" on="0"/>
        <pt x="162" y="590" on="0"/>
        <pt x="291" y="600" on="1"/>
        <pt x="436" y="609" on="0"/>
        <pt x="561" y="679" on="0"/>
        <pt x="589" y="731" on="1"/>
        <pt x="606" y="726" on="0"/>
        <pt x="623" y="662" on="0"/>
        <pt x="617" y="619" on="1"/>
        <pt x="679" y="648" on="0"/>
        <pt x="832" y="758" on="0"/>
        <pt x="981" y="731" on="1"/>
        <pt x="982" y="716" on="0"/>
        <pt x="971" y="675" on="0"/>
        <pt x="960" y="652" on="1"/>
        <pt x="1062" y="717" on="0"/>
        <pt x="1285" y="771" on="0"/>
        <pt x="1427" y="751" on="1"/>
        <pt x="1427" y="720" on="0"/>
        <pt x="1389" y="659" on="0"/>
        <pt x="1355" y="628" on="1"/>
        <pt x="1442" y="686" on="0"/>
        <pt x="1711" y="662" on="0"/>
        <pt x="1800" y="605" on="1"/>
        <pt x="1794" y="582" on="0"/>
        <pt x="1737" y="535" on="0"/>
        <pt x="1697" y="518" on="1"/>
        <pt x="1748" y="534" on="0"/>
        <pt x="1990" y="462" on="0"/>
        <pt x="2056" y="366" on="1"/>
        <pt x="2052" y="358" on="1"/>
        <pt x="2016" y="370" on="0"/>
        <pt x="1867" y="358" on="0"/>
      </contour>
      <contour>
        <pt x="579" y="445" on="1"/>
        <pt x="580" y="446" on="1"/>
        <pt x="610" y="443" on="0"/>
        <pt x="664" y="456" on="0"/>
        <pt x="681" y="463" on="1"/>
        <pt x="727" y="390" on="0"/>
        <pt x="865" y="228" on="0"/>
        <pt x="931" y="171" on="1"/>
        <pt x="983" y="125" on="0"/>
        <pt x="1135" y="56" on="0"/>
        <pt x="1216" y="54" on="1"/>
        <pt x="1217" y="58" on="1"/>
        <pt x="1169" y="103" on="0"/>
        <pt x="918" y="310" on="0"/>
        <pt x="802" y="398" on="1"/>
        <pt x="803" y="400" on="1"/>
        <pt x="857" y="393" on="0"/>
        <pt x="950" y="408" on="0"/>
        <pt x="981" y="422" on="1"/>
        <pt x="1076" y="313" on="0"/>
        <pt x="1374" y="76" on="0"/>
        <pt x="1549" y="81" on="1"/>
        <pt x="1550" y="86" on="1"/>
        <pt x="1480" y="138" on="0"/>
        <pt x="1245" y="293" on="0"/>
        <pt x="1135" y="357" on="1"/>
        <pt x="1136" y="359" on="1"/>
        <pt x="1198" y="348" on="0"/>
        <pt x="1292" y="363" on="0"/>
        <pt x="1329" y="384" on="1"/>
        <pt x="1391" y="322" on="0"/>
        <pt x="1709" y="101" on="0"/>
        <pt x="1862" y="112" on="1"/>
        <pt x="1863" y="115" on="1"/>
        <pt x="1823" y="146" on="0"/>
        <pt x="1567" y="280" on="0"/>
        <pt x="1453" y="330" on="1"/>
        <pt x="1455" y="333" on="1"/>
        <pt x="1594" y="316" on="0"/>
        <pt x="1703" y="365" on="0"/>
        <pt x="1875" y="402" on="1"/>
        <pt x="1874" y="408" on="1"/>
        <pt x="1840" y="426" on="0"/>
        <pt x="1791" y="443" on="0"/>
        <pt x="1765" y="443" on="1"/>
        <pt x="1673" y="443" on="0"/>
        <pt x="1536" y="353" on="0"/>
        <pt x="1434" y="353" on="1"/>
        <pt x="1412" y="353" on="0"/>
        <pt x="1364" y="374" on="0"/>
        <pt x="1339" y="390" on="1"/>
        <pt x="1410" y="430" on="0"/>
        <pt x="1544" y="536" on="0"/>
        <pt x="1667" y="545" on="1"/>
        <pt x="1668" y="551" on="1"/>
        <pt x="1638" y="564" on="0"/>
        <pt x="1562" y="583" on="0"/>
        <pt x="1537" y="583" on="1"/>
        <pt x="1387" y="583" on="0"/>
        <pt x="1233" y="404" on="0"/>
        <pt x="1108" y="370" on="1"/>
        <pt x="1079" y="386" on="0"/>
        <pt x="1022" y="416" on="0"/>
        <pt x="996" y="429" on="1"/>
        <pt x="1057" y="460" on="0"/>
        <pt x="1196" y="599" on="0"/>
        <pt x="1309" y="645" on="1"/>
        <pt x="1308" y="651" on="1"/>
        <pt x="1106" y="679" on="0"/>
        <pt x="864" y="441" on="0"/>
        <pt x="784" y="413" on="1"/>
        <pt x="763" y="429" on="0"/>
        <pt x="723" y="459" on="0"/>
        <pt x="704" y="472" on="1"/>
        <pt x="764" y="502" on="0"/>
        <pt x="858" y="606" on="0"/>
        <pt x="892" y="628" on="1"/>
        <pt x="889" y="632" on="1"/>
        <pt x="771" y="627" on="0"/>
        <pt x="641" y="504" on="0"/>
        <pt x="549" y="468" on="1"/>
        <pt x="545" y="457" on="1"/>
        <pt x="576" y="344" on="0"/>
        <pt x="704" y="164" on="0"/>
        <pt x="770" y="137" on="1"/>
        <pt x="758" y="187" on="0"/>
        <pt x="625" y="403" on="0"/>
      </contour>
    </TTGlyph>
    <TTGlyph name="Q" xMin="-3" yMin="5" xMax="2093" yMax="814">
      <contour>
        <pt x="445" y="595" on="1"/>
        <pt x="511" y="517" on="0"/>
        <pt x="436" y="338" on="0"/>
        <pt x="384" y="290" on="1"/>
        <pt x="321" y="232" on="0"/>
        <pt x="190" y="179" on="0"/>
        <pt x="127" y="208" on="1"/>
        <pt x="100" y="221" on="0"/>
        <pt x="77" y="252" on="0"/>
        <pt x="67" y="271" on="1"/>
        <pt x="56" y="271" on="1"/>
        <pt x="55" y="217" on="0"/>
        <pt x="134" y="83" on="0"/>
        <pt x="236" y="83" on="1"/>
        <pt x="358" y="83" on="0"/>
        <pt x="559" y="258" on="0"/>
        <pt x="668" y="375" on="1"/>
        <pt x="832" y="551" on="0"/>
        <pt x="1224" y="785" on="0"/>
        <pt x="1465" y="785" on="1"/>
        <pt x="1769" y="785" on="0"/>
        <pt x="2093" y="495" on="0"/>
        <pt x="2093" y="326" on="1"/>
        <pt x="2093" y="198" on="0"/>
        <pt x="1955" y="43" on="0"/>
        <pt x="1859" y="43" on="1"/>
        <pt x="1762" y="43" on="0"/>
        <pt x="1660" y="158" on="0"/>
        <pt x="1660" y="219" on="1"/>
        <pt x="1660" y="266" on="0"/>
        <pt x="1719" y="327" on="0"/>
        <pt x="1759" y="327" on="1"/>
        <pt x="1795" y="327" on="0"/>
        <pt x="1856" y="274" on="0"/>
        <pt x="1856" y="230" on="1"/>
        <pt x="1856" y="207" on="0"/>
        <pt x="1813" y="141" on="0"/>
        <pt x="1759" y="146" on="1"/>
        <pt x="1757" y="136" on="1"/>
        <pt x="1773" y="112" on="0"/>
        <pt x="1835" y="97" on="0"/>
        <pt x="1858" y="97" on="1"/>
        <pt x="1928" y="97" on="0"/>
        <pt x="2034" y="224" on="0"/>
        <pt x="2034" y="322" on="1"/>
        <pt x="2034" y="419" on="0"/>
        <pt x="1925" y="536" on="0"/>
        <pt x="1860" y="543" on="1"/>
        <pt x="1781" y="536" on="0"/>
        <pt x="1485" y="231" on="0"/>
        <pt x="1283" y="231" on="1"/>
        <pt x="1220" y="231" on="0"/>
        <pt x="1095" y="268" on="0"/>
        <pt x="1052" y="296" on="1"/>
        <pt x="1046" y="283" on="1"/>
        <pt x="1092" y="246" on="0"/>
        <pt x="1118" y="128" on="0"/>
        <pt x="1102" y="51" on="1"/>
        <pt x="1078" y="45" on="1"/>
        <pt x="1038" y="120" on="0"/>
        <pt x="947" y="172" on="0"/>
        <pt x="886" y="169" on="1"/>
        <pt x="732" y="161" on="0"/>
        <pt x="509" y="5" on="0"/>
        <pt x="294" y="5" on="1"/>
        <pt x="147" y="5" on="0"/>
        <pt x="-3" y="175" on="0"/>
        <pt x="-3" y="272" on="1"/>
        <pt x="-3" y="376" on="0"/>
        <pt x="79" y="527" on="0"/>
        <pt x="133" y="573" on="1"/>
        <pt x="197" y="627" on="0"/>
        <pt x="385" y="667" on="0"/>
      </contour>
      <contour>
        <pt x="912" y="314" on="1"/>
        <pt x="911" y="319" on="1"/>
        <pt x="950" y="340" on="0"/>
        <pt x="1024" y="380" on="0"/>
        <pt x="1061" y="399" on="1"/>
        <pt x="1207" y="371" on="0"/>
        <pt x="1537" y="498" on="0"/>
        <pt x="1587" y="538" on="1"/>
        <pt x="1583" y="547" on="1"/>
        <pt x="1518" y="521" on="0"/>
        <pt x="1309" y="446" on="0"/>
        <pt x="1134" y="436" on="1"/>
        <pt x="1330" y="533" on="0"/>
        <pt x="1698" y="628" on="0"/>
        <pt x="1908" y="594" on="1"/>
        <pt x="1908" y="600" on="1"/>
        <pt x="1643" y="707" on="0"/>
        <pt x="1065" y="464" on="0"/>
        <pt x="797" y="315" on="1"/>
        <pt x="792" y="319" on="1"/>
        <pt x="1056" y="559" on="0"/>
        <pt x="1471" y="704" on="0"/>
        <pt x="1637" y="694" on="1"/>
        <pt x="1637" y="702" on="1"/>
        <pt x="1233" y="814" on="0"/>
        <pt x="597" y="159" on="0"/>
        <pt x="423" y="81" on="1"/>
        <pt x="427" y="75" on="1"/>
        <pt x="537" y="97" on="0"/>
        <pt x="786" y="250" on="0"/>
        <pt x="886" y="250" on="1"/>
        <pt x="927" y="250" on="0"/>
        <pt x="990" y="225" on="0"/>
        <pt x="1018" y="198" on="1"/>
        <pt x="1023" y="201" on="1"/>
        <pt x="1020" y="221" on="0"/>
        <pt x="978" y="301" on="0"/>
      </contour>
      <contour>
        <pt x="108" y="317" on="1"/>
        <pt x="124" y="304" on="0"/>
        <pt x="229" y="327" on="0"/>
        <pt x="292" y="393" on="1"/>
        <pt x="351" y="454" on="0"/>
        <pt x="371" y="555" on="0"/>
        <pt x="357" y="572" on="1"/>
        <pt x="338" y="596" on="0"/>
        <pt x="213" y="572" on="0"/>
        <pt x="156" y="513" on="1"/>
        <pt x="104" y="459" on="0"/>
        <pt x="83" y="337" on="0"/>
      </contour>
      <contour>
        <pt x="1697" y="532" on="1"/>
        <pt x="1689" y="538" on="1"/>
        <pt x="1438" y="365" on="0"/>
        <pt x="1120" y="347" on="0"/>
        <pt x="1102" y="349" on="1"/>
        <pt x="1099" y="340" on="1"/>
        <pt x="1245" y="271" on="0"/>
        <pt x="1557" y="401" on="0"/>
      </contour>
    </TTGlyph>
    <TTGlyph name="R" xMin="-3" yMin="-62" xMax="2093" yMax="747">
      <contour>
        <pt x="445" y="157" on="1"/>
        <pt x="385" y="85" on="0"/>
        <pt x="197" y="125" on="0"/>
        <pt x="133" y="179" on="1"/>
        <pt x="79" y="225" on="0"/>
        <pt x="-3" y="376" on="0"/>
        <pt x="-3" y="480" on="1"/>
        <pt x="-3" y="577" on="0"/>
        <pt x="147" y="747" on="0"/>
        <pt x="294" y="747" on="1"/>
        <pt x="509" y="747" on="0"/>
        <pt x="732" y="591" on="0"/>
        <pt x="886" y="583" on="1"/>
        <pt x="947" y="580" on="0"/>
        <pt x="1038" y="632" on="0"/>
        <pt x="1078" y="707" on="1"/>
        <pt x="1102" y="701" on="1"/>
        <pt x="1118" y="624" on="0"/>
        <pt x="1092" y="506" on="0"/>
        <pt x="1046" y="469" on="1"/>
        <pt x="1052" y="456" on="1"/>
        <pt x="1095" y="484" on="0"/>
        <pt x="1220" y="521" on="0"/>
        <pt x="1283" y="521" on="1"/>
        <pt x="1485" y="521" on="0"/>
        <pt x="1781" y="216" on="0"/>
        <pt x="1860" y="209" on="1"/>
        <pt x="1925" y="216" on="0"/>
        <pt x="2034" y="333" on="0"/>
        <pt x="2034" y="430" on="1"/>
        <pt x="2034" y="528" on="0"/>
        <pt x="1928" y="655" on="0"/>
        <pt x="1858" y="655" on="1"/>
        <pt x="1835" y="655" on="0"/>
        <pt x="1773" y="640" on="0"/>
        <pt x="1757" y="616" on="1"/>
        <pt x="1759" y="606" on="1"/>
        <pt x="1813" y="611" on="0"/>
        <pt x="1856" y="545" on="0"/>
        <pt x="1856" y="522" on="1"/>
        <pt x="1856" y="478" on="0"/>
        <pt x="1795" y="425" on="0"/>
        <pt x="1759" y="425" on="1"/>
        <pt x="1719" y="425" on="0"/>
        <pt x="1660" y="486" on="0"/>
        <pt x="1660" y="533" on="1"/>
        <pt x="1660" y="594" on="0"/>
        <pt x="1762" y="709" on="0"/>
        <pt x="1859" y="709" on="1"/>
        <pt x="1955" y="709" on="0"/>
        <pt x="2093" y="554" on="0"/>
        <pt x="2093" y="426" on="1"/>
        <pt x="2093" y="257" on="0"/>
        <pt x="1769" y="-33" on="0"/>
        <pt x="1465" y="-33" on="1"/>
        <pt x="1224" y="-33" on="0"/>
        <pt x="832" y="201" on="0"/>
        <pt x="668" y="377" on="1"/>
        <pt x="559" y="494" on="0"/>
        <pt x="358" y="669" on="0"/>
        <pt x="236" y="669" on="1"/>
        <pt x="134" y="669" on="0"/>
        <pt x="55" y="535" on="0"/>
        <pt x="56" y="481" on="1"/>
        <pt x="67" y="481" on="1"/>
        <pt x="77" y="500" on="0"/>
        <pt x="100" y="531" on="0"/>
        <pt x="127" y="544" on="1"/>
        <pt x="190" y="573" on="0"/>
        <pt x="321" y="520" on="0"/>
        <pt x="384" y="462" on="1"/>
        <pt x="436" y="414" on="0"/>
        <pt x="511" y="235" on="0"/>
      </contour>
      <contour>
        <pt x="912" y="438" on="1"/>
        <pt x="978" y="451" on="0"/>
        <pt x="1020" y="531" on="0"/>
        <pt x="1023" y="551" on="1"/>
        <pt x="1018" y="554" on="1"/>
        <pt x="990" y="527" on="0"/>
        <pt x="927" y="502" on="0"/>
        <pt x="886" y="502" on="1"/>
        <pt x="786" y="502" on="0"/>
        <pt x="537" y="655" on="0"/>
        <pt x="427" y="677" on="1"/>
        <pt x="423" y="671" on="1"/>
        <pt x="597" y="593" on="0"/>
        <pt x="1233" y="-62" on="0"/>
        <pt x="1637" y="50" on="1"/>
        <pt x="1637" y="58" on="1"/>
        <pt x="1471" y="48" on="0"/>
        <pt x="1056" y="193" on="0"/>
        <pt x="792" y="433" on="1"/>
        <pt x="797" y="437" on="1"/>
        <pt x="1065" y="288" on="0"/>
        <pt x="1643" y="45" on="0"/>
        <pt x="1908" y="152" on="1"/>
        <pt x="1908" y="158" on="1"/>
        <pt x="1698" y="124" on="0"/>
        <pt x="1330" y="219" on="0"/>
        <pt x="1134" y="316" on="1"/>
        <pt x="1309" y="306" on="0"/>
        <pt x="1518" y="231" on="0"/>
        <pt x="1583" y="205" on="1"/>
        <pt x="1587" y="214" on="1"/>
        <pt x="1537" y="254" on="0"/>
        <pt x="1207" y="381" on="0"/>
        <pt x="1061" y="353" on="1"/>
        <pt x="1024" y="372" on="0"/>
        <pt x="950" y="412" on="0"/>
        <pt x="911" y="433" on="1"/>
      </contour>
      <contour>
        <pt x="1697" y="220" on="1"/>
        <pt x="1557" y="351" on="0"/>
        <pt x="1245" y="481" on="0"/>
        <pt x="1099" y="412" on="1"/>
        <pt x="1102" y="403" on="1"/>
        <pt x="1120" y="405" on="0"/>
        <pt x="1438" y="387" on="0"/>
        <pt x="1689" y="214" on="1"/>
      </contour>
      <contour>
        <pt x="108" y="435" on="1"/>
        <pt x="83" y="415" on="0"/>
        <pt x="104" y="293" on="0"/>
        <pt x="156" y="239" on="1"/>
        <pt x="213" y="180" on="0"/>
        <pt x="338" y="156" on="0"/>
        <pt x="357" y="180" on="1"/>
        <pt x="371" y="197" on="0"/>
        <pt x="351" y="298" on="0"/>
        <pt x="292" y="359" on="1"/>
        <pt x="229" y="425" on="0"/>
        <pt x="124" y="448" on="0"/>
      </contour>
    </TTGlyph>
    <TTGlyph name="S" xMin="-3" yMin="-9" xMax="1727" yMax="823">
      <contour>
        <pt x="1412" y="559" on="1"/>
        <pt x="1169" y="559" on="0"/>
        <pt x="696" y="66" on="0"/>
        <pt x="373" y="66" on="1"/>
        <pt x="201" y="66" on="0"/>
        <pt x="-3" y="241" on="0"/>
        <pt x="-3" y="386" on="1"/>
        <pt x="-3" y="506" on="0"/>
        <pt x="138" y="635" on="0"/>
        <pt x="216" y="635" on="1"/>
        <pt x="273" y="635" on="0"/>
        <pt x="355" y="556" on="0"/>
        <pt x="355" y="496" on="1"/>
        <pt x="355" y="434" on="0"/>
        <pt x="271" y="359" on="0"/>
        <pt x="216" y="359" on="1"/>
        <pt x="158" y="359" on="0"/>
        <pt x="88" y="430" on="0"/>
        <pt x="91" y="490" on="1"/>
        <pt x="82" y="494" on="1"/>
        <pt x="75" y="485" on="0"/>
        <pt x="62" y="447" on="0"/>
        <pt x="62" y="412" on="1"/>
        <pt x="62" y="342" on="0"/>
        <pt x="154" y="270" on="0"/>
        <pt x="229" y="270" on="1"/>
        <pt x="434" y="270" on="0"/>
        <pt x="831" y="823" on="0"/>
        <pt x="1230" y="823" on="1"/>
        <pt x="1471" y="823" on="0"/>
        <pt x="1727" y="557" on="0"/>
        <pt x="1727" y="370" on="1"/>
        <pt x="1727" y="195" on="0"/>
        <pt x="1538" y="-9" on="0"/>
        <pt x="1427" y="-9" on="1"/>
        <pt x="1346" y="-9" on="0"/>
        <pt x="1225" y="94" on="0"/>
        <pt x="1225" y="181" on="1"/>
        <pt x="1225" y="275" on="0"/>
        <pt x="1348" y="385" on="0"/>
        <pt x="1427" y="385" on="1"/>
        <pt x="1510" y="385" on="0"/>
        <pt x="1611" y="275" on="0"/>
        <pt x="1607" y="197" on="1"/>
        <pt x="1621" y="190" on="1"/>
        <pt x="1637" y="216" on="0"/>
        <pt x="1661" y="292" on="0"/>
        <pt x="1661" y="348" on="1"/>
        <pt x="1661" y="451" on="0"/>
        <pt x="1527" y="559" on="0"/>
      </contour>
      <contour>
        <pt x="264" y="214" on="1"/>
        <pt x="235" y="214" on="0"/>
        <pt x="179" y="225" on="0"/>
        <pt x="156" y="235" on="1"/>
        <pt x="150" y="219" on="1"/>
        <pt x="192" y="198" on="0"/>
        <pt x="286" y="174" on="0"/>
        <pt x="342" y="174" on="1"/>
        <pt x="625" y="174" on="0"/>
        <pt x="1076" y="715" on="0"/>
        <pt x="1350" y="715" on="1"/>
        <pt x="1388" y="715" on="0"/>
        <pt x="1460" y="701" on="0"/>
        <pt x="1490" y="689" on="1"/>
        <pt x="1497" y="710" on="1"/>
        <pt x="1444" y="737" on="0"/>
        <pt x="1322" y="767" on="0"/>
        <pt x="1250" y="767" on="1"/>
        <pt x="884" y="767" on="0"/>
        <pt x="478" y="214" on="0"/>
      </contour>
      <contour>
        <pt x="214" y="579" on="1"/>
        <pt x="177" y="579" on="0"/>
        <pt x="125" y="534" on="0"/>
        <pt x="119" y="504" on="1"/>
        <pt x="125" y="496" on="1"/>
        <pt x="140" y="501" on="0"/>
        <pt x="189" y="510" on="0"/>
        <pt x="214" y="510" on="1"/>
        <pt x="240" y="510" on="0"/>
        <pt x="288" y="501" on="0"/>
        <pt x="304" y="496" on="1"/>
        <pt x="310" y="504" on="1"/>
        <pt x="304" y="534" on="0"/>
        <pt x="252" y="579" on="0"/>
      </contour>
      <contour>
        <pt x="1423" y="327" on="1"/>
        <pt x="1369" y="327" on="0"/>
        <pt x="1295" y="261" on="0"/>
        <pt x="1285" y="214" on="1"/>
        <pt x="1295" y="202" on="1"/>
        <pt x="1317" y="210" on="0"/>
        <pt x="1386" y="225" on="0"/>
        <pt x="1423" y="225" on="1"/>
        <pt x="1460" y="225" on="0"/>
        <pt x="1529" y="210" on="0"/>
        <pt x="1552" y="202" on="1"/>
        <pt x="1561" y="214" on="1"/>
        <pt x="1552" y="261" on="0"/>
        <pt x="1477" y="327" on="0"/>
      </contour>
    </TTGlyph>
    <TTGlyph name="T" xMin="-3" yMin="-67" xMax="1727" yMax="765">
      <contour>
        <pt x="1412" y="197" on="1"/>
        <pt x="1527" y="197" on="0"/>
        <pt x="1661" y="305" on="0"/>
        <pt x="1661" y="408" on="1"/>
        <pt x="1661" y="464" on="0"/>
        <pt x="1637" y="540" on="0"/>
        <pt x="1621" y="566" on="1"/>
        <pt x="1607" y="559" on="1"/>
        <pt x="1611" y="481" on="0"/>
        <pt x="1510" y="371" on="0"/>
        <pt x="1427" y="371" on="1"/>
        <pt x="1348" y="371" on="0"/>
        <pt x="1225" y="481" on="0"/>
        <pt x="1225" y="575" on="1"/>
        <pt x="1225" y="662" on="0"/>
        <pt x="1346" y="765" on="0"/>
        <pt x="1427" y="765" on="1"/>
        <pt x="1538" y="765" on="0"/>
        <pt x="1727" y="561" on="0"/>
        <pt x="1727" y="386" on="1"/>
        <pt x="1727" y="199" on="0"/>
        <pt x="1471" y="-67" on="0"/>
        <pt x="1230" y="-67" on="1"/>
        <pt x="831" y="-67" on="0"/>
        <pt x="434" y="486" on="0"/>
        <pt x="229" y="486" on="1"/>
        <pt x="154" y="486" on="0"/>
        <pt x="62" y="414" on="0"/>
        <pt x="62" y="344" on="1"/>
        <pt x="62" y="309" on="0"/>
        <pt x="75" y="271" on="0"/>
        <pt x="82" y="262" on="1"/>
        <pt x="91" y="266" on="1"/>
        <pt x="88" y="326" on="0"/>
        <pt x="158" y="397" on="0"/>
        <pt x="216" y="397" on="1"/>
        <pt x="271" y="397" on="0"/>
        <pt x="355" y="322" on="0"/>
        <pt x="355" y="260" on="1"/>
        <pt x="355" y="200" on="0"/>
        <pt x="273" y="121" on="0"/>
        <pt x="216" y="121" on="1"/>
        <pt x="138" y="121" on="0"/>
        <pt x="-3" y="250" on="0"/>
        <pt x="-3" y="370" on="1"/>
        <pt x="-3" y="515" on="0"/>
        <pt x="201" y="690" on="0"/>
        <pt x="373" y="690" on="1"/>
        <pt x="696" y="690" on="0"/>
        <pt x="1169" y="197" on="0"/>
      </contour>
      <contour>
        <pt x="1423" y="707" on="1"/>
        <pt x="1369" y="707" on="0"/>
        <pt x="1295" y="641" on="0"/>
        <pt x="1285" y="594" on="1"/>
        <pt x="1295" y="582" on="1"/>
        <pt x="1317" y="590" on="0"/>
        <pt x="1386" y="605" on="0"/>
        <pt x="1423" y="605" on="1"/>
        <pt x="1460" y="605" on="0"/>
        <pt x="1529" y="590" on="0"/>
        <pt x="1552" y="582" on="1"/>
        <pt x="1561" y="594" on="1"/>
        <pt x="1552" y="641" on="0"/>
        <pt x="1477" y="707" on="0"/>
      </contour>
      <contour>
        <pt x="294" y="594" on="1"/>
        <pt x="508" y="594" on="0"/>
        <pt x="914" y="89" on="0"/>
        <pt x="1280" y="89" on="1"/>
        <pt x="1352" y="89" on="0"/>
        <pt x="1474" y="119" on="0"/>
        <pt x="1527" y="146" on="1"/>
        <pt x="1520" y="167" on="1"/>
        <pt x="1490" y="155" on="0"/>
        <pt x="1418" y="141" on="0"/>
        <pt x="1380" y="141" on="1"/>
        <pt x="1103" y="141" on="0"/>
        <pt x="655" y="634" on="0"/>
        <pt x="372" y="634" on="1"/>
        <pt x="316" y="634" on="0"/>
        <pt x="222" y="610" on="0"/>
        <pt x="180" y="589" on="1"/>
        <pt x="186" y="573" on="1"/>
        <pt x="209" y="583" on="0"/>
        <pt x="265" y="594" on="0"/>
      </contour>
      <contour>
        <pt x="214" y="346" on="1"/>
        <pt x="176" y="346" on="0"/>
        <pt x="125" y="300" on="0"/>
        <pt x="119" y="268" on="1"/>
        <pt x="124" y="259" on="1"/>
        <pt x="140" y="265" on="0"/>
        <pt x="188" y="275" on="0"/>
        <pt x="214" y="275" on="1"/>
        <pt x="240" y="275" on="0"/>
        <pt x="288" y="265" on="0"/>
        <pt x="303" y="259" on="1"/>
        <pt x="311" y="268" on="1"/>
        <pt x="304" y="300" on="0"/>
        <pt x="253" y="346" on="0"/>
      </contour>
    </TTGlyph>
    <TTGlyph name="U" xMin="-3" yMin="-6" xMax="3738" yMax="756">
      <contour>
        <pt x="-3" y="350" on="1"/>
        <pt x="-3" y="541" on="0"/>
        <pt x="289" y="751" on="0"/>
        <pt x="559" y="751" on="1"/>
        <pt x="1160" y="751" on="0"/>
        <pt x="1460" y="112" on="0"/>
        <pt x="1641" y="113" on="1"/>
        <pt x="1649" y="127" on="1"/>
        <pt x="1574" y="164" on="0"/>
        <pt x="1481" y="296" on="0"/>
        <pt x="1481" y="381" on="1"/>
        <pt x="1481" y="549" on="0"/>
        <pt x="1801" y="751" on="0"/>
        <pt x="2066" y="751" on="1"/>
        <pt x="2612" y="751" on="0"/>
        <pt x="3133" y="110" on="0"/>
        <pt x="3377" y="110" on="1"/>
        <pt x="3494" y="110" on="0"/>
        <pt x="3672" y="270" on="0"/>
        <pt x="3672" y="405" on="1"/>
        <pt x="3672" y="520" on="0"/>
        <pt x="3518" y="694" on="0"/>
        <pt x="3405" y="694" on="1"/>
        <pt x="3296" y="694" on="0"/>
        <pt x="3174" y="557" on="0"/>
        <pt x="3174" y="463" on="1"/>
        <pt x="3174" y="388" on="0"/>
        <pt x="3290" y="265" on="0"/>
        <pt x="3377" y="265" on="1"/>
        <pt x="3440" y="265" on="0"/>
        <pt x="3519" y="348" on="0"/>
        <pt x="3519" y="414" on="1"/>
        <pt x="3519" y="454" on="0"/>
        <pt x="3464" y="533" on="0"/>
        <pt x="3411" y="543" on="1"/>
        <pt x="3408" y="534" on="1"/>
        <pt x="3433" y="521" on="0"/>
        <pt x="3459" y="475" on="0"/>
        <pt x="3459" y="452" on="1"/>
        <pt x="3459" y="406" on="0"/>
        <pt x="3401" y="357" on="0"/>
        <pt x="3359" y="357" on="1"/>
        <pt x="3315" y="357" on="0"/>
        <pt x="3258" y="420" on="0"/>
        <pt x="3258" y="460" on="1"/>
        <pt x="3258" y="512" on="0"/>
        <pt x="3345" y="592" on="0"/>
        <pt x="3401" y="592" on="1"/>
        <pt x="3482" y="592" on="0"/>
        <pt x="3579" y="473" on="0"/>
        <pt x="3579" y="402" on="1"/>
        <pt x="3579" y="318" on="0"/>
        <pt x="3452" y="208" on="0"/>
        <pt x="3377" y="208" on="1"/>
        <pt x="3261" y="208" on="0"/>
        <pt x="3108" y="370" on="0"/>
        <pt x="3108" y="463" on="1"/>
        <pt x="3108" y="585" on="0"/>
        <pt x="3275" y="751" on="0"/>
        <pt x="3405" y="751" on="1"/>
        <pt x="3556" y="751" on="0"/>
        <pt x="3738" y="527" on="0"/>
        <pt x="3738" y="405" on="1"/>
        <pt x="3738" y="214" on="0"/>
        <pt x="3446" y="2" on="0"/>
        <pt x="3176" y="2" on="1"/>
        <pt x="2580" y="2" on="0"/>
        <pt x="2086" y="635" on="0"/>
        <pt x="1924" y="637" on="1"/>
        <pt x="1919" y="625" on="1"/>
        <pt x="1993" y="583" on="0"/>
        <pt x="2076" y="455" on="0"/>
        <pt x="2076" y="372" on="1"/>
        <pt x="2076" y="204" on="0"/>
        <pt x="1756" y="2" on="0"/>
        <pt x="1491" y="2" on="1"/>
        <pt x="945" y="2" on="0"/>
        <pt x="602" y="644" on="0"/>
        <pt x="357" y="644" on="1"/>
        <pt x="241" y="644" on="0"/>
        <pt x="63" y="484" on="0"/>
        <pt x="63" y="349" on="1"/>
        <pt x="63" y="233" on="0"/>
        <pt x="217" y="59" on="0"/>
        <pt x="329" y="59" on="1"/>
        <pt x="439" y="59" on="0"/>
        <pt x="561" y="196" on="0"/>
        <pt x="561" y="290" on="1"/>
        <pt x="561" y="365" on="0"/>
        <pt x="444" y="488" on="0"/>
        <pt x="357" y="488" on="1"/>
        <pt x="294" y="488" on="0"/>
        <pt x="216" y="405" on="0"/>
        <pt x="216" y="339" on="1"/>
        <pt x="216" y="299" on="0"/>
        <pt x="271" y="220" on="0"/>
        <pt x="324" y="210" on="1"/>
        <pt x="327" y="219" on="1"/>
        <pt x="302" y="232" on="0"/>
        <pt x="276" y="279" on="0"/>
        <pt x="276" y="302" on="1"/>
        <pt x="276" y="348" on="0"/>
        <pt x="334" y="397" on="0"/>
        <pt x="376" y="397" on="1"/>
        <pt x="419" y="397" on="0"/>
        <pt x="477" y="334" on="0"/>
        <pt x="477" y="294" on="1"/>
        <pt x="477" y="241" on="0"/>
        <pt x="390" y="161" on="0"/>
        <pt x="334" y="161" on="1"/>
        <pt x="253" y="161" on="0"/>
        <pt x="156" y="281" on="0"/>
        <pt x="156" y="351" on="1"/>
        <pt x="156" y="436" on="0"/>
        <pt x="283" y="545" on="0"/>
        <pt x="357" y="545" on="1"/>
        <pt x="473" y="545" on="0"/>
        <pt x="627" y="383" on="0"/>
        <pt x="627" y="290" on="1"/>
        <pt x="627" y="168" on="0"/>
        <pt x="459" y="2" on="0"/>
        <pt x="329" y="2" on="1"/>
        <pt x="179" y="2" on="0"/>
        <pt x="-3" y="227" on="0"/>
      </contour>
      <contour>
        <pt x="454" y="679" on="1"/>
        <pt x="665" y="611" on="0"/>
        <pt x="1096" y="-6" on="0"/>
        <pt x="1602" y="59" on="1"/>
        <pt x="1604" y="72" on="1"/>
        <pt x="1403" y="106" on="0"/>
        <pt x="1073" y="752" on="0"/>
        <pt x="453" y="690" on="1"/>
      </contour>
      <contour>
        <pt x="1960" y="673" on="1"/>
        <pt x="2142" y="644" on="0"/>
        <pt x="2662" y="30" on="0"/>
        <pt x="3267" y="58" on="1"/>
        <pt x="3270" y="75" on="1"/>
        <pt x="3069" y="112" on="0"/>
        <pt x="2476" y="756" on="0"/>
        <pt x="1960" y="687" on="1"/>
      </contour>
      <contour>
        <pt x="3024" y="108" on="1"/>
        <pt x="2737" y="155" on="0"/>
        <pt x="2305" y="504" on="0"/>
        <pt x="2180" y="608" on="1"/>
        <pt x="2193" y="635" on="1"/>
        <pt x="2477" y="602" on="0"/>
        <pt x="2898" y="252" on="0"/>
        <pt x="3038" y="140" on="1"/>
      </contour>
      <contour>
        <pt x="1425" y="95" on="1"/>
        <pt x="1135" y="135" on="0"/>
        <pt x="816" y="465" on="0"/>
        <pt x="691" y="601" on="1"/>
        <pt x="708" y="631" on="1"/>
        <pt x="1024" y="583" on="0"/>
        <pt x="1296" y="235" on="0"/>
        <pt x="1436" y="119" on="1"/>
      </contour>
      <contour>
        <pt x="2251" y="578" on="1"/>
        <pt x="2251" y="566" on="0"/>
        <pt x="2268" y="549" on="0"/>
        <pt x="2281" y="549" on="1"/>
        <pt x="2293" y="549" on="0"/>
        <pt x="2310" y="566" on="0"/>
        <pt x="2310" y="578" on="1"/>
        <pt x="2310" y="590" on="0"/>
        <pt x="2293" y="608" on="0"/>
        <pt x="2281" y="608" on="1"/>
        <pt x="2268" y="608" on="0"/>
        <pt x="2251" y="590" on="0"/>
      </contour>
      <contour>
        <pt x="1547" y="377" on="1"/>
        <pt x="1547" y="281" on="0"/>
        <pt x="1682" y="145" on="0"/>
        <pt x="1778" y="145" on="1"/>
        <pt x="1874" y="145" on="0"/>
        <pt x="2010" y="281" on="0"/>
        <pt x="2010" y="377" on="1"/>
        <pt x="2010" y="473" on="0"/>
        <pt x="1874" y="608" on="0"/>
        <pt x="1778" y="608" on="1"/>
        <pt x="1682" y="608" on="0"/>
        <pt x="1547" y="473" on="0"/>
      </contour>
      <contour>
        <pt x="745" y="575" on="1"/>
        <pt x="745" y="564" on="0"/>
        <pt x="761" y="547" on="0"/>
        <pt x="772" y="547" on="1"/>
        <pt x="784" y="547" on="0"/>
        <pt x="800" y="564" on="0"/>
        <pt x="800" y="575" on="1"/>
        <pt x="800" y="586" on="0"/>
        <pt x="784" y="602" on="0"/>
        <pt x="772" y="602" on="1"/>
        <pt x="761" y="602" on="0"/>
        <pt x="745" y="586" on="0"/>
      </contour>
      <contour>
        <pt x="831" y="497" on="1"/>
        <pt x="831" y="473" on="0"/>
        <pt x="865" y="439" on="0"/>
        <pt x="889" y="439" on="1"/>
        <pt x="913" y="439" on="0"/>
        <pt x="947" y="473" on="0"/>
        <pt x="947" y="497" on="1"/>
        <pt x="947" y="521" on="0"/>
        <pt x="913" y="555" on="0"/>
        <pt x="889" y="555" on="1"/>
        <pt x="865" y="555" on="0"/>
        <pt x="831" y="521" on="0"/>
      </contour>
      <contour>
        <pt x="2363" y="501" on="1"/>
        <pt x="2363" y="479" on="0"/>
        <pt x="2395" y="446" on="0"/>
        <pt x="2418" y="446" on="1"/>
        <pt x="2440" y="446" on="0"/>
        <pt x="2472" y="479" on="0"/>
        <pt x="2472" y="501" on="1"/>
        <pt x="2472" y="523" on="0"/>
        <pt x="2440" y="555" on="0"/>
        <pt x="2418" y="555" on="1"/>
        <pt x="2395" y="555" on="0"/>
        <pt x="2363" y="523" on="0"/>
      </contour>
      <contour>
        <pt x="1947" y="377" on="1"/>
        <pt x="1947" y="307" on="0"/>
        <pt x="1848" y="208" on="0"/>
        <pt x="1778" y="208" on="1"/>
        <pt x="1709" y="208" on="0"/>
        <pt x="1610" y="307" on="0"/>
        <pt x="1610" y="377" on="1"/>
        <pt x="1610" y="446" on="0"/>
        <pt x="1709" y="546" on="0"/>
        <pt x="1778" y="546" on="1"/>
        <pt x="1848" y="546" on="0"/>
        <pt x="1947" y="446" on="0"/>
      </contour>
      <contour>
        <pt x="1770" y="249" on="1"/>
        <pt x="1787" y="249" on="1"/>
        <pt x="1808" y="325" on="1"/>
        <pt x="1885" y="305" on="1"/>
        <pt x="1893" y="320" on="1"/>
        <pt x="1838" y="377" on="1"/>
        <pt x="1893" y="433" on="1"/>
        <pt x="1885" y="448" on="1"/>
        <pt x="1808" y="429" on="1"/>
        <pt x="1787" y="505" on="1"/>
        <pt x="1770" y="505" on="1"/>
        <pt x="1748" y="429" on="1"/>
        <pt x="1672" y="448" on="1"/>
        <pt x="1663" y="433" on="1"/>
        <pt x="1718" y="377" on="1"/>
        <pt x="1663" y="320" on="1"/>
        <pt x="1672" y="305" on="1"/>
        <pt x="1748" y="325" on="1"/>
      </contour>
      <contour>
        <pt x="2528" y="383" on="1"/>
        <pt x="2528" y="353" on="0"/>
        <pt x="2570" y="312" on="0"/>
        <pt x="2599" y="312" on="1"/>
        <pt x="2628" y="312" on="0"/>
        <pt x="2670" y="353" on="0"/>
        <pt x="2670" y="383" on="1"/>
        <pt x="2670" y="412" on="0"/>
        <pt x="2628" y="454" on="0"/>
        <pt x="2599" y="454" on="1"/>
        <pt x="2570" y="454" on="0"/>
        <pt x="2528" y="412" on="0"/>
      </contour>
      <contour>
        <pt x="968" y="373" on="1"/>
        <pt x="968" y="340" on="0"/>
        <pt x="1015" y="293" on="0"/>
        <pt x="1048" y="293" on="1"/>
        <pt x="1081" y="293" on="0"/>
        <pt x="1128" y="340" on="0"/>
        <pt x="1128" y="373" on="1"/>
        <pt x="1128" y="406" on="0"/>
        <pt x="1081" y="453" on="0"/>
        <pt x="1048" y="453" on="1"/>
        <pt x="1015" y="453" on="0"/>
        <pt x="968" y="406" on="0"/>
      </contour>
      <contour>
        <pt x="2726" y="262" on="1"/>
        <pt x="2726" y="240" on="0"/>
        <pt x="2758" y="208" on="0"/>
        <pt x="2780" y="208" on="1"/>
        <pt x="2802" y="208" on="0"/>
        <pt x="2835" y="240" on="0"/>
        <pt x="2835" y="262" on="1"/>
        <pt x="2835" y="284" on="0"/>
        <pt x="2802" y="316" on="0"/>
        <pt x="2780" y="316" on="1"/>
        <pt x="2758" y="316" on="0"/>
        <pt x="2726" y="284" on="0"/>
      </contour>
      <contour>
        <pt x="1148" y="240" on="1"/>
        <pt x="1148" y="214" on="0"/>
        <pt x="1185" y="177" on="0"/>
        <pt x="1211" y="177" on="1"/>
        <pt x="1237" y="177" on="0"/>
        <pt x="1274" y="214" on="0"/>
        <pt x="1274" y="240" on="1"/>
        <pt x="1274" y="266" on="0"/>
        <pt x="1237" y="303" on="0"/>
        <pt x="1211" y="303" on="1"/>
        <pt x="1185" y="303" on="0"/>
        <pt x="1148" y="266" on="0"/>
      </contour>
      <contour>
        <pt x="2900" y="174" on="1"/>
        <pt x="2900" y="162" on="0"/>
        <pt x="2917" y="145" on="0"/>
        <pt x="2929" y="145" on="1"/>
        <pt x="2941" y="145" on="0"/>
        <pt x="2959" y="162" on="0"/>
        <pt x="2959" y="174" on="1"/>
        <pt x="2959" y="187" on="0"/>
        <pt x="2941" y="204" on="0"/>
        <pt x="2929" y="204" on="1"/>
        <pt x="2917" y="204" on="0"/>
        <pt x="2900" y="187" on="0"/>
      </contour>
      <contour>
        <pt x="1307" y="156" on="1"/>
        <pt x="1307" y="144" on="0"/>
        <pt x="1324" y="128" on="0"/>
        <pt x="1335" y="128" on="1"/>
        <pt x="1347" y="128" on="0"/>
        <pt x="1363" y="144" on="0"/>
        <pt x="1363" y="156" on="1"/>
        <pt x="1363" y="167" on="0"/>
        <pt x="1347" y="184" on="0"/>
        <pt x="1335" y="184" on="1"/>
        <pt x="1324" y="184" on="0"/>
        <pt x="1307" y="167" on="0"/>
      </contour>
    </TTGlyph>
    <TTGlyph name="Uacute" xMin="0" yMin="-1" xMax="761" yMax="753">
      <contour>
        <pt x="0" y="-1" on="1"/>
        <pt x="0" y="753" on="1"/>
        <pt x="761" y="753" on="1"/>
        <pt x="761" y="-1" on="1"/>
      </contour>
      <contour>
        <pt x="292" y="262" on="1"/>
        <pt x="292" y="235" on="0"/>
        <pt x="145" y="152" on="0"/>
        <pt x="145" y="106" on="1"/>
        <pt x="145" y="84" on="0"/>
        <pt x="178" y="62" on="0"/>
        <pt x="195" y="62" on="1"/>
        <pt x="243" y="62" on="0"/>
        <pt x="320" y="90" on="0"/>
        <pt x="381" y="90" on="1"/>
        <pt x="441" y="90" on="0"/>
        <pt x="518" y="62" on="0"/>
        <pt x="566" y="62" on="1"/>
        <pt x="583" y="62" on="0"/>
        <pt x="616" y="84" on="0"/>
        <pt x="616" y="106" on="1"/>
        <pt x="616" y="152" on="0"/>
        <pt x="469" y="235" on="0"/>
        <pt x="469" y="262" on="1"/>
        <pt x="469" y="272" on="0"/>
        <pt x="485" y="288" on="0"/>
        <pt x="495" y="288" on="1"/>
        <pt x="522" y="288" on="0"/>
        <pt x="617" y="147" on="0"/>
        <pt x="662" y="147" on="1"/>
        <pt x="685" y="147" on="0"/>
        <pt x="707" y="179" on="0"/>
        <pt x="707" y="196" on="1"/>
        <pt x="707" y="242" on="0"/>
        <pt x="679" y="317" on="0"/>
        <pt x="679" y="377" on="1"/>
        <pt x="679" y="436" on="0"/>
        <pt x="707" y="511" on="0"/>
        <pt x="707" y="557" on="1"/>
        <pt x="707" y="574" on="0"/>
        <pt x="685" y="606" on="0"/>
        <pt x="662" y="606" on="1"/>
        <pt x="617" y="606" on="0"/>
        <pt x="522" y="465" on="0"/>
        <pt x="495" y="465" on="1"/>
        <pt x="485" y="465" on="0"/>
        <pt x="469" y="481" on="0"/>
        <pt x="469" y="491" on="1"/>
        <pt x="469" y="518" on="0"/>
        <pt x="616" y="601" on="0"/>
        <pt x="616" y="647" on="1"/>
        <pt x="616" y="669" on="0"/>
        <pt x="583" y="691" on="0"/>
        <pt x="566" y="691" on="1"/>
        <pt x="518" y="691" on="0"/>
        <pt x="441" y="663" on="0"/>
        <pt x="381" y="663" on="1"/>
        <pt x="320" y="663" on="0"/>
        <pt x="243" y="691" on="0"/>
        <pt x="195" y="691" on="1"/>
        <pt x="178" y="691" on="0"/>
        <pt x="145" y="669" on="0"/>
        <pt x="145" y="647" on="1"/>
        <pt x="145" y="601" on="0"/>
        <pt x="292" y="518" on="0"/>
        <pt x="292" y="491" on="1"/>
        <pt x="292" y="481" on="0"/>
        <pt x="276" y="465" on="0"/>
        <pt x="266" y="465" on="1"/>
        <pt x="239" y="465" on="0"/>
        <pt x="144" y="606" on="0"/>
        <pt x="99" y="606" on="1"/>
        <pt x="76" y="606" on="0"/>
        <pt x="54" y="574" on="0"/>
        <pt x="54" y="557" on="1"/>
        <pt x="54" y="511" on="0"/>
        <pt x="82" y="436" on="0"/>
        <pt x="82" y="376" on="1"/>
        <pt x="82" y="317" on="0"/>
        <pt x="54" y="242" on="0"/>
        <pt x="54" y="196" on="1"/>
        <pt x="54" y="179" on="0"/>
        <pt x="76" y="147" on="0"/>
        <pt x="99" y="147" on="1"/>
        <pt x="144" y="147" on="0"/>
        <pt x="239" y="288" on="0"/>
        <pt x="266" y="288" on="1"/>
        <pt x="276" y="288" on="0"/>
        <pt x="292" y="272" on="0"/>
      </contour>
      <contour>
        <pt x="388" y="642" on="1"/>
        <pt x="394" y="623" on="0"/>
        <pt x="403" y="549" on="0"/>
        <pt x="402" y="528" on="1"/>
        <pt x="401" y="510" on="0"/>
        <pt x="359" y="514" on="0"/>
        <pt x="359" y="522" on="1"/>
        <pt x="359" y="550" on="0"/>
        <pt x="369" y="615" on="0"/>
        <pt x="377" y="642" on="1"/>
      </contour>
      <contour>
        <pt x="418" y="529" on="1"/>
        <pt x="428" y="548" on="0"/>
        <pt x="479" y="608" on="0"/>
        <pt x="491" y="615" on="1"/>
        <pt x="500" y="609" on="1"/>
        <pt x="495" y="587" on="0"/>
        <pt x="470" y="525" on="0"/>
        <pt x="449" y="502" on="1"/>
        <pt x="444" y="497" on="0"/>
        <pt x="412" y="514" on="0"/>
      </contour>
      <contour>
        <pt x="270" y="615" on="1"/>
        <pt x="282" y="608" on="0"/>
        <pt x="333" y="548" on="0"/>
        <pt x="343" y="529" on="1"/>
        <pt x="350" y="514" on="0"/>
        <pt x="317" y="497" on="0"/>
        <pt x="312" y="502" on="1"/>
        <pt x="291" y="525" on="0"/>
        <pt x="266" y="587" on="0"/>
        <pt x="261" y="609" on="1"/>
      </contour>
      <contour>
        <pt x="627" y="487" on="1"/>
        <pt x="620" y="475" on="0"/>
        <pt x="560" y="424" on="0"/>
        <pt x="541" y="414" on="1"/>
        <pt x="526" y="407" on="0"/>
        <pt x="509" y="440" on="0"/>
        <pt x="514" y="445" on="1"/>
        <pt x="537" y="466" on="0"/>
        <pt x="599" y="491" on="0"/>
        <pt x="621" y="496" on="1"/>
      </contour>
      <contour>
        <pt x="220" y="414" on="1"/>
        <pt x="201" y="424" on="0"/>
        <pt x="141" y="475" on="0"/>
        <pt x="134" y="487" on="1"/>
        <pt x="140" y="496" on="1"/>
        <pt x="162" y="491" on="0"/>
        <pt x="224" y="466" on="0"/>
        <pt x="247" y="445" on="1"/>
        <pt x="252" y="440" on="0"/>
        <pt x="235" y="408" on="0"/>
      </contour>
      <contour>
        <pt x="381" y="471" on="1"/>
        <pt x="420" y="471" on="0"/>
        <pt x="475" y="416" on="0"/>
        <pt x="475" y="377" on="1"/>
        <pt x="475" y="337" on="0"/>
        <pt x="420" y="282" on="0"/>
        <pt x="381" y="282" on="1"/>
        <pt x="341" y="282" on="0"/>
        <pt x="286" y="337" on="0"/>
        <pt x="286" y="377" on="1"/>
        <pt x="286" y="416" on="0"/>
        <pt x="341" y="471" on="0"/>
      </contour>
      <contour>
        <pt x="337" y="377" on="1"/>
        <pt x="337" y="359" on="0"/>
        <pt x="363" y="333" on="0"/>
        <pt x="381" y="333" on="1"/>
        <pt x="398" y="333" on="0"/>
        <pt x="424" y="359" on="0"/>
        <pt x="424" y="377" on="1"/>
        <pt x="424" y="394" on="0"/>
        <pt x="398" y="420" on="0"/>
        <pt x="381" y="420" on="1"/>
        <pt x="363" y="420" on="0"/>
        <pt x="337" y="394" on="0"/>
      </contour>
      <contour>
        <pt x="107" y="384" on="1"/>
        <pt x="126" y="390" on="0"/>
        <pt x="200" y="399" on="0"/>
        <pt x="221" y="398" on="1"/>
        <pt x="239" y="397" on="0"/>
        <pt x="235" y="355" on="0"/>
        <pt x="227" y="355" on="1"/>
        <pt x="199" y="355" on="0"/>
        <pt x="134" y="365" on="0"/>
        <pt x="107" y="373" on="1"/>
      </contour>
      <contour>
        <pt x="654" y="369" on="1"/>
        <pt x="635" y="363" on="0"/>
        <pt x="561" y="354" on="0"/>
        <pt x="540" y="355" on="1"/>
        <pt x="522" y="356" on="0"/>
        <pt x="526" y="398" on="0"/>
        <pt x="534" y="398" on="1"/>
        <pt x="562" y="398" on="0"/>
        <pt x="627" y="388" on="0"/>
        <pt x="654" y="380" on="1"/>
      </contour>
      <contour>
        <pt x="134" y="266" on="1"/>
        <pt x="141" y="278" on="0"/>
        <pt x="201" y="329" on="0"/>
        <pt x="220" y="339" on="1"/>
        <pt x="235" y="346" on="0"/>
        <pt x="252" y="313" on="0"/>
        <pt x="247" y="308" on="1"/>
        <pt x="224" y="287" on="0"/>
        <pt x="162" y="262" on="0"/>
        <pt x="140" y="257" on="1"/>
      </contour>
      <contour>
        <pt x="541" y="339" on="1"/>
        <pt x="560" y="329" on="0"/>
        <pt x="620" y="278" on="0"/>
        <pt x="627" y="266" on="1"/>
        <pt x="621" y="257" on="1"/>
        <pt x="599" y="262" on="0"/>
        <pt x="537" y="287" on="0"/>
        <pt x="514" y="308" on="1"/>
        <pt x="509" y="313" on="0"/>
        <pt x="526" y="345" on="0"/>
      </contour>
      <contour>
        <pt x="343" y="224" on="1"/>
        <pt x="333" y="205" on="0"/>
        <pt x="282" y="145" on="0"/>
        <pt x="270" y="138" on="1"/>
        <pt x="261" y="144" on="1"/>
        <pt x="266" y="166" on="0"/>
        <pt x="291" y="228" on="0"/>
        <pt x="312" y="251" on="1"/>
        <pt x="317" y="256" on="0"/>
        <pt x="350" y="239" on="0"/>
      </contour>
      <contour>
        <pt x="491" y="138" on="1"/>
        <pt x="479" y="145" on="0"/>
        <pt x="428" y="205" on="0"/>
        <pt x="418" y="224" on="1"/>
        <pt x="412" y="239" on="0"/>
        <pt x="444" y="256" on="0"/>
        <pt x="449" y="251" on="1"/>
        <pt x="470" y="228" on="0"/>
        <pt x="495" y="166" on="0"/>
        <pt x="500" y="144" on="1"/>
      </contour>
      <contour>
        <pt x="377" y="111" on="1"/>
        <pt x="369" y="138" on="0"/>
        <pt x="359" y="203" on="0"/>
        <pt x="359" y="231" on="1"/>
        <pt x="359" y="239" on="0"/>
        <pt x="401" y="243" on="0"/>
        <pt x="402" y="225" on="1"/>
        <pt x="403" y="204" on="0"/>
        <pt x="394" y="130" on="0"/>
        <pt x="388" y="111" on="1"/>
      </contour>
    </TTGlyph>
    <TTGlyph name="V" xMin="-3" yMin="-1" xMax="1682" yMax="755">
      <contour>
        <pt x="1585" y="575" on="1"/>
        <pt x="1571" y="568" on="1"/>
        <pt x="1572" y="497" on="0"/>
        <pt x="1486" y="397" on="0"/>
        <pt x="1407" y="397" on="1"/>
        <pt x="1335" y="397" on="0"/>
        <pt x="1224" y="497" on="0"/>
        <pt x="1224" y="582" on="1"/>
        <pt x="1224" y="662" on="0"/>
        <pt x="1333" y="755" on="0"/>
        <pt x="1407" y="755" on="1"/>
        <pt x="1508" y="755" on="0"/>
        <pt x="1682" y="569" on="0"/>
        <pt x="1682" y="411" on="1"/>
        <pt x="1682" y="241" on="0"/>
        <pt x="1440" y="-1" on="0"/>
        <pt x="1221" y="-1" on="1"/>
        <pt x="858" y="-1" on="0"/>
        <pt x="500" y="519" on="0"/>
        <pt x="261" y="519" on="1"/>
        <pt x="168" y="519" on="0"/>
        <pt x="59" y="412" on="0"/>
        <pt x="59" y="319" on="1"/>
        <pt x="59" y="270" on="0"/>
        <pt x="80" y="199" on="0"/>
        <pt x="94" y="179" on="1"/>
        <pt x="108" y="186" on="1"/>
        <pt x="107" y="257" on="0"/>
        <pt x="193" y="357" on="0"/>
        <pt x="272" y="357" on="1"/>
        <pt x="344" y="357" on="0"/>
        <pt x="455" y="257" on="0"/>
        <pt x="455" y="172" on="1"/>
        <pt x="455" y="92" on="0"/>
        <pt x="346" y="-1" on="0"/>
        <pt x="272" y="-1" on="1"/>
        <pt x="171" y="-1" on="0"/>
        <pt x="-3" y="185" on="0"/>
        <pt x="-3" y="343" on="1"/>
        <pt x="-3" y="513" on="0"/>
        <pt x="239" y="755" on="0"/>
        <pt x="458" y="755" on="1"/>
        <pt x="821" y="755" on="0"/>
        <pt x="1179" y="235" on="0"/>
        <pt x="1418" y="235" on="1"/>
        <pt x="1511" y="235" on="0"/>
        <pt x="1620" y="342" on="0"/>
        <pt x="1620" y="435" on="1"/>
        <pt x="1620" y="484" on="0"/>
        <pt x="1599" y="555" on="0"/>
      </contour>
      <contour>
        <pt x="1407" y="700" on="1"/>
        <pt x="1357" y="700" on="0"/>
        <pt x="1290" y="641" on="0"/>
        <pt x="1281" y="598" on="1"/>
        <pt x="1290" y="587" on="1"/>
        <pt x="1310" y="594" on="0"/>
        <pt x="1373" y="608" on="0"/>
        <pt x="1407" y="608" on="1"/>
        <pt x="1441" y="608" on="0"/>
        <pt x="1504" y="594" on="0"/>
        <pt x="1524" y="587" on="1"/>
        <pt x="1532" y="598" on="1"/>
        <pt x="1524" y="641" on="0"/>
        <pt x="1457" y="700" on="0"/>
      </contour>
      <contour>
        <pt x="1396" y="181" on="1"/>
        <pt x="1145" y="181" on="0"/>
        <pt x="791" y="697" on="0"/>
        <pt x="458" y="697" on="1"/>
        <pt x="392" y="697" on="0"/>
        <pt x="282" y="670" on="0"/>
        <pt x="233" y="645" on="1"/>
        <pt x="240" y="626" on="1"/>
        <pt x="267" y="637" on="0"/>
        <pt x="333" y="650" on="0"/>
        <pt x="367" y="650" on="1"/>
        <pt x="618" y="650" on="0"/>
        <pt x="972" y="134" on="0"/>
        <pt x="1305" y="134" on="1"/>
        <pt x="1371" y="134" on="0"/>
        <pt x="1481" y="161" on="0"/>
        <pt x="1530" y="186" on="1"/>
        <pt x="1523" y="205" on="1"/>
        <pt x="1496" y="194" on="0"/>
        <pt x="1430" y="181" on="0"/>
      </contour>
      <contour>
        <pt x="275" y="302" on="1"/>
        <pt x="226" y="302" on="0"/>
        <pt x="158" y="243" on="0"/>
        <pt x="150" y="200" on="1"/>
        <pt x="158" y="189" on="1"/>
        <pt x="179" y="196" on="0"/>
        <pt x="241" y="210" on="0"/>
        <pt x="275" y="210" on="1"/>
        <pt x="309" y="210" on="0"/>
        <pt x="372" y="196" on="0"/>
        <pt x="392" y="189" on="1"/>
        <pt x="401" y="200" on="1"/>
        <pt x="392" y="243" on="0"/>
        <pt x="325" y="302" on="0"/>
      </contour>
    </TTGlyph>
    <TTGlyph name="W" xMin="-5" yMin="-34" xMax="430" yMax="788">
      <contour>
        <pt x="430" y="382" on="1"/>
        <pt x="430" y="372" on="1"/>
        <pt x="382" y="278" on="0"/>
        <pt x="265" y="41" on="0"/>
        <pt x="230" y="-34" on="1"/>
        <pt x="195" y="-34" on="1"/>
        <pt x="160" y="41" on="0"/>
        <pt x="43" y="278" on="0"/>
        <pt x="-5" y="372" on="1"/>
        <pt x="-5" y="382" on="1"/>
        <pt x="43" y="476" on="0"/>
        <pt x="160" y="714" on="0"/>
        <pt x="195" y="788" on="1"/>
        <pt x="230" y="788" on="1"/>
        <pt x="265" y="714" on="0"/>
        <pt x="382" y="476" on="0"/>
      </contour>
      <contour>
        <pt x="205" y="83" on="1"/>
        <pt x="226" y="377" on="1"/>
        <pt x="205" y="671" on="1"/>
        <pt x="196" y="671" on="1"/>
        <pt x="174" y="623" on="0"/>
        <pt x="92" y="455" on="0"/>
        <pt x="58" y="377" on="1"/>
        <pt x="92" y="299" on="0"/>
        <pt x="174" y="130" on="0"/>
        <pt x="196" y="83" on="1"/>
      </contour>
    </TTGlyph>
    <TTGlyph name="X" xMin="-5" yMin="2" xMax="475" yMax="752">
      <contour>
        <pt x="216" y="2" on="1"/>
        <pt x="-5" y="365" on="1"/>
        <pt x="-5" y="389" on="1"/>
        <pt x="216" y="752" on="1"/>
        <pt x="254" y="752" on="1"/>
        <pt x="475" y="389" on="1"/>
        <pt x="475" y="365" on="1"/>
        <pt x="254" y="2" on="1"/>
      </contour>
      <contour>
        <pt x="53" y="377" on="1"/>
        <pt x="233" y="72" on="1"/>
        <pt x="237" y="72" on="1"/>
        <pt x="267" y="124" on="1"/>
        <pt x="269" y="128" on="0"/>
        <pt x="265" y="136" on="0"/>
        <pt x="259" y="138" on="1"/>
        <pt x="242" y="144" on="1"/>
        <pt x="227" y="149" on="0"/>
        <pt x="228" y="170" on="0"/>
        <pt x="242" y="172" on="1"/>
        <pt x="286" y="180" on="1"/>
        <pt x="295" y="181" on="0"/>
        <pt x="298" y="198" on="0"/>
        <pt x="289" y="201" on="1"/>
        <pt x="231" y="213" on="1"/>
        <pt x="213" y="217" on="0"/>
        <pt x="215" y="240" on="0"/>
        <pt x="234" y="242" on="1"/>
        <pt x="318" y="252" on="1"/>
        <pt x="329" y="254" on="0"/>
        <pt x="326" y="272" on="0"/>
        <pt x="319" y="273" on="1"/>
        <pt x="216" y="287" on="1"/>
        <pt x="197" y="290" on="0"/>
        <pt x="197" y="313" on="0"/>
        <pt x="216" y="315" on="1"/>
        <pt x="332" y="329" on="1"/>
        <pt x="341" y="330" on="0"/>
        <pt x="342" y="349" on="0"/>
        <pt x="333" y="350" on="1"/>
        <pt x="206" y="362" on="1"/>
        <pt x="193" y="363" on="0"/>
        <pt x="183" y="372" on="0"/>
        <pt x="183" y="377" on="1"/>
        <pt x="183" y="382" on="0"/>
        <pt x="193" y="391" on="0"/>
        <pt x="206" y="392" on="1"/>
        <pt x="328" y="404" on="1"/>
        <pt x="337" y="405" on="0"/>
        <pt x="336" y="424" on="0"/>
        <pt x="327" y="425" on="1"/>
        <pt x="216" y="439" on="1"/>
        <pt x="197" y="441" on="0"/>
        <pt x="197" y="464" on="0"/>
        <pt x="216" y="467" on="1"/>
        <pt x="319" y="481" on="1"/>
        <pt x="326" y="482" on="0"/>
        <pt x="329" y="500" on="0"/>
        <pt x="318" y="502" on="1"/>
        <pt x="234" y="512" on="1"/>
        <pt x="215" y="514" on="0"/>
        <pt x="213" y="537" on="0"/>
        <pt x="231" y="541" on="1"/>
        <pt x="289" y="553" on="1"/>
        <pt x="298" y="556" on="0"/>
        <pt x="295" y="573" on="0"/>
        <pt x="286" y="574" on="1"/>
        <pt x="242" y="582" on="1"/>
        <pt x="228" y="584" on="0"/>
        <pt x="227" y="605" on="0"/>
        <pt x="242" y="610" on="1"/>
        <pt x="260" y="616" on="1"/>
        <pt x="266" y="618" on="0"/>
        <pt x="270" y="626" on="0"/>
        <pt x="268" y="630" on="1"/>
        <pt x="237" y="682" on="1"/>
        <pt x="233" y="682" on="1"/>
      </contour>
    </TTGlyph>
    <TTGlyph name="Y" xMin="-17" yMin="117" xMax="693" yMax="637">
      <contour>
        <pt x="350" y="637" on="1"/>
        <pt x="693" y="396" on="1"/>
        <pt x="693" y="358" on="1"/>
        <pt x="350" y="117" on="1"/>
        <pt x="326" y="117" on="1"/>
        <pt x="-17" y="358" on="1"/>
        <pt x="-17" y="396" on="1"/>
        <pt x="326" y="637" on="1"/>
      </contour>
      <contour>
        <pt x="55" y="379" on="1"/>
        <pt x="55" y="375" on="1"/>
        <pt x="338" y="175" on="1"/>
        <pt x="621" y="375" on="1"/>
        <pt x="621" y="379" on="1"/>
      </contour>
    </TTGlyph>
    <TTGlyph name="Z" xMin="-17" yMin="117" xMax="693" yMax="637">
      <contour>
        <pt x="693" y="358" on="1"/>
        <pt x="350" y="117" on="1"/>
        <pt x="326" y="117" on="1"/>
        <pt x="-17" y="358" on="1"/>
        <pt x="-17" y="396" on="1"/>
        <pt x="326" y="637" on="1"/>
        <pt x="350" y="637" on="1"/>
        <pt x="693" y="396" on="1"/>
      </contour>
      <contour>
        <pt x="338" y="175" on="1"/>
        <pt x="621" y="375" on="1"/>
        <pt x="621" y="379" on="1"/>
        <pt x="584" y="405" on="1"/>
        <pt x="580" y="407" on="0"/>
        <pt x="573" y="403" on="0"/>
        <pt x="572" y="396" on="1"/>
        <pt x="568" y="381" on="1"/>
        <pt x="564" y="365" on="0"/>
        <pt x="543" y="366" on="0"/>
        <pt x="540" y="381" on="1"/>
        <pt x="531" y="429" on="1"/>
        <pt x="530" y="439" on="0"/>
        <pt x="512" y="442" on="0"/>
        <pt x="510" y="432" on="1"/>
        <pt x="498" y="368" on="1"/>
        <pt x="494" y="349" on="0"/>
        <pt x="472" y="350" on="0"/>
        <pt x="470" y="371" on="1"/>
        <pt x="461" y="450" on="1"/>
        <pt x="459" y="462" on="0"/>
        <pt x="441" y="459" on="0"/>
        <pt x="440" y="451" on="1"/>
        <pt x="426" y="351" on="1"/>
        <pt x="423" y="330" on="0"/>
        <pt x="402" y="330" on="0"/>
        <pt x="399" y="351" on="1"/>
        <pt x="385" y="461" on="1"/>
        <pt x="384" y="471" on="0"/>
        <pt x="366" y="471" on="0"/>
        <pt x="365" y="461" on="1"/>
        <pt x="353" y="340" on="1"/>
        <pt x="352" y="327" on="0"/>
        <pt x="342" y="316" on="0"/>
        <pt x="338" y="316" on="1"/>
        <pt x="333" y="316" on="0"/>
        <pt x="324" y="327" on="0"/>
        <pt x="323" y="340" on="1"/>
        <pt x="310" y="461" on="1"/>
        <pt x="309" y="471" on="0"/>
        <pt x="291" y="471" on="0"/>
        <pt x="290" y="461" on="1"/>
        <pt x="277" y="351" on="1"/>
        <pt x="275" y="330" on="0"/>
        <pt x="252" y="330" on="0"/>
        <pt x="249" y="351" on="1"/>
        <pt x="236" y="451" on="1"/>
        <pt x="235" y="459" on="0"/>
        <pt x="217" y="462" on="0"/>
        <pt x="215" y="450" on="1"/>
        <pt x="206" y="371" on="1"/>
        <pt x="204" y="350" on="0"/>
        <pt x="182" y="349" on="0"/>
        <pt x="178" y="368" on="1"/>
        <pt x="166" y="432" on="1"/>
        <pt x="164" y="442" on="0"/>
        <pt x="146" y="439" on="0"/>
        <pt x="145" y="429" on="1"/>
        <pt x="136" y="381" on="1"/>
        <pt x="133" y="366" on="0"/>
        <pt x="112" y="365" on="0"/>
        <pt x="108" y="381" on="1"/>
        <pt x="104" y="397" on="1"/>
        <pt x="103" y="404" on="0"/>
        <pt x="95" y="408" on="0"/>
        <pt x="92" y="406" on="1"/>
        <pt x="55" y="379" on="1"/>
        <pt x="55" y="375" on="1"/>
      </contour>
    </TTGlyph>
    <TTGlyph name="a" xMin="-3" yMin="59" xMax="545" yMax="695">
      <contour>
        <pt x="464" y="377" on="1"/>
        <pt x="464" y="352" on="0"/>
        <pt x="510" y="319" on="0"/>
        <pt x="541" y="319" on="1"/>
        <pt x="545" y="311" on="1"/>
        <pt x="422" y="117" on="1"/>
        <pt x="406" y="92" on="0"/>
        <pt x="382" y="59" on="0"/>
        <pt x="365" y="59" on="1"/>
        <pt x="351" y="59" on="0"/>
        <pt x="324" y="78" on="0"/>
        <pt x="324" y="94" on="1"/>
        <pt x="324" y="114" on="0"/>
        <pt x="350" y="143" on="0"/>
        <pt x="375" y="171" on="1"/>
        <pt x="475" y="280" on="1"/>
        <pt x="440" y="292" on="1"/>
        <pt x="277" y="172" on="1"/>
        <pt x="243" y="147" on="0"/>
        <pt x="195" y="115" on="0"/>
        <pt x="178" y="115" on="1"/>
        <pt x="157" y="115" on="0"/>
        <pt x="139" y="147" on="0"/>
        <pt x="139" y="157" on="1"/>
        <pt x="139" y="178" on="0"/>
        <pt x="181" y="205" on="0"/>
        <pt x="222" y="225" on="1"/>
        <pt x="409" y="316" on="1"/>
        <pt x="392" y="337" on="1"/>
        <pt x="201" y="284" on="1"/>
        <pt x="161" y="273" on="0"/>
        <pt x="67" y="242" on="0"/>
        <pt x="37" y="242" on="1"/>
        <pt x="18" y="242" on="0"/>
        <pt x="-3" y="267" on="0"/>
        <pt x="-3" y="286" on="1"/>
        <pt x="-3" y="317" on="0"/>
        <pt x="80" y="334" on="0"/>
        <pt x="184" y="346" on="1"/>
        <pt x="385" y="368" on="1"/>
        <pt x="385" y="386" on="1"/>
        <pt x="184" y="408" on="1"/>
        <pt x="80" y="420" on="0"/>
        <pt x="-3" y="437" on="0"/>
        <pt x="-3" y="468" on="1"/>
        <pt x="-3" y="487" on="0"/>
        <pt x="18" y="512" on="0"/>
        <pt x="37" y="512" on="1"/>
        <pt x="67" y="512" on="0"/>
        <pt x="161" y="481" on="0"/>
        <pt x="201" y="470" on="1"/>
        <pt x="392" y="417" on="1"/>
        <pt x="409" y="438" on="1"/>
        <pt x="222" y="529" on="1"/>
        <pt x="181" y="549" on="0"/>
        <pt x="139" y="576" on="0"/>
        <pt x="139" y="597" on="1"/>
        <pt x="139" y="607" on="0"/>
        <pt x="157" y="639" on="0"/>
        <pt x="178" y="639" on="1"/>
        <pt x="195" y="639" on="0"/>
        <pt x="243" y="607" on="0"/>
        <pt x="277" y="582" on="1"/>
        <pt x="440" y="462" on="1"/>
        <pt x="475" y="474" on="1"/>
        <pt x="375" y="583" on="1"/>
        <pt x="350" y="611" on="0"/>
        <pt x="324" y="640" on="0"/>
        <pt x="324" y="660" on="1"/>
        <pt x="324" y="676" on="0"/>
        <pt x="351" y="695" on="0"/>
        <pt x="365" y="695" on="1"/>
        <pt x="382" y="695" on="0"/>
        <pt x="406" y="662" on="0"/>
        <pt x="422" y="637" on="1"/>
        <pt x="545" y="443" on="1"/>
        <pt x="541" y="435" on="1"/>
        <pt x="510" y="435" on="0"/>
        <pt x="464" y="402" on="0"/>
      </contour>
    </TTGlyph>
    <TTGlyph name="ae" xMin="0" yMin="0" xMax="761" yMax="754">
      <contour>
        <pt x="761" y="0" on="1"/>
        <pt x="0" y="0" on="1"/>
        <pt x="0" y="754" on="1"/>
        <pt x="761" y="754" on="1"/>
      </contour>
      <contour>
        <pt x="66" y="66" on="1"/>
        <pt x="695" y="66" on="1"/>
        <pt x="695" y="687" on="1"/>
        <pt x="66" y="687" on="1"/>
      </contour>
      <contour>
        <pt x="640" y="116" on="1"/>
        <pt x="120" y="116" on="1"/>
        <pt x="120" y="638" on="1"/>
        <pt x="640" y="638" on="1"/>
      </contour>
      <contour>
        <pt x="166" y="162" on="1"/>
        <pt x="595" y="162" on="1"/>
        <pt x="595" y="592" on="1"/>
        <pt x="166" y="592" on="1"/>
      </contour>
      <contour>
        <pt x="480" y="194" on="1"/>
        <pt x="448" y="194" on="0"/>
        <pt x="404" y="223" on="0"/>
        <pt x="380" y="249" on="1"/>
        <pt x="357" y="223" on="0"/>
        <pt x="313" y="194" on="0"/>
        <pt x="281" y="194" on="1"/>
        <pt x="249" y="194" on="0"/>
        <pt x="198" y="242" on="0"/>
        <pt x="198" y="277" on="1"/>
        <pt x="198" y="311" on="0"/>
        <pt x="238" y="364" on="0"/>
        <pt x="253" y="377" on="1"/>
        <pt x="238" y="390" on="0"/>
        <pt x="198" y="443" on="0"/>
        <pt x="198" y="476" on="1"/>
        <pt x="198" y="512" on="0"/>
        <pt x="249" y="559" on="0"/>
        <pt x="281" y="559" on="1"/>
        <pt x="313" y="559" on="0"/>
        <pt x="357" y="531" on="0"/>
        <pt x="380" y="504" on="1"/>
        <pt x="404" y="531" on="0"/>
        <pt x="448" y="559" on="0"/>
        <pt x="480" y="559" on="1"/>
        <pt x="512" y="559" on="0"/>
        <pt x="563" y="512" on="0"/>
        <pt x="563" y="476" on="1"/>
        <pt x="563" y="443" on="0"/>
        <pt x="523" y="390" on="0"/>
        <pt x="508" y="377" on="1"/>
        <pt x="523" y="364" on="0"/>
        <pt x="563" y="311" on="0"/>
        <pt x="563" y="277" on="1"/>
        <pt x="563" y="242" on="0"/>
        <pt x="512" y="194" on="0"/>
      </contour>
      <contour>
        <pt x="288" y="398" on="1"/>
        <pt x="294" y="423" on="0"/>
        <pt x="332" y="461" on="0"/>
        <pt x="357" y="468" on="1"/>
        <pt x="332" y="478" on="0"/>
        <pt x="309" y="511" on="0"/>
        <pt x="284" y="511" on="1"/>
        <pt x="268" y="511" on="0"/>
        <pt x="247" y="491" on="0"/>
        <pt x="247" y="472" on="1"/>
        <pt x="247" y="451" on="0"/>
        <pt x="279" y="423" on="0"/>
      </contour>
      <contour>
        <pt x="472" y="398" on="1"/>
        <pt x="482" y="423" on="0"/>
        <pt x="514" y="451" on="0"/>
        <pt x="514" y="472" on="1"/>
        <pt x="514" y="491" on="0"/>
        <pt x="493" y="511" on="0"/>
        <pt x="477" y="511" on="1"/>
        <pt x="452" y="511" on="0"/>
        <pt x="429" y="478" on="0"/>
        <pt x="404" y="468" on="1"/>
        <pt x="429" y="461" on="0"/>
        <pt x="466" y="423" on="0"/>
      </contour>
      <contour>
        <pt x="380" y="334" on="1"/>
        <pt x="398" y="334" on="0"/>
        <pt x="423" y="359" on="0"/>
        <pt x="423" y="377" on="1"/>
        <pt x="423" y="394" on="0"/>
        <pt x="398" y="420" on="0"/>
        <pt x="380" y="420" on="1"/>
        <pt x="363" y="420" on="0"/>
        <pt x="337" y="394" on="0"/>
        <pt x="337" y="377" on="1"/>
        <pt x="337" y="359" on="0"/>
        <pt x="363" y="334" on="0"/>
      </contour>
      <contour>
        <pt x="284" y="242" on="1"/>
        <pt x="309" y="242" on="0"/>
        <pt x="332" y="275" on="0"/>
        <pt x="357" y="286" on="1"/>
        <pt x="332" y="292" on="0"/>
        <pt x="294" y="330" on="0"/>
        <pt x="288" y="355" on="1"/>
        <pt x="279" y="330" on="0"/>
        <pt x="247" y="303" on="0"/>
        <pt x="247" y="281" on="1"/>
        <pt x="247" y="262" on="0"/>
        <pt x="268" y="242" on="0"/>
      </contour>
      <contour>
        <pt x="477" y="242" on="1"/>
        <pt x="493" y="242" on="0"/>
        <pt x="514" y="262" on="0"/>
        <pt x="514" y="281" on="1"/>
        <pt x="514" y="303" on="0"/>
        <pt x="482" y="330" on="0"/>
        <pt x="472" y="355" on="1"/>
        <pt x="466" y="330" on="0"/>
        <pt x="429" y="292" on="0"/>
        <pt x="404" y="286" on="1"/>
        <pt x="429" y="275" on="0"/>
        <pt x="452" y="242" on="0"/>
      </contour>
    </TTGlyph>
    <TTGlyph name="ampersand" xMin="-3" yMin="-3" xMax="3315" yMax="727">
      <contour>
        <pt x="381" y="-3" on="1"/>
        <pt x="226" y="-3" on="0"/>
        <pt x="-3" y="197" on="0"/>
        <pt x="-3" y="373" on="1"/>
        <pt x="-3" y="522" on="0"/>
        <pt x="196" y="727" on="0"/>
        <pt x="339" y="727" on="1"/>
        <pt x="466" y="727" on="0"/>
        <pt x="611" y="559" on="0"/>
        <pt x="611" y="457" on="1"/>
        <pt x="611" y="371" on="0"/>
        <pt x="495" y="195" on="0"/>
        <pt x="379" y="195" on="1"/>
        <pt x="295" y="195" on="0"/>
        <pt x="201" y="306" on="0"/>
        <pt x="201" y="374" on="1"/>
        <pt x="201" y="442" on="0"/>
        <pt x="292" y="533" on="0"/>
        <pt x="360" y="533" on="1"/>
        <pt x="420" y="533" on="0"/>
        <pt x="504" y="453" on="0"/>
        <pt x="504" y="385" on="1"/>
        <pt x="504" y="375" on="0"/>
        <pt x="502" y="349" on="0"/>
        <pt x="498" y="339" on="1"/>
        <pt x="512" y="333" on="1"/>
        <pt x="528" y="353" on="0"/>
        <pt x="549" y="422" on="0"/>
        <pt x="549" y="456" on="1"/>
        <pt x="549" y="550" on="0"/>
        <pt x="424" y="670" on="0"/>
        <pt x="336" y="670" on="1"/>
        <pt x="220" y="670" on="0"/>
        <pt x="59" y="502" on="0"/>
        <pt x="59" y="374" on="1"/>
        <pt x="59" y="245" on="0"/>
        <pt x="228" y="58" on="0"/>
        <pt x="382" y="58" on="1"/>
        <pt x="548" y="58" on="0"/>
        <pt x="736" y="243" on="0"/>
        <pt x="736" y="397" on="1"/>
        <pt x="736" y="472" on="0"/>
        <pt x="694" y="592" on="0"/>
        <pt x="654" y="662" on="1"/>
        <pt x="673" y="685" on="1"/>
        <pt x="1532" y="498" on="0"/>
        <pt x="2685" y="413" on="0"/>
        <pt x="3315" y="413" on="1"/>
        <pt x="3315" y="341" on="1"/>
        <pt x="2664" y="342" on="0"/>
        <pt x="1581" y="265" on="0"/>
        <pt x="968" y="139" on="1"/>
        <pt x="739" y="92" on="0"/>
        <pt x="515" y="-3" on="0"/>
      </contour>
      <contour>
        <pt x="792" y="377" on="1"/>
        <pt x="2216" y="377" on="1"/>
        <pt x="2216" y="393" on="1"/>
        <pt x="1900" y="413" on="0"/>
        <pt x="1155" y="523" on="0"/>
        <pt x="743" y="613" on="1"/>
        <pt x="740" y="610" on="1"/>
        <pt x="768" y="556" on="0"/>
        <pt x="792" y="452" on="0"/>
      </contour>
      <contour>
        <pt x="348" y="346" on="1"/>
        <pt x="388" y="346" on="0"/>
        <pt x="439" y="391" on="0"/>
        <pt x="439" y="419" on="1"/>
        <pt x="439" y="450" on="0"/>
        <pt x="393" y="481" on="0"/>
        <pt x="362" y="481" on="1"/>
        <pt x="322" y="481" on="0"/>
        <pt x="271" y="436" on="0"/>
        <pt x="271" y="408" on="1"/>
        <pt x="271" y="377" on="0"/>
        <pt x="317" y="346" on="0"/>
      </contour>
    </TTGlyph>
    <TTGlyph name="aring" xMin="-3" yMin="-31" xMax="2947" yMax="784">
      <contour>
        <pt x="2001" y="141" on="1"/>
        <pt x="1472" y="-31" on="1"/>
        <pt x="943" y="141" on="1"/>
        <pt x="785" y="72" on="0"/>
        <pt x="482" y="-17" on="0"/>
        <pt x="351" y="-17" on="1"/>
        <pt x="138" y="-17" on="0"/>
        <pt x="-3" y="145" on="0"/>
        <pt x="-3" y="217" on="1"/>
        <pt x="-3" y="266" on="0"/>
        <pt x="48" y="352" on="0"/>
        <pt x="91" y="377" on="1"/>
        <pt x="48" y="401" on="0"/>
        <pt x="-3" y="487" on="0"/>
        <pt x="-3" y="536" on="1"/>
        <pt x="-3" y="608" on="0"/>
        <pt x="138" y="770" on="0"/>
        <pt x="351" y="770" on="1"/>
        <pt x="482" y="770" on="0"/>
        <pt x="785" y="681" on="0"/>
        <pt x="943" y="612" on="1"/>
        <pt x="1472" y="784" on="1"/>
        <pt x="2001" y="612" on="1"/>
        <pt x="2159" y="681" on="0"/>
        <pt x="2462" y="770" on="0"/>
        <pt x="2593" y="770" on="1"/>
        <pt x="2807" y="770" on="0"/>
        <pt x="2947" y="608" on="0"/>
        <pt x="2947" y="536" on="1"/>
        <pt x="2947" y="487" on="0"/>
        <pt x="2896" y="401" on="0"/>
        <pt x="2853" y="377" on="1"/>
        <pt x="2896" y="352" on="0"/>
        <pt x="2947" y="266" on="0"/>
        <pt x="2947" y="217" on="1"/>
        <pt x="2947" y="145" on="0"/>
        <pt x="2807" y="-17" on="0"/>
        <pt x="2593" y="-17" on="1"/>
        <pt x="2462" y="-17" on="0"/>
        <pt x="2159" y="72" on="0"/>
      </contour>
      <contour>
        <pt x="1919" y="575" on="1"/>
        <pt x="1472" y="720" on="1"/>
        <pt x="1025" y="575" on="1"/>
        <pt x="1040" y="568" on="0"/>
        <pt x="1071" y="552" on="0"/>
        <pt x="1087" y="545" on="1"/>
        <pt x="1472" y="670" on="1"/>
        <pt x="1857" y="545" on="1"/>
        <pt x="1873" y="552" on="0"/>
        <pt x="1904" y="568" on="0"/>
      </contour>
      <contour>
        <pt x="2762" y="401" on="1"/>
        <pt x="2821" y="401" on="0"/>
        <pt x="2881" y="487" on="0"/>
        <pt x="2881" y="536" on="1"/>
        <pt x="2881" y="609" on="0"/>
        <pt x="2749" y="713" on="0"/>
        <pt x="2593" y="713" on="1"/>
        <pt x="2500" y="713" on="0"/>
        <pt x="2241" y="646" on="0"/>
        <pt x="2090" y="584" on="1"/>
        <pt x="2595" y="418" on="1"/>
        <pt x="2583" y="434" on="0"/>
        <pt x="2570" y="474" on="0"/>
        <pt x="2570" y="496" on="1"/>
        <pt x="2570" y="556" on="0"/>
        <pt x="2647" y="636" on="0"/>
        <pt x="2717" y="636" on="1"/>
        <pt x="2760" y="636" on="0"/>
        <pt x="2812" y="582" on="0"/>
        <pt x="2812" y="548" on="1"/>
        <pt x="2812" y="524" on="0"/>
        <pt x="2772" y="469" on="0"/>
        <pt x="2731" y="469" on="1"/>
        <pt x="2700" y="469" on="0"/>
        <pt x="2653" y="518" on="0"/>
        <pt x="2652" y="543" on="1"/>
        <pt x="2645" y="547" on="1"/>
        <pt x="2636" y="536" on="0"/>
        <pt x="2627" y="514" on="0"/>
        <pt x="2627" y="495" on="1"/>
        <pt x="2627" y="461" on="0"/>
        <pt x="2693" y="401" on="0"/>
      </contour>
      <contour>
        <pt x="182" y="401" on="1"/>
        <pt x="251" y="401" on="0"/>
        <pt x="317" y="461" on="0"/>
        <pt x="317" y="495" on="1"/>
        <pt x="317" y="514" on="0"/>
        <pt x="308" y="536" on="0"/>
        <pt x="299" y="547" on="1"/>
        <pt x="292" y="543" on="1"/>
        <pt x="291" y="518" on="0"/>
        <pt x="244" y="469" on="0"/>
        <pt x="213" y="469" on="1"/>
        <pt x="172" y="469" on="0"/>
        <pt x="132" y="524" on="0"/>
        <pt x="132" y="548" on="1"/>
        <pt x="132" y="582" on="0"/>
        <pt x="184" y="636" on="0"/>
        <pt x="227" y="636" on="1"/>
        <pt x="297" y="636" on="0"/>
        <pt x="374" y="556" on="0"/>
        <pt x="374" y="496" on="1"/>
        <pt x="374" y="474" on="0"/>
        <pt x="361" y="434" on="0"/>
        <pt x="349" y="418" on="1"/>
        <pt x="854" y="584" on="1"/>
        <pt x="703" y="646" on="0"/>
        <pt x="444" y="713" on="0"/>
        <pt x="351" y="713" on="1"/>
        <pt x="195" y="713" on="0"/>
        <pt x="63" y="609" on="0"/>
        <pt x="63" y="536" on="1"/>
        <pt x="63" y="487" on="0"/>
        <pt x="124" y="401" on="0"/>
      </contour>
      <contour>
        <pt x="1304" y="433" on="1"/>
        <pt x="1451" y="599" on="1"/>
        <pt x="1165" y="506" on="1"/>
        <pt x="1199" y="488" on="0"/>
        <pt x="1270" y="452" on="0"/>
      </contour>
      <contour>
        <pt x="1640" y="433" on="1"/>
        <pt x="1674" y="452" on="0"/>
        <pt x="1745" y="488" on="0"/>
        <pt x="1779" y="506" on="1"/>
        <pt x="1493" y="599" on="1"/>
      </contour>
      <contour>
        <pt x="2003" y="207" on="1"/>
        <pt x="2525" y="377" on="1"/>
        <pt x="2003" y="547" on="1"/>
        <pt x="1987" y="540" on="0"/>
        <pt x="1957" y="526" on="0"/>
        <pt x="1941" y="519" on="1"/>
        <pt x="2373" y="377" on="1"/>
        <pt x="1941" y="235" on="1"/>
        <pt x="1957" y="228" on="0"/>
        <pt x="1987" y="214" on="0"/>
      </contour>
      <contour>
        <pt x="941" y="207" on="1"/>
        <pt x="957" y="214" on="0"/>
        <pt x="987" y="228" on="0"/>
        <pt x="1003" y="235" on="1"/>
        <pt x="571" y="377" on="1"/>
        <pt x="1003" y="519" on="1"/>
        <pt x="987" y="526" on="0"/>
        <pt x="957" y="540" on="0"/>
        <pt x="941" y="547" on="1"/>
        <pt x="419" y="377" on="1"/>
      </contour>
      <contour>
        <pt x="1083" y="274" on="1"/>
        <pt x="1129" y="297" on="0"/>
        <pt x="1225" y="349" on="0"/>
        <pt x="1273" y="377" on="1"/>
        <pt x="1225" y="405" on="0"/>
        <pt x="1129" y="456" on="0"/>
        <pt x="1083" y="480" on="1"/>
        <pt x="768" y="377" on="1"/>
      </contour>
      <contour>
        <pt x="1861" y="274" on="1"/>
        <pt x="2176" y="377" on="1"/>
        <pt x="1861" y="480" on="1"/>
        <pt x="1815" y="456" on="0"/>
        <pt x="1719" y="405" on="0"/>
        <pt x="1671" y="377" on="1"/>
        <pt x="1719" y="349" on="0"/>
        <pt x="1815" y="297" on="0"/>
      </contour>
      <contour>
        <pt x="2593" y="40" on="1"/>
        <pt x="2749" y="40" on="0"/>
        <pt x="2881" y="145" on="0"/>
        <pt x="2881" y="217" on="1"/>
        <pt x="2881" y="266" on="0"/>
        <pt x="2821" y="352" on="0"/>
        <pt x="2762" y="352" on="1"/>
        <pt x="2693" y="352" on="0"/>
        <pt x="2627" y="292" on="0"/>
        <pt x="2627" y="258" on="1"/>
        <pt x="2627" y="240" on="0"/>
        <pt x="2636" y="217" on="0"/>
        <pt x="2645" y="207" on="1"/>
        <pt x="2652" y="210" on="1"/>
        <pt x="2653" y="235" on="0"/>
        <pt x="2700" y="284" on="0"/>
        <pt x="2731" y="284" on="1"/>
        <pt x="2772" y="284" on="0"/>
        <pt x="2812" y="230" on="0"/>
        <pt x="2812" y="206" on="1"/>
        <pt x="2812" y="172" on="0"/>
        <pt x="2760" y="118" on="0"/>
        <pt x="2717" y="118" on="1"/>
        <pt x="2647" y="118" on="0"/>
        <pt x="2570" y="197" on="0"/>
        <pt x="2570" y="257" on="1"/>
        <pt x="2570" y="279" on="0"/>
        <pt x="2583" y="319" on="0"/>
        <pt x="2595" y="335" on="1"/>
        <pt x="2090" y="169" on="1"/>
        <pt x="2241" y="107" on="0"/>
        <pt x="2500" y="40" on="0"/>
      </contour>
      <contour>
        <pt x="351" y="40" on="1"/>
        <pt x="444" y="40" on="0"/>
        <pt x="703" y="107" on="0"/>
        <pt x="854" y="169" on="1"/>
        <pt x="349" y="335" on="1"/>
        <pt x="361" y="319" on="0"/>
        <pt x="374" y="279" on="0"/>
        <pt x="374" y="257" on="1"/>
        <pt x="374" y="197" on="0"/>
        <pt x="297" y="118" on="0"/>
        <pt x="227" y="118" on="1"/>
        <pt x="184" y="118" on="0"/>
        <pt x="132" y="172" on="0"/>
        <pt x="132" y="206" on="1"/>
        <pt x="132" y="230" on="0"/>
        <pt x="172" y="284" on="0"/>
        <pt x="213" y="284" on="1"/>
        <pt x="244" y="284" on="0"/>
        <pt x="291" y="235" on="0"/>
        <pt x="292" y="210" on="1"/>
        <pt x="299" y="207" on="1"/>
        <pt x="308" y="217" on="0"/>
        <pt x="317" y="240" on="0"/>
        <pt x="317" y="258" on="1"/>
        <pt x="317" y="292" on="0"/>
        <pt x="251" y="352" on="0"/>
        <pt x="182" y="352" on="1"/>
        <pt x="124" y="352" on="0"/>
        <pt x="63" y="266" on="0"/>
        <pt x="63" y="217" on="1"/>
        <pt x="63" y="145" on="0"/>
        <pt x="195" y="40" on="0"/>
      </contour>
      <contour>
        <pt x="1493" y="154" on="1"/>
        <pt x="1779" y="247" on="1"/>
        <pt x="1745" y="265" on="0"/>
        <pt x="1674" y="302" on="0"/>
        <pt x="1640" y="320" on="1"/>
      </contour>
      <contour>
        <pt x="1451" y="154" on="1"/>
        <pt x="1304" y="320" on="1"/>
        <pt x="1270" y="302" on="0"/>
        <pt x="1199" y="265" on="0"/>
        <pt x="1165" y="247" on="1"/>
      </contour>
      <contour>
        <pt x="1472" y="33" on="1"/>
        <pt x="1919" y="179" on="1"/>
        <pt x="1904" y="186" on="0"/>
        <pt x="1873" y="201" on="0"/>
        <pt x="1857" y="208" on="1"/>
        <pt x="1472" y="83" on="1"/>
        <pt x="1087" y="208" on="1"/>
        <pt x="1071" y="201" on="0"/>
        <pt x="1040" y="186" on="0"/>
        <pt x="1025" y="179" on="1"/>
      </contour>
    </TTGlyph>
    <TTGlyph name="asciicircum" xMin="-15" yMin="102" xMax="4180" yMax="650">
      <contour>
        <pt x="-15" y="413" on="1"/>
        <pt x="78" y="450" on="0"/>
        <pt x="302" y="586" on="0"/>
        <pt x="371" y="650" on="1"/>
        <pt x="387" y="650" on="1"/>
        <pt x="624" y="552" on="0"/>
        <pt x="2356" y="413" on="0"/>
        <pt x="4180" y="413" on="1"/>
        <pt x="4180" y="340" on="1"/>
        <pt x="2356" y="340" on="0"/>
        <pt x="624" y="200" on="0"/>
        <pt x="387" y="102" on="1"/>
        <pt x="371" y="102" on="1"/>
        <pt x="302" y="167" on="0"/>
        <pt x="78" y="303" on="0"/>
        <pt x="-15" y="340" on="1"/>
      </contour>
      <contour>
        <pt x="503" y="448" on="1"/>
        <pt x="372" y="448" on="0"/>
        <pt x="196" y="414" on="0"/>
        <pt x="196" y="376" on="1"/>
        <pt x="196" y="338" on="0"/>
        <pt x="372" y="305" on="0"/>
        <pt x="503" y="305" on="1"/>
        <pt x="634" y="305" on="0"/>
        <pt x="1217" y="355" on="0"/>
        <pt x="1738" y="371" on="1"/>
        <pt x="1738" y="382" on="1"/>
        <pt x="1217" y="398" on="0"/>
        <pt x="634" y="448" on="0"/>
      </contour>
    </TTGlyph>
    <TTGlyph name="asterisk" xMin="-3" yMin="27" xMax="3315" yMax="757">
      <contour>
        <pt x="-3" y="381" on="1"/>
        <pt x="-3" y="557" on="0"/>
        <pt x="226" y="757" on="0"/>
        <pt x="381" y="757" on="1"/>
        <pt x="515" y="757" on="0"/>
        <pt x="739" y="662" on="0"/>
        <pt x="968" y="615" on="1"/>
        <pt x="1581" y="489" on="0"/>
        <pt x="2664" y="412" on="0"/>
        <pt x="3315" y="413" on="1"/>
        <pt x="3315" y="341" on="1"/>
        <pt x="2685" y="341" on="0"/>
        <pt x="1532" y="256" on="0"/>
        <pt x="673" y="69" on="1"/>
        <pt x="654" y="92" on="1"/>
        <pt x="694" y="162" on="0"/>
        <pt x="736" y="282" on="0"/>
        <pt x="736" y="357" on="1"/>
        <pt x="736" y="511" on="0"/>
        <pt x="548" y="696" on="0"/>
        <pt x="382" y="696" on="1"/>
        <pt x="228" y="696" on="0"/>
        <pt x="59" y="509" on="0"/>
        <pt x="59" y="380" on="1"/>
        <pt x="59" y="252" on="0"/>
        <pt x="220" y="84" on="0"/>
        <pt x="336" y="84" on="1"/>
        <pt x="424" y="84" on="0"/>
        <pt x="551" y="204" on="0"/>
        <pt x="551" y="298" on="1"/>
        <pt x="551" y="332" on="0"/>
        <pt x="528" y="402" on="0"/>
        <pt x="512" y="421" on="1"/>
        <pt x="498" y="415" on="1"/>
        <pt x="502" y="405" on="0"/>
        <pt x="504" y="379" on="0"/>
        <pt x="504" y="369" on="1"/>
        <pt x="504" y="301" on="0"/>
        <pt x="420" y="221" on="0"/>
        <pt x="360" y="221" on="1"/>
        <pt x="292" y="221" on="0"/>
        <pt x="201" y="312" on="0"/>
        <pt x="201" y="380" on="1"/>
        <pt x="201" y="448" on="0"/>
        <pt x="295" y="559" on="0"/>
        <pt x="379" y="559" on="1"/>
        <pt x="495" y="559" on="0"/>
        <pt x="613" y="383" on="0"/>
        <pt x="613" y="297" on="1"/>
        <pt x="613" y="195" on="0"/>
        <pt x="466" y="27" on="0"/>
        <pt x="339" y="27" on="1"/>
        <pt x="196" y="27" on="0"/>
        <pt x="-3" y="232" on="0"/>
      </contour>
      <contour>
        <pt x="796" y="377" on="1"/>
        <pt x="2216" y="377" on="1"/>
        <pt x="2216" y="393" on="1"/>
        <pt x="1900" y="413" on="0"/>
        <pt x="1142" y="508" on="0"/>
        <pt x="723" y="613" on="1"/>
        <pt x="720" y="610" on="1"/>
        <pt x="755" y="556" on="0"/>
        <pt x="795" y="445" on="0"/>
      </contour>
      <contour>
        <pt x="370" y="498" on="1"/>
        <pt x="330" y="498" on="0"/>
        <pt x="279" y="453" on="0"/>
        <pt x="279" y="425" on="1"/>
        <pt x="279" y="394" on="0"/>
        <pt x="325" y="363" on="0"/>
        <pt x="356" y="363" on="1"/>
        <pt x="396" y="363" on="0"/>
        <pt x="447" y="408" on="0"/>
        <pt x="447" y="436" on="1"/>
        <pt x="447" y="467" on="0"/>
        <pt x="401" y="498" on="0"/>
      </contour>
    </TTGlyph>
    <TTGlyph name="at" xMin="60" yMin="18" xMax="3139" yMax="736">
      <contour>
        <pt x="60" y="670" on="1"/>
        <pt x="60" y="698" on="0"/>
        <pt x="99" y="736" on="0"/>
        <pt x="127" y="736" on="1"/>
        <pt x="155" y="736" on="0"/>
        <pt x="194" y="698" on="0"/>
        <pt x="194" y="670" on="1"/>
        <pt x="194" y="642" on="0"/>
        <pt x="155" y="603" on="0"/>
        <pt x="127" y="603" on="1"/>
        <pt x="99" y="603" on="0"/>
        <pt x="60" y="642" on="0"/>
      </contour>
      <contour>
        <pt x="975" y="646" on="1"/>
        <pt x="975" y="671" on="0"/>
        <pt x="1011" y="707" on="0"/>
        <pt x="1036" y="707" on="1"/>
        <pt x="1061" y="707" on="0"/>
        <pt x="1098" y="671" on="0"/>
        <pt x="1098" y="646" on="1"/>
        <pt x="1098" y="620" on="0"/>
        <pt x="1061" y="584" on="0"/>
        <pt x="1036" y="584" on="1"/>
        <pt x="1011" y="584" on="0"/>
        <pt x="975" y="620" on="0"/>
      </contour>
      <contour>
        <pt x="697" y="155" on="1"/>
        <pt x="697" y="108" on="0"/>
        <pt x="628" y="57" on="0"/>
        <pt x="582" y="57" on="1"/>
        <pt x="536" y="57" on="0"/>
        <pt x="466" y="108" on="0"/>
        <pt x="466" y="155" on="1"/>
        <pt x="466" y="214" on="0"/>
        <pt x="562" y="301" on="0"/>
        <pt x="568" y="364" on="1"/>
        <pt x="488" y="357" on="0"/>
        <pt x="367" y="262" on="0"/>
        <pt x="310" y="262" on="1"/>
        <pt x="264" y="262" on="0"/>
        <pt x="212" y="331" on="0"/>
        <pt x="212" y="377" on="1"/>
        <pt x="212" y="423" on="0"/>
        <pt x="264" y="493" on="0"/>
        <pt x="310" y="493" on="1"/>
        <pt x="368" y="493" on="0"/>
        <pt x="489" y="397" on="0"/>
        <pt x="568" y="391" on="1"/>
        <pt x="561" y="454" on="0"/>
        <pt x="466" y="542" on="0"/>
        <pt x="466" y="599" on="1"/>
        <pt x="466" y="646" on="0"/>
        <pt x="536" y="697" on="0"/>
        <pt x="582" y="697" on="1"/>
        <pt x="628" y="697" on="0"/>
        <pt x="697" y="646" on="0"/>
        <pt x="697" y="599" on="1"/>
        <pt x="697" y="542" on="0"/>
        <pt x="600" y="454" on="0"/>
        <pt x="593" y="391" on="1"/>
        <pt x="674" y="398" on="0"/>
        <pt x="796" y="493" on="0"/>
        <pt x="853" y="493" on="1"/>
        <pt x="900" y="493" on="0"/>
        <pt x="951" y="423" on="0"/>
        <pt x="951" y="377" on="1"/>
        <pt x="951" y="331" on="0"/>
        <pt x="900" y="262" on="0"/>
        <pt x="853" y="262" on="1"/>
        <pt x="796" y="262" on="0"/>
        <pt x="674" y="358" on="0"/>
        <pt x="593" y="364" on="1"/>
        <pt x="602" y="301" on="0"/>
        <pt x="697" y="213" on="0"/>
      </contour>
      <contour>
        <pt x="1776" y="620" on="1"/>
        <pt x="1776" y="644" on="0"/>
        <pt x="1809" y="677" on="0"/>
        <pt x="1833" y="677" on="1"/>
        <pt x="1856" y="677" on="0"/>
        <pt x="1889" y="644" on="0"/>
        <pt x="1889" y="620" on="1"/>
        <pt x="1889" y="597" on="0"/>
        <pt x="1856" y="564" on="0"/>
        <pt x="1833" y="564" on="1"/>
        <pt x="1809" y="564" on="0"/>
        <pt x="1776" y="597" on="0"/>
      </contour>
      <contour>
        <pt x="1541" y="187" on="1"/>
        <pt x="1541" y="147" on="0"/>
        <pt x="1481" y="104" on="0"/>
        <pt x="1441" y="104" on="1"/>
        <pt x="1403" y="104" on="0"/>
        <pt x="1342" y="147" on="0"/>
        <pt x="1342" y="187" on="1"/>
        <pt x="1342" y="237" on="0"/>
        <pt x="1423" y="313" on="0"/>
        <pt x="1429" y="367" on="1"/>
        <pt x="1361" y="359" on="0"/>
        <pt x="1259" y="278" on="0"/>
        <pt x="1210" y="278" on="1"/>
        <pt x="1170" y="278" on="0"/>
        <pt x="1126" y="338" on="0"/>
        <pt x="1126" y="377" on="1"/>
        <pt x="1126" y="416" on="0"/>
        <pt x="1170" y="477" on="0"/>
        <pt x="1210" y="477" on="1"/>
        <pt x="1260" y="477" on="0"/>
        <pt x="1362" y="395" on="0"/>
        <pt x="1428" y="390" on="1"/>
        <pt x="1421" y="444" on="0"/>
        <pt x="1342" y="518" on="0"/>
        <pt x="1342" y="567" on="1"/>
        <pt x="1342" y="607" on="0"/>
        <pt x="1403" y="650" on="0"/>
        <pt x="1441" y="650" on="1"/>
        <pt x="1481" y="650" on="0"/>
        <pt x="1541" y="607" on="0"/>
        <pt x="1541" y="567" on="1"/>
        <pt x="1541" y="518" on="0"/>
        <pt x="1458" y="443" on="0"/>
        <pt x="1453" y="390" on="1"/>
        <pt x="1522" y="396" on="0"/>
        <pt x="1624" y="477" on="0"/>
        <pt x="1673" y="477" on="1"/>
        <pt x="1713" y="477" on="0"/>
        <pt x="1757" y="415" on="0"/>
        <pt x="1757" y="377" on="1"/>
        <pt x="1757" y="338" on="0"/>
        <pt x="1713" y="278" on="0"/>
        <pt x="1673" y="278" on="1"/>
        <pt x="1624" y="278" on="0"/>
        <pt x="1521" y="360" on="0"/>
        <pt x="1453" y="367" on="1"/>
        <pt x="1459" y="313" on="0"/>
        <pt x="1541" y="237" on="0"/>
      </contour>
      <contour>
        <pt x="2464" y="584" on="1"/>
        <pt x="2464" y="604" on="0"/>
        <pt x="2493" y="633" on="0"/>
        <pt x="2514" y="633" on="1"/>
        <pt x="2533" y="633" on="0"/>
        <pt x="2563" y="604" on="0"/>
        <pt x="2563" y="584" on="1"/>
        <pt x="2563" y="563" on="0"/>
        <pt x="2533" y="534" on="0"/>
        <pt x="2514" y="534" on="1"/>
        <pt x="2493" y="534" on="0"/>
        <pt x="2464" y="563" on="0"/>
      </contour>
      <contour>
        <pt x="2263" y="216" on="1"/>
        <pt x="2263" y="182" on="0"/>
        <pt x="2212" y="144" on="0"/>
        <pt x="2178" y="144" on="1"/>
        <pt x="2145" y="144" on="0"/>
        <pt x="2095" y="182" on="0"/>
        <pt x="2095" y="216" on="1"/>
        <pt x="2095" y="258" on="0"/>
        <pt x="2163" y="323" on="0"/>
        <pt x="2167" y="368" on="1"/>
        <pt x="2110" y="361" on="0"/>
        <pt x="2022" y="293" on="0"/>
        <pt x="1981" y="293" on="1"/>
        <pt x="1947" y="293" on="0"/>
        <pt x="1909" y="343" on="0"/>
        <pt x="1909" y="377" on="1"/>
        <pt x="1909" y="410" on="0"/>
        <pt x="1947" y="462" on="0"/>
        <pt x="1981" y="462" on="1"/>
        <pt x="2023" y="462" on="0"/>
        <pt x="2110" y="393" on="0"/>
        <pt x="2166" y="389" on="1"/>
        <pt x="2160" y="434" on="0"/>
        <pt x="2095" y="498" on="0"/>
        <pt x="2095" y="538" on="1"/>
        <pt x="2095" y="572" on="0"/>
        <pt x="2145" y="610" on="0"/>
        <pt x="2178" y="610" on="1"/>
        <pt x="2212" y="610" on="0"/>
        <pt x="2263" y="572" on="0"/>
        <pt x="2263" y="538" on="1"/>
        <pt x="2263" y="497" on="0"/>
        <pt x="2193" y="432" on="0"/>
        <pt x="2189" y="389" on="1"/>
        <pt x="2246" y="394" on="0"/>
        <pt x="2334" y="462" on="0"/>
        <pt x="2374" y="462" on="1"/>
        <pt x="2408" y="462" on="0"/>
        <pt x="2448" y="410" on="0"/>
        <pt x="2448" y="377" on="1"/>
        <pt x="2448" y="343" on="0"/>
        <pt x="2408" y="293" on="0"/>
        <pt x="2374" y="293" on="1"/>
        <pt x="2334" y="293" on="0"/>
        <pt x="2245" y="362" on="0"/>
        <pt x="2188" y="368" on="1"/>
        <pt x="2193" y="322" on="0"/>
        <pt x="2263" y="258" on="0"/>
      </contour>
      <contour>
        <pt x="3054" y="547" on="1"/>
        <pt x="3054" y="564" on="0"/>
        <pt x="3079" y="589" on="0"/>
        <pt x="3097" y="589" on="1"/>
        <pt x="3113" y="589" on="0"/>
        <pt x="3139" y="564" on="0"/>
        <pt x="3139" y="547" on="1"/>
        <pt x="3139" y="530" on="0"/>
        <pt x="3113" y="505" on="0"/>
        <pt x="3097" y="505" on="1"/>
        <pt x="3079" y="505" on="0"/>
        <pt x="3054" y="530" on="0"/>
      </contour>
      <contour>
        <pt x="2882" y="238" on="1"/>
        <pt x="2882" y="210" on="0"/>
        <pt x="2838" y="180" on="0"/>
        <pt x="2809" y="180" on="1"/>
        <pt x="2781" y="180" on="0"/>
        <pt x="2739" y="210" on="0"/>
        <pt x="2739" y="238" on="1"/>
        <pt x="2739" y="275" on="0"/>
        <pt x="2796" y="329" on="0"/>
        <pt x="2800" y="369" on="1"/>
        <pt x="2751" y="363" on="0"/>
        <pt x="2678" y="307" on="0"/>
        <pt x="2642" y="307" on="1"/>
        <pt x="2612" y="307" on="0"/>
        <pt x="2580" y="348" on="0"/>
        <pt x="2580" y="377" on="1"/>
        <pt x="2580" y="405" on="0"/>
        <pt x="2612" y="448" on="0"/>
        <pt x="2642" y="448" on="1"/>
        <pt x="2679" y="448" on="0"/>
        <pt x="2752" y="391" on="0"/>
        <pt x="2800" y="386" on="1"/>
        <pt x="2795" y="427" on="0"/>
        <pt x="2739" y="480" on="0"/>
        <pt x="2739" y="516" on="1"/>
        <pt x="2739" y="544" on="0"/>
        <pt x="2781" y="574" on="0"/>
        <pt x="2809" y="574" on="1"/>
        <pt x="2838" y="574" on="0"/>
        <pt x="2882" y="544" on="0"/>
        <pt x="2882" y="516" on="1"/>
        <pt x="2882" y="479" on="0"/>
        <pt x="2823" y="426" on="0"/>
        <pt x="2819" y="386" on="1"/>
        <pt x="2868" y="392" on="0"/>
        <pt x="2942" y="448" on="0"/>
        <pt x="2978" y="448" on="1"/>
        <pt x="3007" y="448" on="0"/>
        <pt x="3039" y="405" on="0"/>
        <pt x="3039" y="377" on="1"/>
        <pt x="3039" y="348" on="0"/>
        <pt x="3007" y="307" on="0"/>
        <pt x="2978" y="307" on="1"/>
        <pt x="2942" y="307" on="0"/>
        <pt x="2868" y="364" on="0"/>
        <pt x="2819" y="369" on="1"/>
        <pt x="2823" y="329" on="0"/>
        <pt x="2882" y="275" on="0"/>
      </contour>
      <contour>
        <pt x="3139" y="207" on="1"/>
        <pt x="3139" y="190" on="0"/>
        <pt x="3113" y="166" on="0"/>
        <pt x="3097" y="166" on="1"/>
        <pt x="3079" y="166" on="0"/>
        <pt x="3054" y="190" on="0"/>
        <pt x="3054" y="207" on="1"/>
        <pt x="3054" y="224" on="0"/>
        <pt x="3079" y="249" on="0"/>
        <pt x="3097" y="249" on="1"/>
        <pt x="3113" y="249" on="0"/>
        <pt x="3139" y="224" on="0"/>
      </contour>
      <contour>
        <pt x="2563" y="170" on="1"/>
        <pt x="2563" y="150" on="0"/>
        <pt x="2533" y="122" on="0"/>
        <pt x="2514" y="122" on="1"/>
        <pt x="2493" y="122" on="0"/>
        <pt x="2464" y="150" on="0"/>
        <pt x="2464" y="170" on="1"/>
        <pt x="2464" y="191" on="0"/>
        <pt x="2493" y="220" on="0"/>
        <pt x="2514" y="220" on="1"/>
        <pt x="2533" y="220" on="0"/>
        <pt x="2563" y="191" on="0"/>
      </contour>
      <contour>
        <pt x="1889" y="134" on="1"/>
        <pt x="1889" y="110" on="0"/>
        <pt x="1856" y="78" on="0"/>
        <pt x="1833" y="78" on="1"/>
        <pt x="1809" y="78" on="0"/>
        <pt x="1776" y="110" on="0"/>
        <pt x="1776" y="134" on="1"/>
        <pt x="1776" y="157" on="0"/>
        <pt x="1809" y="190" on="0"/>
        <pt x="1833" y="190" on="1"/>
        <pt x="1856" y="190" on="0"/>
        <pt x="1889" y="157" on="0"/>
      </contour>
      <contour>
        <pt x="1098" y="108" on="1"/>
        <pt x="1098" y="83" on="0"/>
        <pt x="1061" y="47" on="0"/>
        <pt x="1036" y="47" on="1"/>
        <pt x="1011" y="47" on="0"/>
        <pt x="975" y="83" on="0"/>
        <pt x="975" y="108" on="1"/>
        <pt x="975" y="134" on="0"/>
        <pt x="1011" y="171" on="0"/>
        <pt x="1036" y="171" on="1"/>
        <pt x="1061" y="171" on="0"/>
        <pt x="1098" y="134" on="0"/>
      </contour>
      <contour>
        <pt x="194" y="84" on="1"/>
        <pt x="194" y="56" on="0"/>
        <pt x="155" y="18" on="0"/>
        <pt x="127" y="18" on="1"/>
        <pt x="99" y="18" on="0"/>
        <pt x="60" y="56" on="0"/>
        <pt x="60" y="84" on="1"/>
        <pt x="60" y="112" on="0"/>
        <pt x="99" y="151" on="0"/>
        <pt x="127" y="151" on="1"/>
        <pt x="155" y="151" on="0"/>
        <pt x="194" y="112" on="0"/>
      </contour>
    </TTGlyph>
</ttFont>
